<?xml version="1.0" encoding="UTF-8"?>
<svg width="353px" height="343px" viewBox="0 0 353 343" version="1.1" xmlns="http://www.w3.org/2000/svg" xmlns:xlink="http://www.w3.org/1999/xlink">
    <!-- Generator: Sketch 52.3 (67297) - http://www.bohemiancoding.com/sketch -->
    <title>Group</title>
    <desc>Created with Sketch.</desc>
    <g id="High---UserFlow----SANDRA" stroke="none" stroke-width="1" fill="none" fill-rule="evenodd">
        <g id="On-1" transform="translate(-11.000000, -225.000000)">
            <g id="Group" transform="translate(11.000000, 218.000000)">
                <g id="Scene/Whiteboard">
                    <g id="Background-Shape-2" opacity="0.504510789" transform="translate(15.695728, 177.020044)" fill="#F2F2F2">
                        <path d="M310.300215,80.7860051 C314.825346,116.893914 205.083231,140.445868 110.62565,124.009527 C16.1680678,107.573187 -27.164592,43.3874231 17.9089912,9.18672508 C62.9825744,-25.013973 305.775085,44.6780959 310.300215,80.7860051 Z" id="Background-Shape"></path>
                    </g>
                    <path d="M268.135166,86.1803483 C270.851797,85.0061506 274.301807,86.7138866 272.647416,90.107659 C270.875335,93.7418509 265.041253,93.4821427 261.751637,93.2358678 C262.082179,93.2358678 263.3223,89.8830838 263.712696,89.3870895 C264.864044,87.9239062 266.46497,86.9036733 268.135166,86.1803483 Z M234.135037,151.220853 C233.437075,151.757 234.077862,151.271555 234.135037,151.220853 Z M269.804816,103.125434 C271.29223,104.391113 271.256535,106.486263 269.916616,107.835463 C268.321106,109.441655 265.572235,109.236062 263.526494,108.964193 C262.601111,108.841108 257.660014,108.183753 258.878703,107.433408 C258.786434,107.462827 258.593141,107.535866 258.385031,107.637986 C258.255383,108.029897 258.120348,108.420117 257.980597,108.808308 C258.008884,108.826906 258.032793,108.846519 258.063101,108.865117 C258.030099,108.848547 258.0072,108.831302 257.97824,108.814733 C256.57838,112.694615 254.683165,116.359436 252.275083,119.754756 C253.12436,119.470714 253.999231,119.267826 254.879152,119.20324 C257.484905,119.011512 262.825048,121.308535 259.748859,124.603425 C256.799287,127.762042 252.662679,123.990705 249.537325,123.336732 C246.257403,127.442157 242.673399,131.353486 238.934827,135.119751 C239.147651,135.198877 239.330168,135.350028 239.427488,135.575571 C240.881901,134.931066 242.412082,133.980201 243.737858,133.770551 C245.650921,133.468587 249.543386,133.428685 250.884652,135.197187 C252.534378,137.371801 250.560364,138.964466 248.461416,139.254933 C245.417892,139.676263 241.550682,137.99737 238.703481,136.850718 C238.368754,136.891972 238.011802,136.775988 237.809416,136.499385 C237.746444,136.475039 237.683473,136.45103 237.622185,136.427698 C233.839836,140.172322 229.927502,143.779997 226.042108,147.305502 C226.081508,147.305502 226.120907,147.305164 226.16199,147.305164 C227.157753,146.72423 228.217498,146.260294 229.35099,146.047601 C231.973244,145.552218 235.019799,145.708779 237.022774,147.692341 C239.018003,149.667449 239.588454,152.968764 237.313387,154.949959 C232.759549,158.91573 226.874885,149.020915 224.709598,148.507272 C220.763253,152.050361 216.614522,155.336459 212.407198,158.548842 C212.87191,158.433534 213.346387,158.355761 213.833661,158.335134 C217.803242,158.164032 226.820332,163.492191 221.72332,168.002377 C217.281619,171.932642 212.811295,163.685611 209.553599,160.712635 C205.590753,163.704547 201.608376,166.673465 197.726686,169.771554 C199.777816,169.340419 201.737014,169.363751 203.87132,170.132694 C206.079711,170.929365 209.611856,172.813512 208.03453,175.768904 C206.430265,178.774341 202.155591,177.14448 199.942149,176.047536 C198.734909,175.449356 196.352756,173.518883 194.218113,172.646468 C188.006467,177.924243 182.557217,183.810343 178.296013,190.857296 C175.635707,195.257246 173.543494,199.99737 171.988731,204.900481 C170.996336,208.030018 169.089334,213.273641 169.198777,217.42032 C168.078754,209.072859 171.407504,199.292337 174.820105,192.062447 C177.957919,185.414167 182.433631,179.66806 187.591257,174.554961 C186.560473,170.810337 176.538864,164.96211 182.875444,161.865373 C186.239889,160.228749 189.431583,163.404274 189.979808,166.619023 C190.356292,168.828128 189.464584,171.532278 188.559743,173.609844 C190.179499,172.053699 191.857176,170.553347 193.58065,169.108113 C195.962466,167.110687 198.395467,165.177509 200.849347,163.271382 C197.17139,159.434445 194.054791,148.853194 199.330615,147.425882 C207.120934,145.325322 202.690346,159.303583 202.016851,161.93165 C201.864641,161.932664 201.7488,161.88059 201.66697,161.777794 C201.697277,162.023287 201.733646,162.286026 201.780454,162.551471 C206.476063,158.923507 211.234306,155.375008 215.851116,151.650334 C215.469244,151.335859 214.896436,150.180754 214.431388,149.557552 C213.381746,148.152557 212.383626,146.690077 211.682854,145.07408 C210.575965,142.520405 209.590641,138.488019 212.947341,137.195965 C216.598022,135.787927 218.057823,140.366756 217.942318,143.046559 C217.862172,144.899935 217.265456,146.633269 216.907493,148.435247 C216.795693,148.997244 216.97821,151.566474 216.264305,150.427938 C216.279459,150.834727 216.269356,151.128238 216.240396,151.335183 C217.069468,150.662949 217.892816,149.982601 218.71145,149.296841 C218.680132,149.203175 218.65858,149.101731 218.65858,148.985409 C218.65858,148.184681 219.478224,147.919236 220.02948,148.182652 C221.110776,147.257824 222.182644,146.320146 223.237337,145.361842 C225.472668,143.331616 227.74201,141.241876 229.998893,139.104458 C229.555733,138.681438 229.769231,138.139053 229.357388,137.693039 C228.94622,137.248039 228.105024,136.969746 227.616067,136.550783 C226.386264,135.496445 225.39892,134.002518 224.704547,132.546802 C223.558258,130.141573 222.175572,125.14953 225.940747,124.229098 C229.821763,123.278571 231.513583,128.102893 231.604505,131.068429 C231.622353,131.642939 230.923938,136.774636 230.497952,138.629026 C234.67497,134.655816 238.795077,130.522324 242.55318,126.294153 C241.484343,126.228214 238.567435,123.878441 237.985872,123.248476 C236.566818,121.711942 234.358427,118.365316 237.069582,116.797673 C239.480021,115.407557 242.238657,117.748538 243.123967,119.929577 C243.269442,120.288688 243.676233,123.581549 243.644579,125.047748 C245.202373,123.252871 246.693491,121.443455 248.087963,119.622879 C249.017723,118.412656 249.892594,117.166252 250.716952,115.889752 C250.540496,115.77715 250.378857,115.588465 250.229004,115.356497 C246.375602,114.492873 241.736567,108.166846 246.413991,106.295549 C248.640903,105.405888 250.890377,107.601129 251.866608,109.353061 C252.066636,109.711495 252.328626,111.474586 252.544144,112.865717 C254.945828,108.619623 256.848452,104.09084 258.360449,99.4244311 C258.026395,99.3226493 257.753293,99.0490895 257.738813,98.6023993 C255.907579,97.4273435 254.463942,96.4531462 253.254682,94.3147137 C252.503398,92.986478 251.18301,89.9725868 253.625777,89.385228 C256.804675,88.621019 258.520404,93.5051933 258.653082,95.8735647 C258.668573,96.148477 258.625806,96.9434572 258.577314,97.6714846 C258.686757,97.6623547 258.796537,97.6697939 258.903286,97.6944785 C259.775799,94.8016433 260.505194,91.8634967 261.117401,88.9141912 C259.437704,88.274758 259.612476,79.2865112 260.817022,78.068511 C263.509656,75.341029 265.086982,79.5675102 264.836778,81.7444912 C264.541451,84.3113541 263.251708,86.5928221 261.753181,88.5990396 C261.592552,88.811395 261.635656,88.8029413 261.613094,88.4942145 C261.583797,88.6446892 261.527223,88.7539102 261.447751,88.8310074 C261.448424,90.1903525 261.515437,91.585541 261.385452,92.7815618 C261.01301,96.2066381 260.431783,99.6408442 259.673091,103.001335 C259.488553,103.818632 259.283811,104.628153 259.059873,105.429558 C260.494418,104.331599 262.40041,103.389188 263.141928,103.102102 C265.06644,102.357844 268.011972,101.599721 269.804816,103.125434 Z M168.977665,217.42032 C169.002114,218.622792 169.160786,219.730941 169.517048,220.656621 C169.268313,219.610921 169.092178,218.528468 168.977665,217.42032 Z" id="Leaf-Bottom" fill="#F2F2F2" transform="translate(221.028178, 148.918607) scale(-1, 1) rotate(-3.000000) translate(-221.028178, -148.918607) "></path>
                    <path d="M116.28639,23.0090488 C118.226841,22.1703361 120.691134,23.3901476 119.509426,25.8142707 C118.243654,28.4101221 114.076452,28.2246162 111.726727,28.0487056 C111.962829,28.0487056 112.848629,25.6538599 113.127483,25.2995782 C113.949875,24.2544473 115.093394,23.5257095 116.28639,23.0090488 Z M91.9743901,70.2418999 C91.2764278,70.7780472 91.9172155,70.292602 91.9743901,70.2418999 Z M117.838562,35.4505727 C118.924611,36.3657558 118.898547,37.8807103 117.920194,38.8562862 C116.755218,40.0176861 114.748106,39.8690269 113.25439,39.6724447 C112.578714,39.5834448 108.970929,39.1081266 109.860766,38.5655694 C109.793395,38.5868414 109.65226,38.6396545 109.500307,38.7134951 C109.405643,38.9968767 109.307046,39.2790357 109.205006,39.5597278 C109.22566,39.5731755 109.243117,39.5873569 109.265246,39.6008046 C109.24115,39.5888239 109.22443,39.5763541 109.203285,39.5643734 C108.181165,42.3698265 106.797357,45.0197743 105.039075,47.4748514 C105.659182,47.269467 106.297976,47.1227639 106.940458,47.0760634 C108.843072,46.9374289 112.742224,48.598353 110.496117,50.9808121 C108.342462,53.2647355 105.322082,50.5377686 103.040077,50.0648954 C100.645213,53.0334336 98.028321,55.8616257 95.2985701,58.5849251 C95.4539658,58.6421393 95.5872323,58.7514332 95.6582914,58.9145181 C96.7202436,58.4484912 97.8375187,57.7609424 98.8055451,57.6093492 C100.202385,57.391006 103.044503,57.3621544 104.023839,58.6409168 C105.228402,60.21333 103.787058,61.3649497 102.254493,61.5749797 C100.032236,61.8796332 97.2085597,60.6656647 95.1296511,59.8365474 C94.8852472,59.8663771 94.6246152,59.7825118 94.4768418,59.5825065 C94.4308624,59.5649021 94.384883,59.5475422 94.340133,59.5306714 C91.5784178,62.2383224 88.7217933,64.8469488 85.8848391,67.3961605 C85.913607,67.3961605 85.9423749,67.395916 85.9723721,67.395916 C86.6994369,66.975856 87.4732188,66.6403948 88.3008481,66.486601 C90.2155095,66.1284008 92.4399786,66.2416067 93.902468,67.6758745 C95.3593023,69.1040296 95.7758216,71.4911342 94.1146618,72.9236904 C90.7896374,75.7912479 86.4928984,68.6365355 84.9118951,68.2651321 C82.0304368,70.827058 79.0012051,73.2031599 75.9291904,75.5259597 C76.2685037,75.4425834 76.6149475,75.3863472 76.9707347,75.3714324 C79.8691587,75.2477128 86.453066,79.1003819 82.7314384,82.3615928 C79.4882918,85.2034772 76.2242454,79.2402388 73.8456101,77.0905488 C70.9521037,79.2539311 68.0443363,81.4006872 65.2100867,83.6408442 C66.7077369,83.3291 68.1382621,83.3459709 69.6966445,83.9019758 C71.3091203,84.4780301 73.8881472,85.8404133 72.736449,87.9773891 C71.5650805,90.1505517 68.44389,88.9720365 66.827726,88.1788615 C65.9462491,87.7463317 64.2068996,86.3504513 62.6482714,85.7196277 C58.1127837,89.5358655 54.1339665,93.7919683 51.0226111,98.8874575 C49.0801654,102.06896 47.552518,105.496434 46.4172937,109.04176 C45.6926877,111.304656 44.3002738,115.096199 44.3801846,118.094567 C43.5623904,112.05871 45.9929062,104.986641 48.484646,99.7588742 C50.7757484,94.9516566 54.0437288,90.7967791 57.8096146,87.0996153 C57.0569784,84.3919643 49.7396135,80.1632461 54.3663223,77.9240671 C56.8229014,76.7406618 59.1533444,79.0368105 59.5536358,81.3613218 C59.8285287,82.9586746 59.1774406,84.913983 58.5167632,86.4162232 C59.6994421,85.2910101 60.9244123,84.2061403 62.182822,83.1611249 C63.9219256,81.7168324 65.6984028,80.318996 67.4901245,78.9407199 C64.8046319,76.166319 62.52902,68.5152609 66.3812094,67.4832043 C72.0693787,65.9643378 68.8343461,76.0716954 68.3425877,77.9719902 C68.2314503,77.9727237 68.1468679,77.9350699 68.0871192,77.8607403 C68.1092484,78.0382511 68.1358033,78.2282317 68.1699805,78.4201683 C71.5985201,75.7968715 75.0727931,73.2310335 78.443797,70.5378083 C78.1649699,70.3104184 77.7467294,69.4751885 77.4071703,69.0245654 C76.6407648,68.0086461 75.9119788,66.9511609 75.4003042,65.7826704 C74.5920993,63.9361668 73.8726568,61.0204418 76.3235806,60.0861873 C78.989157,59.0680674 80.0550433,62.3789129 79.9707068,64.3166169 C79.9121875,65.6567502 79.4764896,66.910084 79.21512,68.2130525 C79.1334881,68.6194202 79.2667546,70.477171 78.7454907,69.6539219 C78.7565553,69.9480617 78.7491789,70.1602922 78.7280333,70.3099294 C79.3333879,69.823853 79.9345625,69.3319085 80.5322949,68.8360518 C80.5094281,68.7683239 80.4936918,68.6949723 80.4936918,68.6108625 C80.4936918,68.0318741 81.0921618,67.8399375 81.494666,68.0304071 C82.2841842,67.3616852 83.0668176,66.6836722 83.8369113,65.9907443 C85.4690574,64.5227349 87.1260373,63.0116925 88.7739197,61.4661748 C88.4503427,61.1602988 88.6062301,60.7681124 88.3055198,60.44561 C88.0053013,60.1238411 87.3910951,59.9226133 87.0340785,59.6196713 C86.1361277,58.8573039 85.4152099,57.7770798 84.908207,56.7244847 C84.0712342,54.9853189 83.0616542,51.375688 85.8108295,50.7101448 C88.6445873,50.0228405 89.8798843,53.5111968 89.9462717,55.6555078 C89.9593033,56.0709222 89.4493499,59.7815337 89.1383127,61.1224005 C92.1881983,58.2494639 95.1965303,55.2606318 97.9405421,52.2033383 C97.1601215,52.1556598 95.0303159,50.4565928 94.6056825,50.0010796 C93.5695476,48.8900478 91.9570718,46.4701794 93.9366452,45.3366531 C95.6966485,44.331492 97.7108909,46.0242018 98.3573073,47.6012606 C98.4635272,47.8609252 98.7605492,50.2419172 98.7374366,51.302092 C99.8748738,50.0042581 100.963627,48.6959106 101.981813,47.3794944 C102.660685,46.5044101 103.299479,45.6031638 103.901392,44.6801565 C103.772551,44.5987363 103.654529,44.4623024 103.545113,44.2945718 C100.731517,43.6701054 97.344285,39.0959013 100.759547,37.7428093 C102.385546,37.099516 104.028019,38.686844 104.740823,39.9536257 C104.886875,40.2128013 105.078169,41.4876516 105.235532,42.4935461 C106.989142,39.4232938 108.37836,36.1486351 109.482358,32.7744628 C109.238445,32.7008667 109.039037,32.503062 109.028465,32.1800706 C107.691373,31.3304149 106.637289,30.6259953 105.754337,29.0797441 C105.205781,28.1193275 104.241688,25.9400523 106.025296,25.5153467 C108.346396,24.9627649 109.59915,28.4943986 109.696027,30.2069133 C109.707337,30.405696 109.67611,30.9805279 109.640704,31.5069476 C109.720614,31.500346 109.800771,31.5057251 109.878715,31.523574 C110.515788,29.4318317 111.048362,27.3073256 111.495371,25.1747509 C110.268925,24.7123915 110.396536,18.2131977 111.276046,17.3324898 C113.242096,15.3603105 114.393795,18.4163815 114.211106,19.9905063 C113.99547,21.8465456 113.053753,23.4962224 111.95959,24.946872 C111.842306,25.1004213 111.873779,25.0943087 111.857305,24.8710754 C111.835913,24.9798802 111.794606,25.0588554 111.736578,25.1146026 C111.73707,26.0975137 111.786,27.1063423 111.69109,27.9711573 C111.419148,30.4477509 110.994761,32.9309462 110.440795,35.3608393 C110.306053,35.9518084 110.156558,36.537154 109.993049,37.1166314 C111.040494,36.3227229 112.43217,35.6412868 112.973596,35.4337018 C114.378796,34.8955458 116.529501,34.347365 117.838562,35.4505727 Z M44.1679086,117.846985 C44.192358,118.648633 44.3510296,119.387399 44.7072922,120.004519 C44.458557,119.307386 44.2824216,118.58575 44.1679086,117.846985 Z" id="Leaf-Top" fill="#C1DEE2" opacity="0.2" transform="translate(81.992695, 68.347488) rotate(-3.000000) translate(-81.992695, -68.347488) "></path>
                    <g id="Plant-Right" opacity="0.7" transform="translate(213.839041, 102.602740)">
                        <path d="M43.0993102,60.9721218 C35.7358032,61.3619051 27.1279382,66.5886553 27.1832819,74.6314362 C27.2236547,80.4752069 28.0056087,86.2242193 27.7342822,92.0920159 C27.5170404,96.7816274 26.4973133,101.368724 24.9132715,105.786195 C23.3901197,110.034061 19.7107638,113.900469 19.1136978,118.330214 C18.7330908,121.152772 19.5149705,124.98485 20.7217251,127.5798 C22.1892288,130.734827 21.5649187,130.538897 19.6149908,133.520584 C15.7940705,139.363783 12.4242394,145.29815 10.3066524,152.019826 C7.25633493,161.701452 5.7560026,172.801212 8.31449547,182.779144 C8.63977726,184.046226 9.35041498,188.641085 11.1565672,188.777642 C13.1738281,188.930533 11.9706842,186.386375 11.7753315,185.544224 C10.5296761,180.170693 9.43110081,175.474693 9.66229043,169.859946 C10.5546015,148.196395 24.3820256,132.531651 32.4444402,113.377521 C32.8941342,112.386189 33.8169646,110.041181 34.466919,108.489786 C35.493044,106.040477 36.3061757,101.499631 37.8443043,99.6017902 C40.7410379,96.0265039 38.4488845,102.842956 37.9486811,104.150827 C37.3163231,105.805167 36.614502,107.56653 35.9419899,109.028586 C32.8735164,115.800571 29.4320194,123.202453 26.2616086,130.183952 C43.3623447,132.233829 53.0138503,110.919738 56.1082198,97.248695 C58.657771,85.985254 60.4033725,60.0942248 43.0993102,60.9721218" id="Leaf-Me-Alone!" fill="#69A1AC" transform="translate(32.363014, 124.867295) scale(-1, 1) rotate(6.000000) translate(-32.363014, -124.867295) "></path>
                        <path d="M113.704951,42.1372909 C101.394743,43.1140101 93.4918597,51.2369901 89.8130407,62.5984458 C87.8302888,68.7212175 87.6030276,75.0110894 86.5011964,81.3032317 C84.8436866,90.7698249 81.2773642,97.9437843 74.3075672,104.688187 C72.1488126,106.77694 70.5579842,108.921545 69.4271216,111.215995 C67.1821802,113.506813 65.2280061,116.099137 63.7923141,119.268593 C61.958348,123.316234 61.4394122,128.172585 63.5568878,132.207966 C64.1261748,133.292755 65.5464439,135.470508 67.0184251,136.459941 C61.5074545,148.196918 58.4773052,161.051379 58.8188774,173.889492 C59.0252723,181.639221 59.4035874,189.392128 59.8449549,197.132322 C59.9638021,199.210631 60.6405959,202.642544 61.6571475,199.15705 C62.5875122,195.968977 61.420814,190.964142 61.3128536,187.633489 C60.7875672,171.408417 60.3384882,156.655915 67.0175179,141.497015 C67.7178997,139.9082 68.4604677,138.3321 69.2338816,136.768713 C69.2792431,136.742377 69.3214293,136.710592 69.3640691,136.679714 C69.3935541,136.702418 69.4203174,136.726938 69.4498024,136.749188 C69.4992464,136.661097 69.5668351,136.556205 69.6457641,136.439054 C69.8675819,136.210199 70.0612756,135.920952 70.2454434,135.598103 C70.8378648,134.777133 71.508308,133.812673 71.5119369,133.284582 C71.5119369,133.280495 71.5096688,133.274138 71.5096688,133.270052 C75.6443711,126.520654 80.3801134,120.143145 85.2174655,113.890508 C85.1811763,113.935915 90.4644321,106.742431 89.6474712,110.720597 C89.2537332,112.63771 85.3676121,116.288487 83.7981036,118.319119 C80.3261332,122.836729 76.2490401,128.560821 72.8609884,134.096017 C72.4051052,134.35802 71.7609716,135.644419 71.2951089,136.602521 C71.0379091,137.087929 70.7979466,137.577424 70.5620668,138.003802 C82.5669921,141.970163 91.9055674,133.980682 98.2734171,124.688 C98.2811286,124.677102 98.2879328,124.66575 98.2951906,124.654852 C100.233035,122.087048 102.218055,119.537407 104.697969,117.507683 C108.835393,114.120725 113.266305,113.52316 118.144483,111.856244 C131.447655,107.310935 137.103782,90.0700925 138.900098,77.2773867 C140.926851,62.8450095 131.013092,40.7142142 113.704951,42.1372909" id="Leaf-Me-Alone!" fill="#89C5CC"></path>
                        <path d="M100.911806,4.46710906 C86.5702425,15.7303186 77.9873694,32.9419773 70.8148568,49.2486098 C62.8040092,67.4614861 56.5667979,86.2220007 53.6602083,105.919887 C51.7508186,118.861507 49.5664432,131.846967 48.5040864,144.892295 C48.1264893,149.525296 47.9376307,154.19301 48.0270902,158.841277 C48.0345801,159.223258 48.2376368,169.602484 50.1292518,167.456399 C51.2050557,166.23597 49.9387042,156.692296 49.9604094,155.135429 C50.0843764,146.366789 51.0516279,137.651835 52.3242778,128.981094 C54.4195245,114.705005 55.9960504,100.430604 59.4449646,86.3983325 C59.9595725,84.3031862 60.444185,82.0947701 61.2412747,80.0864191 C62.0879483,77.951151 61.2696388,78.8201723 63.1387163,78.1904404 C64.9548797,77.5780747 67.0343353,77.9942314 68.9446653,77.1743326 C76.5222384,73.9216127 81.6226329,63.5478238 85.4055088,56.8025358 C89.7321289,49.0890285 92.8875833,40.6587625 95.6380589,32.288053 C97.6581023,26.1377643 99.349831,19.9804694 100.706583,13.6541161 C101.13411,11.6602585 101.43873,9.55520437 102.112908,7.63036836 C102.294577,7.11112567 102.962479,6.24128747 103.009571,5.76546069 C103.109175,4.75841114 102.587555,4.08460319 102.656323,3.23630137 C102.066346,3.63403135 101.484285,4.04457622 100.911806,4.46710906" id="Leaf-Me-Alone!" fill="#89C5CC" transform="translate(75.513699, 85.492295) rotate(-8.000000) translate(-75.513699, -85.492295) "></path>
                        <path d="M20.4965753,176.917808 C20.4965753,198.66402 38.1253633,216.292808 59.8715753,216.292808 C81.6177874,216.292808 99.2465753,198.66402 99.2465753,176.917808" id="Base" fill="#89C5CC"></path>
                        <path d="M63.0309032,177.043142 L60.9503425,177.043142 C61.094704,174.432784 61.2853804,171.826993 61.7217624,169.245696 C63.3908148,159.373443 68.6095549,144.873685 80.0554588,143.271313 C80.4777164,143.211595 82.0309885,143.201566 83.9125319,143.311885 C84.8042672,142.813623 85.803156,142.512295 86.8556216,142.443003 C96.6006902,141.724557 107.483584,149.586437 112.184264,157.76788 C115.973685,164.364273 115.335304,173.0262 112.994726,180.034241 C111.427379,184.726023 108.006639,191.415413 102.302075,191.480602 C95.1650146,191.562202 94.8208519,182.741178 94.6828237,177.584412 C94.4993914,170.728631 93.6330823,164.756319 88.2309099,160.083228 C86.9718559,158.994617 85.5956595,158.036841 84.3238924,156.963275 C82.3324713,155.282949 80.1317376,153.562508 79.8752048,150.782632 C79.5210533,146.947424 81.6859178,146.257241 84.9913318,146.969761 C85.5547959,147.091022 91.2307547,149.63795 90.3903259,147.624842 C90.1337931,147.009877 89.1966538,146.522556 88.0138786,146.157406 C84.9531924,145.824624 81.3031618,145.438504 80.2534204,145.669173 C68.9287453,148.153647 64.5195592,163.840482 63.3485891,173.8071 C63.2222141,174.882888 63.1200202,175.962186 63.0309031,177.043142 Z" id="Leaf-Me-Alone!" fill="#69A1AC"></path>
                    </g>
                    <g id="Plant-Left" opacity="0.5" transform="translate(0.479452, 33.022260)">
                        <path d="M96.1305459,60.111341 C98.397213,56.8793498 102.603499,48.6711532 105.79379,47.5162657 C107.848633,46.7724114 107.249514,54.4670143 107.274891,55.9342062 C107.373712,61.6105408 106.821101,67.250883 106.138671,72.8795596 C104.909205,83.0308549 100.888958,92.0713549 95.3748924,100.711152 C92.5374711,105.156853 89.2094009,109.65646 84.599868,112.430365 C82.4780956,113.707804 79.9250705,113.921689 77.829687,115.022307 C75.3893071,116.30357 76.7183332,115.267803 75.6185371,117.810802 C74.0912374,121.341416 73.6027199,125.896284 72.8960623,129.663575 C69.6514372,146.957485 61.7962606,238.377605 63.158047,255.968818 C63.2789954,257.528026 61.1048805,257.900886 60.9963474,255.997419 C60.4194755,245.904706 65.4112803,176.012819 67.9297305,153.156163 C70.4481807,130.299506 72.9967373,110.106793 75.5521702,102.199106 C78.6522912,92.6054001 84.2512872,81.0682283 88.9120604,72.1216826 C91.0769544,67.9653194 93.4367317,63.9521405 96.1305459,60.111341 Z" id="Leaf" fill="#69A1AC"></path>
                        <path d="M112.95454,172.213178 C118.852719,167.88297 125.237054,176.055364 119.89981,180.386238 C116.949255,182.780082 113.864622,181.928526 112.128058,179.933609 C111.000751,181.307738 109.945629,182.744522 108.931795,183.958106 C105.8429,187.656126 102.923427,191.44241 100.133257,195.316978 C94.3371112,203.366299 89.3699184,211.870234 84.1763649,220.218669 C79.0510067,228.458119 73.9666313,236.739771 69.3210755,245.187975 C65.3856304,252.345652 60.140182,260.766085 58.7928082,268.613014 C60.8371316,251.971037 68.5944125,235.975151 77.831981,221.303973 C86.994383,206.753318 97.5093038,190.862388 111.696101,179.37933 C110.252233,177.256024 110.212151,174.225168 112.95454,172.213178 Z" id="Leaf" fill="#C1DEE2"></path>
                        <path d="M1.0319468,131.626185 C4.33256644,132.271678 9.72574172,139.738194 12.4464365,142.582994 C15.6797995,145.963641 18.6132621,149.566929 21.3783959,153.342278 C27.3311626,161.468561 32.6548662,170.108487 37.1818252,179.118417 C44.5619536,193.806406 50.4743962,208.884135 54.7653087,224.878531 C57.3919318,234.66928 59.0925616,244.817009 60.1004464,254.893875 C60.2907897,256.794311 62.2832672,271.446316 59.4122291,271.841228 C56.830033,272.196821 57.6275769,260.71566 57.5030046,259.153939 C56.0948503,241.534808 51.8764192,224.391541 46.0086201,207.784627 C44.7305294,204.166969 43.5431379,199.735983 41.4991692,196.480439 C40.0272254,194.135523 41.4886135,194.953271 38.9018658,194.065833 C36.6807307,193.303371 34.1500633,193.489683 31.8755707,192.556365 C26.9344603,190.530049 22.9780483,186.596364 19.5099824,182.63954 C12.7703146,174.9498 7.42947079,166.630704 4.64551454,156.777436 C3.10116808,151.314122 1.68199252,145.819028 0.89443722,140.186776 C0.690710378,138.731004 -1.0939574,131.210428 1.0319468,131.626185 Z" id="Leaf" fill="#69A1AC"></path>
                        <path d="M14.0570708,7.39820212 C26.4898214,28.9597254 36.7065466,52.6444933 43.3035597,76.6335813 C47.3005622,91.1683099 50.0957861,106.083077 52.8730635,120.890106 C57.1731768,143.816943 61.2405906,166.742012 62.3975773,190.076098 C63.5615801,213.545412 65.8633171,240.614508 58.178361,263.219178 C62.0170351,240.269296 58.3623568,215.840933 57.7152616,192.748618 C57.4060303,181.724722 56.5099356,170.808602 55.3344268,159.849123 C54.1937126,149.21784 52.3301083,138.63718 50.5946728,128.089458 C49.74931,122.952527 48.8614886,117.823325 47.9575632,112.696929 C47.6877105,111.167462 47.5737189,106.629001 46.6035156,105.584155 C45.6270289,104.532429 40.6448645,104.103676 39.0806956,103.331983 C35.9309968,101.777698 32.96828,99.5699482 30.3461986,97.2371782 C25.3196343,92.7653171 20.9467764,86.9222873 17.495367,81.1623885 C9.50970094,67.8348887 6.31703556,51.5704861 6.47840577,36.1355457 C6.50941098,33.1387778 11.3288876,0.868381275 9.39330828,0.423991222 C9.50984657,0.287507284 9.62008288,0.146583513 9.72402647,0 C11.1894259,2.4535396 12.6274073,4.92370651 14.0570708,7.39820212 Z" id="Leaf" fill="#89C5CC"></path>
                        <path d="M148.247502,85.1618075 C148.439335,84.8851129 149.687863,82.9607845 149.059143,83.0837668 C150.33924,82.8333703 147.298452,85.2060963 150.488014,83.7502025 C148.973587,85.1804809 149.847612,87.0384349 149.867825,88.9634328 C149.900803,92.0887743 149.377887,95.1884872 148.789256,98.2467708 C147.859127,103.080984 146.473485,107.781252 144.462251,112.277651 C140.078704,122.076326 132.635216,131.509342 123.798413,137.635403 C119.435928,140.660085 115.160499,141.689878 110.185082,143.082327 C107.042398,143.962029 106.793178,145.587692 105.125034,148.637315 C101.652083,154.989026 98.2409813,161.31789 95.1781468,167.883909 C91.5209192,175.724426 87.9706334,183.573585 84.6216833,191.552125 C73.3396711,218.427411 64.1571597,246.270609 59.3347853,275.085616 C59.2167133,258.105021 63.1448968,240.61646 68.0999204,224.431128 C71.7093571,212.638862 76.4081656,201.271475 81.4199039,190.019164 C82.6343495,187.293159 84.4747316,183.786593 84.9904672,180.776966 C85.3515854,178.668272 84.2475404,176.640327 83.7420474,174.418981 C81.7713564,165.768648 81.9124052,156.077488 83.642965,147.380903 C85.5510398,137.791268 91.069104,133.340392 100.403622,131.982082 C103.817443,131.485226 108.156496,131.667327 111.286801,130.211738 C114.697221,128.626649 116.104071,123.416481 118.043361,120.071962 C123.252227,111.087879 129.441115,102.471594 136.547667,94.901759 C138.515404,92.8055752 140.631522,90.8717036 142.876486,89.0792418 C144.29216,87.948298 147.282729,86.554977 148.247502,85.1618075 Z" id="Leaf" fill="#89C5CC"></path>
                        <path d="M43.5775818,256.746575 L76.7049524,256.746575 C78.194419,256.746575 79.4018702,257.954027 79.4018702,259.443493 C79.4018702,259.575179 79.3922253,259.706688 79.3730127,259.836965 L76.8125678,277.198886 C76.0320247,282.49161 71.4902959,286.412671 66.1403265,286.412671 L54.1422077,286.412671 C48.7922383,286.412671 44.2505096,282.49161 43.4699665,277.198886 L40.9095215,259.836965 C40.6922132,258.363436 41.7105813,256.992741 43.1841103,256.775433 C43.314387,256.75622 43.445896,256.746575 43.5775818,256.746575 Z" id="Base" fill="#C1DEE2"></path>
                    </g>
                    <g id="Maceta" transform="translate(53.818493, 303.073630)" fill="#F2F2F2">
                        <path d="M8.31606555,26.136206 C8.31606555,37.6182964 9.22216693,46.9263699 21.3841685,46.9263699 C33.5461702,46.9263699 34.4522715,37.6182964 34.4522715,26.136206" id="Base"></path>
                        <path d="M25.0022712,18.9723672 C24.5564716,19.7431671 24.1589696,20.5293829 23.8078587,21.3274017 C23.7954666,19.6839118 23.8863423,18.0283782 24.134503,16.3502024 C24.5586958,13.4756007 25.2065827,10.6159332 25.8153867,7.7608423 C26.2529249,5.70906941 26.2252809,2.02368255 27.8858287,0.38862334 C28.3411608,0.0352597769 28.4507836,0.728497905 28.4507836,1.02935073 C28.4565031,1.09294172 28.4495126,-0.198629807 28.007526,0.0263474035 C25.3803906,1.38319604 24.5291453,5.64957329 23.688068,7.78565242 C22.4609275,10.9035379 21.4168096,14.0907953 20.9868974,17.3346584 C20.8782278,18.154115 20.8191268,18.9733307 20.8054636,19.7911012 C20.7161766,19.5723867 20.6322913,19.3519861 20.5395091,19.1339943 C19.0232185,15.5777164 16.9769253,12.1076718 14.4247783,8.9074071 C13.7965917,8.11998686 5.89770932,0.350324222 5.27937289,1.53952389 C5.34038039,1.71223123 5.46811484,1.85555183 5.66289399,1.96948569 C5.6743329,1.98249294 5.67465065,1.97526669 5.66797795,1.95599669 C6.13188914,2.70535868 7.45085856,3.86276286 7.86170594,4.51938799 C8.89565595,6.1717902 9.6992391,7.92535989 10.5158499,9.64544797 C12.2412182,13.280492 13.8417118,16.9521489 15.3932723,20.6315139 C15.7545511,21.488547 16.1310818,22.3407626 16.5152384,23.1903286 C12.5551526,17.4784607 7.27228453,12.2929046 -1.42108547e-14,9.32436165 C2.48383135,10.5879917 4.11228673,12.9654275 5.7896752,14.7857196 C7.81277284,16.9812948 9.94358684,19.1178557 11.9704974,21.3110222 C14.3612288,23.8982601 17.1742465,26.6227967 19.4737843,29.4858365 C21.7011935,34.1621829 23.8656888,38.8435877 25.2018165,43.7593639 C24.6543378,42.0609545 25.1589206,39.7138689 25.0651852,37.9313943 C24.9908323,36.5126408 24.8249681,35.1054492 24.5977787,33.7009074 C24.8786674,34.3344085 25.1207909,34.9683914 25.2304138,35.5580533 C25.1303234,34.5690207 25.0149811,33.5862509 24.8910596,32.6085394 C25.2091247,31.6932146 25.5214704,30.839072 25.7324547,30.1354762 C26.813749,26.5262059 28.1012615,22.9790813 29.8545916,19.521803 C31.4770097,16.3237062 33.3380562,13.1663172 35.3659201,10.1052783 C36.311854,8.67809414 37.2708157,7.25620926 38.2237401,5.83191563 C38.8474782,4.89948867 39.4413481,3.40654569 40.3097517,2.51314047 C34.6964263,7.64522232 28.5635839,12.8143989 25.0022712,18.9723672" id="Fill-27"></path>
                    </g>
                    <g id="Top-Leaves" transform="translate(220.851027, 0.000000)" fill="#F2F2F2">
                        <path d="M114.058042,73.8489556 C114.186415,68.246918 111.891338,63.0839385 109.350841,58.2111474 C104.405233,48.7250087 101.93162,43.0496149 102.730987,31.7835104 C103.201329,25.1577227 103.763367,18.1570635 100.381432,12.1402399 C97.919146,7.7588272 92.754009,3.07158405 87.2997624,3.8639385 C78.6658498,5.83053097 73.8459183,14.057209 71.9979902,22.2256337 C69.7077676,32.3498632 72.3302505,39.9033906 79.9754731,46.3905567 C84.2835296,50.0448803 86.7134525,53.8092382 87.8882299,59.3745977 C88.8283755,63.8250515 88.5613806,68.9286988 90.169283,73.2087073 C92.5733155,79.6068751 96.913735,83.5141697 103.442434,84.7024317 C101.086406,72.0204454 97.7767487,58.9166611 92.4697539,47.1591782 C91.9934782,45.9957279 88.5700107,41.0226114 89.9945227,39.7663871 C91.5635895,38.3834077 94.15317,46.3350001 94.1326734,46.2853769 C95.6370142,49.8188786 96.9061837,53.4667296 98.1262693,57.1296834 C98.1197967,57.1307621 98.1127847,57.1302227 98.1057727,57.1313015 C99.3652333,60.8924231 100.592331,64.6923803 101.764411,68.5171491 C102.219651,70.1218152 102.645764,71.7356508 103.024411,73.3710618 C103.579976,75.7707793 103.645781,82.0907364 105.221321,83.9672519 C105.558435,84.3685532 105.901483,84.6430995 106.247228,84.8227142 C106.878307,87.4689299 107.467314,90.1210789 107.983504,92.7786217 C109.331423,99.7194094 110.110833,106.838733 109.237031,113.896567 C108.981903,115.956473 106.361038,123.120565 107.229446,124.949615 C108.816851,128.294872 109.709531,123.136207 110.048264,121.601661 C112.849283,108.892706 111.83686,96.9610019 108.780713,84.5185019 C111.590362,82.5831936 114.005721,76.1186817 114.058042,73.8489556" id="Leaf" transform="translate(92.630906, 64.916129) rotate(-18.000000) translate(-92.630906, -64.916129) "></path>
                        <path d="M62.4921868,54.2939447 C58.3920566,54.8936969 54.5217191,60.0759404 52.6120314,63.5311828 C50.2489357,67.8066655 48.6008532,72.6850014 47.3592319,77.381613 C45.3136453,85.1182302 45.0372147,93.7051682 45.0118881,101.628782 C45.0087995,102.583609 44.8095841,114.246836 46.1732056,114.055498 C47.5241637,113.866021 46.6686186,101.759648 46.7838238,99.2527209 C47.0290595,93.9027081 46.6624414,88.6265014 47.9173438,83.3444026 C49.2164132,77.8749976 51.5983495,72.720664 54.6082002,67.9964526 C54.9945853,67.3901881 55.8121405,65.1360006 56.7408856,65.6566748 C57.6492459,66.165875 55.1329551,69.1686673 54.7756029,69.7522938 C53.3001737,72.1624665 52.0190182,74.7146695 50.9580806,77.3366471 C48.970251,82.2490951 47.9374197,87.3897839 47.9726299,92.6830466 C51.0930528,93.1621661 53.8116476,91.3349997 54.8583776,88.2903425 C55.7627227,85.6587515 55.851057,82.5976585 56.8783287,80.1093381 C57.5859294,78.3956718 58.7114189,76.9403269 60.0877037,75.7098116 C63.718365,72.4642033 67.5087076,71.652336 68.5909566,66.2657303 C69.4393978,62.0429663 68.3858729,53.4358711 62.4921868,54.2939447" id="Leaf" transform="translate(56.924291, 84.146035) scale(-1, 1) rotate(58.000000) translate(-56.924291, -84.146035) "></path>
                        <path d="M1.26850319,43.1506849 L1.07469589e-13,43.1506849 C0.0888674634,41.5408408 0.204616289,39.9336157 0.476638905,38.3418024 C1.49634554,32.3750561 4.68473183,23.6114664 11.6776003,22.6429998 C11.9355783,22.6069062 12.884549,22.6008446 14.0340768,22.6675214 C14.578882,22.3663738 15.1891526,22.1842525 15.8321558,22.1423728 C21.7859,21.7081471 28.4347977,26.4598328 31.3066755,31.4046608 C33.6218201,35.3914921 33.2318018,40.6267223 31.8018269,44.8623517 C30.8442569,47.6980441 28.7543576,51.7410822 25.2691579,51.7804821 C20.9087747,51.8298009 20.6985088,46.4984129 20.6141805,43.3816861 C20.5021126,39.2380817 19.9728416,35.6284427 16.6723874,32.8040469 C15.9031691,32.1460957 15.0623827,31.5672199 14.2853974,30.9183611 C13.0687398,29.9027799 11.7242028,28.8629526 11.5674742,27.1828076 C11.3511055,24.8648248 12.6737283,24.4476816 14.693169,24.8783255 C15.0374171,24.9516148 18.5051409,26.490967 17.9916814,25.2742534 C17.8349529,24.9025716 17.2624081,24.6080365 16.5397923,24.3873418 C14.6698678,24.1862093 12.4398837,23.9528406 11.7985448,24.0922557 C4.87974101,25.5938611 2.18595127,35.0749151 1.47054773,41.0986948 C1.38955206,41.780788 1.32481458,42.4652151 1.26850314,43.1506849 Z" id="Leaf-Me-Alone!" transform="translate(16.479474, 36.947774) scale(-1, 1) translate(-16.479474, -36.947774) "></path>
                    </g>
                </g>
                <g id="A-Human/Standing" transform="translate(95.341668, 82.013823)">
                    <g id="Head/Front/Wavy" transform="translate(44.739836, 0.000000)">
                        <g id="Head" stroke-width="1" transform="translate(29.126712, 16.720890)" fill="#D4A181">
                            <path d="M4.45653471,18.6034074 C1.97110406,15.6860161 0.288912603,12.1107128 0.570007783,8.10448283 C1.37992127,-3.4385813 17.4482657,-0.899254264 20.5738913,4.92669327 C23.699517,10.7526408 23.3281114,25.5306399 19.2885187,26.5718992 C17.6775347,26.987152 14.2456599,25.969949 10.7528119,23.8646514 L12.9452055,39.375 L0,39.375 L4.45653471,18.6034074 Z"></path>
                        </g>
                        <path d="M50.9227145,24.2634321 C50.794486,23.5082682 50.4811034,22.669667 50.2282408,21.9552111 C49.902236,21.0341832 49.4088821,20.2037603 48.8659588,19.421121 C47.8438085,17.9476418 46.6176127,16.6170538 45.2637734,15.5127025 C42.7908183,13.4955017 39.6428662,12.3319724 36.5472421,12.70983 C34.9842582,12.9005966 33.4669986,13.4967882 32.1756018,14.4891238 C31.0088392,15.3857086 29.8865469,16.7055453 28.3757238,16.8003772 C26.7318239,16.9034794 25.2249296,15.4525137 23.9065329,14.5563884 C22.4200348,13.5461339 20.8386609,12.8099916 19.1013063,12.5238417 C16.1908361,12.0446279 13.4566593,13.0279581 11.4508105,15.415849 C9.31631526,17.9569228 7.76469979,21.6833962 9.16643666,25.0502984 C9.4269897,25.676171 9.76218947,26.2038116 10.2432555,26.641123 C10.6844486,27.0421372 11.3582753,27.4687891 11.53716,28.1095481 C11.7271623,28.7906474 11.1595796,29.6693133 10.9394846,30.2838832 C10.6241795,31.164387 10.3652983,32.088631 10.4573319,33.0456803 C10.608548,34.6173915 11.5962588,36.1177948 12.6392233,37.1508383 C13.7005777,38.2020764 15.0068537,38.8048842 16.4020705,39.0827639 C17.3336918,39.2682927 18.2857929,39.3706597 19.2326277,39.301006 C19.7026597,39.2664549 20.1174381,39.1358771 20.5728417,39.0320398 C21.0157066,38.9310511 21.2632194,39.0486722 21.6389608,39.2915412 C23.3844237,40.419968 25.2612081,40.8565443 27.2766698,40.6887505 C28.9776623,40.5470539 30.9382048,40.1348289 32.3258148,38.9693698 C33.8668142,37.6749871 33.8361363,35.8900878 33.4735187,33.9830649 C33.8577028,34.1734639 34.9205619,34.2913606 34.2854378,33.5324293 C34.033829,33.2318524 33.5584471,33.1095449 33.2356188,32.9327458 C32.8597103,32.726909 32.4780339,32.4608832 32.1861343,32.1251119 C31.0075017,30.7693457 32.1979206,28.0102135 33.6793197,27.5555346 C35.8802698,26.8800407 36.3730385,29.9926793 37.9442143,30.797832 C38.8475818,31.2607811 39.7925776,30.6280167 40.4694137,29.981928 C41.3760413,29.1164026 41.9939457,27.9697812 42.5274232,26.8029438 C42.9668609,25.842035 43.3757879,24.8676183 43.8236683,23.9114879 C44.0328129,23.4649874 44.7568778,22.2027666 44.3932571,21.6979151 C45.9696991,21.3835545 47.7255273,22.0386485 49.0832118,22.8977415 C49.6443579,23.2529019 50.0721764,23.6444514 50.3715157,24.2714266 C50.43563,24.4057719 50.5752269,24.8051321 50.7505171,24.8214887 C51.0768562,24.8519967 50.954897,24.4531879 50.9227145,24.2634321" id="hair" fill="#191847"></path>
                    </g>
                    <g id="Bottom/Skinny-Jeans-1" transform="translate(0.000000, 98.200761)">
                        <path d="M53.04518,55.6226779 C65.9762583,59.2430757 77.1328017,61.0532746 86.5148104,61.0532746 C95.8968192,61.0532746 104.611263,58.2656004 112.658141,52.6902518 C100.003905,48.974243 89.5825774,47.1162386 81.3941592,47.1162386 C73.205741,47.1162386 63.7560813,49.9517184 53.04518,55.6226779 Z" id="Skirt-Shadow" fill="#F36749"></path>
                        <path d="M97.7090176,66.2716619 C97.5843312,66.0840325 97.4790331,65.8799294 97.3955131,65.6588375 C95.6670491,61.0832954 67.98131,11.7223294 65.2231342,2.69782312 L96.393371,2.69782312 C98.490451,9.55928265 107.929204,52.6182124 109.257547,61.2091035 C113.448714,74.7603039 122.077909,118.647695 123.179496,121.688079 C124.338348,124.886512 117.817875,128.218452 116.080323,124.286375 C113.315583,118.029778 106.728037,100.717885 103.794875,90.1473644 C101.045042,80.2375238 98.8059441,71.3220806 97.7090176,66.2716619 Z" id="Leg" fill="#D4A181"></path>
                        <path d="M72.2074333,72.2982039 C59.5499685,75.5004544 13.2516314,81.2895566 10.0744368,82.1975626 C6.80609473,83.1316175 3.94038413,76.3882027 7.98023143,74.9274648 C14.4083106,72.6031841 32.1205781,67.2328341 42.85959,65.0413004 C51.4974008,63.2785634 59.3795092,61.8401722 64.6713492,60.9978663 C64.2230368,46.1184446 62.1736862,10.4101146 63.5169226,2.69782312 L91.0967742,2.69782312 C89.8087009,10.0933921 78.9200529,64.0558786 76.8962423,69.457371 C76.253984,71.38574 74.3376192,72.2379367 72.2074333,72.2982039 Z" id="Leg" fill="#D4A181"></path>
                        <g id="Accessories/Shoe/Flat-Sneaker" transform="translate(13.745371, 87.409469) rotate(80.000000) translate(-13.745371, -87.409469) translate(-2.695171, 76.618177)" fill="#E4E4E4">
                            <path d="M1.44453932,13.7013829 C0.841102148,15.3122434 0.539383562,16.5175395 0.539383562,17.3172711 C0.539383562,18.289934 0.701422045,19.7092911 1.02549901,21.5753425 C2.15385628,21.5753425 12.2945931,21.5753425 31.4477094,21.5753425 C32.2382748,18.9617633 31.7819146,17.5507761 30.0786288,17.3423806 C28.375343,17.1339852 26.9603945,16.9458209 25.8337834,16.7778875 L11.6938317,10.4742265 C11.4217509,10.3529316 11.1028568,10.4751676 10.9815618,10.7472484 C10.9794868,10.7519029 10.9774778,10.7565867 10.9755356,10.7612982 L10.0666303,12.9660769 C8.48983319,13.701773 7.20852179,14.069621 6.22269616,14.069621 C5.42174226,14.069621 4.31562043,13.7461439 2.90433068,13.0991897 L2.9043489,13.09915 C2.36273472,12.8508668 1.72239635,13.0886585 1.47411313,13.6302727 C1.46341199,13.6536166 1.45354777,13.6773351 1.44453932,13.7013829 Z" id="shoe"></path>
                        </g>
                        <g id="Accessories/Shoe/Flat-Sneaker" transform="translate(112.658141, 110.071183)" fill="#E4E4E4">
                            <path d="M1.44453932,13.7013829 C0.841102148,15.3122434 0.539383562,16.5175395 0.539383562,17.3172711 C0.539383562,18.289934 0.701422045,19.7092911 1.02549901,21.5753425 C2.15385628,21.5753425 12.2945931,21.5753425 31.4477094,21.5753425 C32.2382748,18.9617633 31.7819146,17.5507761 30.0786288,17.3423806 C28.375343,17.1339852 26.9603945,16.9458209 25.8337834,16.7778875 L11.6938317,10.4742265 C11.4217509,10.3529316 11.1028568,10.4751676 10.9815618,10.7472484 C10.9794868,10.7519029 10.9774778,10.7565867 10.9755356,10.7612982 L10.0666303,12.9660769 C8.48983319,13.701773 7.20852179,14.069621 6.22269616,14.069621 C5.42174226,14.069621 4.31562043,13.7461439 2.90433068,13.0991897 L2.9043489,13.09915 C2.36273472,12.8508668 1.72239635,13.0886585 1.47411313,13.6302727 C1.46341199,13.6536166 1.45354777,13.6773351 1.44453932,13.7013829 Z" id="shoe"></path>
                        </g>
                        <path d="M63.6060317,2.69782312 C75.7595485,-0.782767479 87.2589441,-0.782767479 98.1042184,2.69782312 C101.877458,19.9301511 111.045857,26.7696755 112.658141,53.189701 C94.3309792,62.3049969 71.6915442,46.6887735 52.8253483,55.5780218 C47.4350067,43.1441848 54.981485,13.2001885 63.6060317,2.69782312 Z" id="Skirt" fill="#F36749"></path>
                    </g>
                    <g id="Body/Long-Sleeve-1" transform="translate(9.163581, 44.244299)">
                        <path d="M109.797473,48.6925987 L126.069093,62.5009482 C130.633391,64.0831067 134.410839,65.9184959 137.401437,68.0071155 C138.09175,68.7312153 138.887696,70.1554967 135.846411,69.7060972 C132.805127,69.2566976 129.58596,68.9209092 129.091124,69.9353474 C128.596287,70.9497855 130.359442,72.3277768 129.408183,73.6766692 C128.77401,74.5759308 126.252341,72.0332553 121.843174,66.0486429 L105.350346,57.8094159 L109.797473,48.6925987 Z M32.5440841,38.0081386 L41.894107,40.387354 C29.3779365,61.4499378 22.6847285,72.5812737 21.8144832,73.7813619 C19.8564312,76.4815602 21.2785739,81.693092 21.7617413,84.4235799 C17.7967399,85.1310562 19.6506319,79.3089247 14.6289584,80.2814048 C10.0454076,81.1690396 6.05789011,83.8549247 2.04270213,79.7398297 C1.54905836,79.233903 1.24768214,77.7176535 3.05640021,77.0429695 C7.56257654,75.3620856 14.259621,72.1233493 15.3879273,70.7887339 C16.9265745,68.9687473 22.6452934,58.0418822 32.5440841,38.0081386 Z" id="Skin" fill="#D4A181" transform="translate(69.851417, 61.245763) rotate(-4.000000) translate(-69.851417, -61.245763) "></path>
                        <path d="M112.830877,47.3078948 C115.043122,47.1489177 117.449503,47.5157615 120.029473,48.3859064 C121.298999,48.8140785 121.981392,50.1913472 121.553641,51.4621221 C121.305207,52.2001778 120.736939,52.7399875 120.055437,52.9789861 C120.549098,53.3394879 121.047134,53.6979996 121.549595,54.0544855 L117.211892,62.9184276 C98.9586146,53.8083674 81.8022801,46.9398779 73.9845183,31.8999011 C71.3606753,26.8520961 72.2487715,9.70582871 71.9983269,3.46808866 L77.7633125,1.10149111 C85.7994783,17.7291504 96.675251,33.6813713 112.830877,47.3078948 Z" id="Back-Arm" fill="#B41A44"></path>
                        <path d="M51.74728,61.4616688 C68.6936119,63.3251486 82.032234,63.3251486 91.7631464,61.4616688 C92.9687412,61.2307961 92.9157977,56.0286069 92.3567046,54.60784 C83.6501699,32.4828016 77.9229419,16.2862361 77.9229419,0.918682874 C76.3254023,1.75397888 73.5295576,1.87915843 69.5354075,1.29422151 C58.8011898,17.1309793 53.8670522,35.3018468 51.74728,61.4616688 Z" id="Shirt" fill="#F2F2F2"></path>
                        <path d="M48.5984228,64.0778947 C48.022844,63.5362874 47.7227531,62.724467 47.8700994,61.8880025 L48.1516846,60.289482 C48.3417768,59.2103547 49.2181708,58.4244816 50.2529665,58.3016347 C50.4338691,57.492166 50.5898428,56.6881225 50.7186611,55.889966 C51.8068604,49.1474994 49.9476146,42.536292 50.0349314,36.044053 C41.3672059,43.4465784 33.5915745,56.2286729 26.7080373,74.3903365 L16.527414,71.3916716 C16.9158624,69.9471221 17.3182266,68.5203148 17.7345066,67.1112497 C16.559456,66.443046 15.1864055,63.3804858 16.1745848,62.8679984 C17.1951556,62.3387122 18.27633,61.9661829 19.4149231,61.7469198 C28.7495967,33.6036134 44.0146296,13.0213068 65.2100217,-6.35935749e-13 L68.1216761,-6.32383035e-13 L71.3403229,0 C69.5354075,23.892321 94.4655447,76.0542777 85.8091687,120.602466 C69.8091596,124.179066 46.9670768,113.051072 24.7324038,121.941605 C25.559751,104.001693 42.132381,82.9264003 48.5984248,64.0778897 Z" id="Coat-Front" fill="#F0225B"></path>
                        <polygon id="Shade-Lapel" fill="#B41A44" points="67.4362785 0.539564624 64.6553175 9.09999755 70.2555553 15.5173625 65.1943517 20.5603833 77.4388618 41.546476 62.4652125 20.6023104 67.4362785 15.5173625 62.4652125 9.84622251"></polygon>
                        <path d="M73.8476809,49.6399454 C72.6568795,49.6399454 71.6915442,48.6736601 71.6915442,47.4816869 C71.6915442,46.2897136 72.6568795,45.3234284 73.8476809,45.3234284 C75.0384823,45.3234284 76.0038175,46.2897136 76.0038175,47.4816869 C76.0038175,48.6736601 75.0384823,49.6399454 73.8476809,49.6399454 Z M76.5428517,62.0499317 C75.3520503,62.0499317 74.386715,61.0836465 74.386715,59.8916732 C74.386715,58.6997 75.3520503,57.7334147 76.5428517,57.7334147 C77.7336531,57.7334147 78.6989884,58.6997 78.6989884,59.8916732 C78.6989884,61.0836465 77.7336531,62.0499317 76.5428517,62.0499317 Z M77.0818859,74.4599181 C75.8910845,74.4599181 74.9257492,73.4936328 74.9257492,72.3016596 C74.9257492,71.1096863 75.8910845,70.1434011 77.0818859,70.1434011 C78.2726873,70.1434011 79.2380225,71.1096863 79.2380225,72.3016596 C79.2380225,73.4936328 78.2726873,74.4599181 77.0818859,74.4599181 Z" id="Buttons" fill="#B41A44"></path>
                    </g>
                </g>
            </g>
        </g>
    </g>
</svg>