<?xml version="1.0" encoding="UTF-8"?>
<svg width="309px" height="316px" viewBox="0 0 309 316" version="1.1" xmlns="http://www.w3.org/2000/svg" xmlns:xlink="http://www.w3.org/1999/xlink">
    <!-- Generator: Sketch 52.3 (67297) - http://www.bohemiancoding.com/sketch -->
    <title>Group 3</title>
    <desc>Created with Sketch.</desc>
    <g id="High---UserFlow----SANDRA" stroke="none" stroke-width="1" fill="none" fill-rule="evenodd">
        <g id="On-3" transform="translate(-34.000000, -218.000000)">
            <g id="Group-3" transform="translate(33.000000, 218.000000)">
                <g id="Scene/Home">
                    <g id="Clock" transform="translate(226.613396, 44.887255)">
                        <circle id="Clock-Frame" fill="#F2F2F2" cx="22.0833333" cy="22.0833333" r="22.0833333"></circle>
                        <circle id="Time" fill-opacity="0.1" fill="#000000" cx="22.0833333" cy="4.58333333" r="1.25"></circle>
                        <circle id="Time" fill-opacity="0.1" fill="#000000" cx="4.58333333" cy="22.0833333" r="1.25"></circle>
                        <circle id="Time" fill-opacity="0.1" fill="#000000" cx="39.5833333" cy="22.0833333" r="1.25"></circle>
                        <circle id="Time" fill-opacity="0.1" fill="#000000" cx="22.0833333" cy="39.5833333" r="1.25"></circle>
                        <polygon id="Hand" fill="#AFB9C5" points="22.0833333 7.08333333 22.9166667 21.6666667 21.25 21.6666667"></polygon>
                        <polygon id="Hand" fill="#AFB9C5" transform="translate(25.922168, 25.922168) rotate(135.000000) translate(-25.922168, -25.922168) " points="25.9221681 20.9221681 26.7555014 30.9221681 25.0888348 30.9221681"></polygon>
                        <circle id="Time" fill="#C5CFD6" cx="22.0833333" cy="22.0833333" r="1.66666667"></circle>
                    </g>
                    <g id="Background-Shape-2" opacity="0.345889137" transform="translate(0.547032, 117.411765)">
                        <path d="M0.547631356,84.2823328 C3.7107775,46.8746299 173.427035,-25.3261776 204.934266,10.1056593 C236.441498,45.5374962 206.151202,112.033785 140.123683,129.061793 C74.0961633,146.0898 -2.61551479,121.690036 0.547631356,84.2823328 Z" id="Background-Shape" fill="#F2F2F2" transform="translate(108.952968, 67.588235) scale(-1, 1) translate(-108.952968, -67.588235) "></path>
                        <path d="M102.519499,108.736906 C105.365608,76.9364755 258.071492,15.5582943 286.420807,45.6790337 C314.770122,75.799773 307.594358,139.155258 248.184664,153.630832 C188.774971,168.106406 99.6733893,140.537337 102.519499,108.736906 Z" id="Background-Shape" fill="#DDE3E9"></path>
                    </g>
                    <g id="Hanging-Lamp" transform="translate(17.267726, 0.000000)">
                        <g id="Light" transform="translate(0.000000, 78.025710)">
                            <ellipse id="Hanging-Lamp-Light" fill="#F2F2F2" cx="20.625" cy="14.375" rx="17.7083333" ry="9.375"></ellipse>
                            <path d="M41.25,20.8333333 C41.25,9.32740105 32.015873,0 20.625,0 C9.23412704,0 -7.10542736e-15,9.32740105 -7.10542736e-15,20.8333333" id="Hanging-Lamp" fill="#DDE3E9"></path>
                        </g>
                        <rect id="Wire" fill="#DDE3E9" x="19.5833333" y="0" width="2.08333333" height="81.0784314"></rect>
                    </g>
                    <g id="Hanging-Lamp" opacity="0.7" transform="translate(54.118077, 0.000000)">
                        <g id="Light" transform="translate(0.000000, 57.995098)">
                            <ellipse id="Hanging-Lamp-Light" fill="#F2F2F2" cx="15.4166667" cy="11.6008772" rx="13.236532" ry="7.56578947"></ellipse>
                            <path d="M30.8333333,16.8128655 C30.8333333,7.52737628 23.9310566,0 15.4166667,0 C6.90227677,0 -7.10542736e-15,7.52737628 -7.10542736e-15,16.8128655" id="Hanging-Lamp" fill="#DDE3E9"></path>
                        </g>
                        <rect id="Wire" fill="#DDE3E9" x="14.5833333" y="0" width="2.08333333" height="67.5784314"></rect>
                    </g>
                    <g id="Lamp" transform="translate(211.278970, 97.647541)">
                        <path d="M25,17.0369857 L40.849077,6.27208624 C41.979607,5.50421555 43.4643122,5.50421555 44.5948422,6.27208624 L83.5281952,32.7161266 C85.3552424,33.9570808 86.4490967,36.0223522 86.4490967,38.2309872 L86.4490967,200.685792" id="Body" stroke="#CBCBCB" stroke-width="3.33333333"></path>
                        <rect id="Lamp-Base" fill="#AFB9C5" x="73.9490967" y="200.269126" width="24.5833333" height="2.91666667" rx="1.25"></rect>
                        <g id="Lamp-Top" transform="translate(20.034692, 20.451359) rotate(45.000000) translate(-20.034692, -20.451359) translate(6.076359, 6.076359)">
                            <path d="M13.76263,0.576625684 L13.76263,0.576625684 C21.3565453,0.576625684 27.51263,6.73271037 27.51263,14.3266257 L27.51263,25.9932924 L0.0126299667,25.9932924 L0.0126299667,14.3266257 C0.0126299667,6.73271037 6.16871466,0.576625684 13.76263,0.576625684 Z" id="Lamp" fill="#C5CFD6"></path>
                            <ellipse id="Lamp" fill="#F2F2F2" cx="13.8370537" cy="25.6022501" rx="13.75" ry="2.70833333"></ellipse>
                        </g>
                    </g>
                    <g id="Big-Leaf-Plant" transform="translate(1.083208, 201.250000)">
                        <g id="Big-Ass-Leaf" transform="translate(9.166667, 0.000000)">
                            <path d="M10.5241475,0.488788781 C11.7177211,0.342967265 12.9916267,0.394441664 14.1016152,0.865569213 C16.4618923,1.86750347 17.1328049,4.65589317 17.1004382,6.92229927 C17.0655444,9.36168381 16.5475213,12.0261084 18.4021317,13.9915796 C19.2546593,14.8951897 20.3151372,15.5867147 21.1522622,16.5069168 C22.0467438,17.4902768 22.7485955,18.6154362 23.2682643,19.8236787 C24.2224378,22.0429913 24.6907628,24.652874 23.8182233,26.9809474 C23.0499677,29.0306795 21.1171223,30.8807383 21.5347633,33.211482 C21.9703996,35.6428818 24.4217541,37.5017074 25.9543517,39.3127185 C27.688819,41.3622159 29.2857924,43.9816614 29.5481391,46.669362 C29.7997034,49.2451348 28.6785031,51.8501587 26.9578204,53.7972323 C23.5198921,57.6878076 18.3521525,59.5950962 13.141485,59.5832788 C10.9291775,59.5781536 8.42439614,59.4782369 6.51523431,58.2893808 C5.92518018,57.9219143 5.61388871,57.50965 5.26311807,56.936544 C4.94861455,56.4226347 4.53315781,56.0883584 4.05227498,55.7247161 C2.99577702,54.9259976 2.23279807,53.8495181 1.74588407,52.6445122 C-0.144908245,47.9641763 1.36631948,42.1740269 4.01300075,38.0178523 C4.64014736,37.0331695 5.15360222,36.0856096 4.84893185,34.9119257 C4.53099908,33.6867419 3.74958937,32.5816929 3.05844134,31.5285433 C2.37547724,30.4877031 1.59578277,29.4947557 1.06198232,28.3693792 C0.502913706,27.1904672 0.345484464,25.9559482 0.444265624,24.6657271 C0.629918045,22.2421311 1.6761385,20.0056169 3.15735897,18.0565105 C4.58404837,16.1790947 6.25921988,14.3826985 6.26297344,11.9227182 C6.26709535,9.31547411 4.52405477,6.99616972 5.26661581,4.34540797 C5.57408468,3.2477756 6.19164761,2.12159815 7.18689578,1.46355126 C8.14135741,0.832435902 9.40160566,0.625932181 10.5241475,0.488788781 Z" id="leaf" fill="#DDE3E9"></path>
                            <path d="M9.7442332,4.65684623 C9.76661573,4.30668344 10.1819787,4.09666881 10.5089616,4.18804212 C10.939361,4.30837383 10.9310836,4.71052982 10.9197205,5.06881932 C10.8848877,6.17011599 11.0442901,7.24039656 11.3090233,8.30896663 C11.8592427,10.5306427 12.8761221,12.5775522 13.6817456,14.7116483 C14.486667,16.8439578 14.8645141,19.0455028 14.3923134,21.3017907 C13.9471691,23.4291555 13.2478337,25.5013815 12.7922714,27.6314315 C12.3907302,29.5087971 11.9634711,31.4885843 12.574967,33.3611693 C13.1633765,35.1636685 14.4642688,36.6316069 15.401024,38.2605391 C17.3402155,41.6325323 18.2005279,45.3733559 18.3155986,49.2229932 C18.3689264,51.0106169 18.3209033,52.8146787 17.9061951,54.5679485 C17.6675028,55.5774858 17.3467406,56.9418306 16.4816349,57.638818 C16.0827125,57.9602355 15.4004284,58.0713768 15.0646748,57.595394 C14.7494511,57.14896 15.025988,56.4578353 15.1260607,55.9820067 C15.5594481,53.9222216 15.6466358,51.8172031 15.5428767,49.7257067 C15.4424546,47.6998178 15.2030954,45.6773121 14.5654924,43.742504 C13.9737112,41.9469742 13.0746862,40.3342395 12.016588,38.7635326 C10.9383934,37.1628724 9.81751541,35.5587971 9.37200922,33.6621796 C8.91936184,31.7358893 9.28709243,29.775827 9.77879867,27.8863247 C10.29879,25.8877642 10.9798973,23.9465365 11.6840409,22.002126 C12.3702529,20.1074429 12.6134815,18.3147357 12.2346637,16.3317297 C11.4863273,12.4139707 9.48325091,8.73671527 9.7442332,4.65684623 Z" id="middle-thing" fill="#C5CFD6"></path>
                        </g>
                        <g id="Big-Ass-Leaf" transform="translate(13.333333, 4.583333)">
                            <path d="M37.8718051,0.65928062 C39.3488256,1.10775202 40.8157846,1.8313412 41.8686722,2.96594986 C44.1074616,5.37873252 43.4205397,9.02537882 42.1846409,11.6888521 C40.8543482,14.5555795 38.8384446,17.4371105 39.9748477,20.726338 C40.497165,22.2384749 41.375488,23.6079748 41.8709696,25.131721 C42.4003423,26.7599977 42.6288292,28.4557595 42.5997187,30.1550021 C42.5458267,33.2760016 41.7156415,36.6061503 39.4617074,38.9054763 C37.4772086,40.9298792 34.2322999,42.1122977 33.4902096,45.0859624 C32.716023,48.1880272 34.6087172,51.6615725 35.4490724,54.6006132 C36.4001463,57.9267111 36.8887005,61.8553171 35.7757913,65.1703409 C34.7093963,68.3473866 32.017422,70.8448823 28.970081,72.2524049 C22.8813185,75.0650137 15.8119467,74.6322493 9.7065909,71.9075677 C7.11448002,70.7506147 4.22942937,69.3294072 2.61855373,66.9302462 C2.12070689,66.1887113 1.97349974,65.5392159 1.86500211,64.6789671 C1.76775321,63.9075927 1.45714891,63.2961389 1.08532797,62.61592 C0.268331624,61.1217207 -0.0575818827,59.4517292 0.0082359395,57.7733541 C0.264369084,51.254634 5.09734324,45.1932264 10.3984363,41.6548884 C11.6544835,40.8166325 12.7575598,39.963134 13.0205759,38.4166084 C13.2952574,36.8022783 12.9628272,35.0889116 12.708833,33.4838787 C12.4579316,31.8976606 12.0682606,30.3177605 12.0369961,28.7091659 C12.0043914,27.0241138 12.472262,25.482241 13.2700843,24.00778 C14.7688568,21.2381526 17.178107,19.1374596 19.9456567,17.6029595 C22.6113539,16.1248742 25.5256723,14.8718708 26.8303267,11.9645864 C28.2132511,8.88333572 27.3947313,5.23369694 29.6667742,2.48513366 C30.6075716,1.34699708 31.9271669,0.33642025 33.4423139,0.0759471716 C34.8953873,-0.173894048 36.4826849,0.23749861 37.8718051,0.65928062 Z" id="leaf" fill="#DDE3E9"></path>
                            <path d="M34.8546892,5.75453387 C35.0642506,5.35159009 35.6599283,5.32058748 35.9944175,5.60017641 C36.4346665,5.96826264 36.2143682,6.44017154 36.0134358,6.85851487 C35.3959278,8.1444523 35.0217849,9.4954639 34.7717019,10.8996568 C34.2515289,13.8190304 34.3685553,16.7760297 34.1928966,19.7255528 C34.0173526,22.6725923 33.3061664,25.4777806 31.5723417,27.9022618 C29.9376746,30.1882489 28.0346572,32.2757096 26.386402,34.5594162 C24.9336515,36.5721991 23.397188,38.6927938 23.1314943,41.2308783 C22.8755111,43.6738643 23.6278584,46.0940852 23.8701005,48.5141055 C24.3716138,53.5237269 23.4184185,58.4046575 21.536817,63.0238459 C20.6629489,65.1687637 19.6619613,67.280027 18.2588066,69.1389501 C17.4509809,70.2093741 16.3613682,71.6569583 14.9847622,72.0289277 C14.3499641,72.2004745 13.4939559,71.9744865 13.3506408,71.2348325 C13.215856,70.5409314 13.9011729,69.8674184 14.2673925,69.3563764 C15.8529188,67.1442575 17.0573209,64.6971179 18.0313652,62.1659109 C18.9749512,59.7141475 19.7543049,57.1935696 20.0220592,54.5681149 C20.2704499,52.131615 20.063843,49.7505519 19.6492195,47.3358845 C19.2267843,44.8752123 18.7562277,42.3881242 19.2286011,39.9085798 C19.7081646,37.3901528 21.1646905,35.2617164 22.7292281,33.2818189 C24.3839563,31.187596 26.1970522,29.2457143 28.0387514,27.3121373 C29.8334397,25.4280509 31.056736,23.4325471 31.6523326,20.8856517 C32.8291281,15.8538779 32.4127874,10.4492702 34.8546892,5.75453387 Z" id="middle-thing" fill="#C5CFD6"></path>
                        </g>
                        <g id="Big-Ass-Leaf" transform="translate(0.000000, 23.750000)">
                            <path d="M5.54415688,-1.56319402e-13 C8.00011083,-1.56319402e-13 10.159305,1.30181716 11.6471206,3.14913903 C13.38875,5.31169169 13.7405054,7.9525984 14.4477237,10.5299761 C14.7996336,11.8126289 15.4048939,13.0859259 16.4655669,13.9573753 C17.4303066,14.7499039 18.6550395,14.9085001 19.809792,15.2957104 C22.1175978,16.0695273 23.9811135,17.9335991 24.7170655,20.2081198 C25.6149145,22.9825733 24.6639237,25.7805672 24.8276746,28.5922931 C24.9779855,31.1744996 27.5240024,32.7855115 29.572433,34.023347 C31.5922844,35.2439797 33.4119272,36.3865971 34.0202771,38.7644845 C34.6653937,41.2864817 34.8818229,44.1015274 33.9882994,46.5928919 C32.5006383,50.741142 28.1468736,52.5677906 23.9400213,52.8510305 C20.1221545,53.1080137 15.3216281,52.7045063 12.4544432,49.9332217 C10.7387667,48.274827 10.1174404,45.9554889 10.1945269,43.647921 C10.2424163,42.2130098 10.526663,40.7913777 10.8941756,39.4047546 C11.1546321,38.4219407 11.506542,37.4433521 11.6068008,36.4277928 C11.8732821,33.7259224 9.37608151,33.2069762 7.25040996,32.4651501 C4.54929316,31.5223249 2.65827968,29.74155 1.34332937,27.2605977 C0.118750993,24.9506154 -0.395055955,22.3575441 0.339042245,19.8142699 C0.713969924,18.5156216 1.39399944,17.3373918 2.31625665,16.3352627 C2.7222352,15.8941811 3.29443632,15.5262861 3.6608675,15.0628711 C4.00289052,14.630089 3.92843022,14.0693434 3.8105605,13.5624691 C3.2655482,11.2210996 1.56748267,9.28233212 0.960214144,6.94518778 C0.411957723,4.83560114 0.736060842,2.21008626 2.66476792,0.849116168 C3.49804353,0.261057574 4.52565742,0.00648871428 5.54415688,-1.56319402e-13 Z" id="leaf" fill="#C5CFD6"></path>
                            <path d="M8.8907047,6.10057363 C11.4937529,8.87334288 12.2012928,12.635406 12.408942,16.2817296 C12.5252563,18.3264112 12.4041914,20.4830598 13.0049184,22.4663254 C13.5189078,24.1637883 14.7238864,25.4613689 15.9659508,26.6877251 C18.4661704,29.1564329 21.2544938,31.6661852 21.985787,35.2390209 C22.4148777,37.3357626 22.1252415,39.5014652 22.7181529,41.5751193 C23.2572747,43.4599988 24.2064847,45.3118314 25.3610452,46.9035142 C26.2906396,48.1852503 27.5017481,49.1665466 28.5179269,50.3613649 C28.8279449,50.7260878 29.2720538,51.2629865 29.1440928,51.7778539 C28.9943708,52.3808463 28.2262984,52.5717336 27.6813532,52.476969 C26.410785,52.2562037 25.3412764,51.0429757 24.5105261,50.160971 C23.2957397,48.8712372 22.26347,47.4840226 21.4244444,45.9279521 C20.4930111,44.1998567 19.7430218,42.3661319 19.422583,40.4273815 C19.0900377,38.4160486 19.2555441,36.3199105 18.4962068,34.3896104 C17.2184359,31.1416602 14.119175,29.224941 11.878402,26.6934593 C9.08655396,23.5390665 9.5029252,19.613127 9.78888351,15.7329099 C9.94596136,13.6005561 10.1021197,11.1925097 9.0246423,9.24561073 C8.6133282,8.50243313 7.69630005,7.80950489 7.51945338,6.96477225 C7.35747163,6.19081124 8.24155175,5.40870169 8.8907047,6.10057363 Z" id="middle-thing" fill="#AFB9C5"></path>
                        </g>
                        <path d="M11.6666667,75.4166667 C11.666825,91.2743706 14.2546787,99.5833333 27.9167054,99.5833333 C41.5787321,99.5833333 44.1665859,91.2743706 44.1666667,75.4166667 L11.6666667,75.4166667 Z" id="Base" fill="#89C5CC"></path>
                    </g>
                    <g id="Table" transform="translate(128.427110, 193.750000)">
                        <g id="Lamp" transform="translate(9.583333, 0.000000)">
                            <rect id="Lamp-Base" fill="#AFB9C5" x="8.75" y="60" width="15.8333333" height="3.75" rx="0.833333333"></rect>
                            <path d="M12.9166667,47.9166667 C14.7054773,42.1189459 15.7078177,36.0078348 15.923688,29.5833333 L17.0833333,29.5833333 L17.826312,29.5833333 C18.0421823,36.0078348 19.0445227,42.1189459 20.8333333,47.9166667 L23.5416667,47.9166667 C27.1085057,47.9166667 30,50.808161 30,54.375 C30,57.941839 27.1085057,60.8333333 23.5416667,60.8333333 L9.79166667,60.8333333 C6.22482766,60.8333333 3.33333333,57.941839 3.33333333,54.375 C3.33333333,50.808161 6.22482766,47.9166667 9.79166667,47.9166667 L12.9166667,47.9166667 Z" id="Lamp-Body" fill="#DDE3E9"></path>
                            <path d="M1.92592593,0.699422934 C6.70061728,0.233140978 11.4753086,6.08218198e-16 16.25,0 C21.0246914,0 25.7993827,0.233140978 30.5740741,0.699422934 L32.5,33.8054418 C27.0833333,34.3240362 21.6666667,34.5833333 16.25,34.5833333 C10.8333333,34.5833333 5.41666667,34.3240362 0,33.8054418 L1.92592593,0.699422934 Z" id="Shade" fill="#C5CFD6"></path>
                        </g>
                        <path d="M8.75,63.75 L43.3333333,63.75 L52.0833333,63.75 L52.0833333,107.083333 L43.3333333,107.083333 L43.3333333,72.9166667 L8.75,72.9166667 L8.75,107.083333 L0,107.083333 L0,63.75 L8.75,63.75 Z" fill="#F2F2F2"></path>
                    </g>
                    <g id="Plant" transform="translate(240.360836, 183.333333)">
                        <g id="Succulents" transform="translate(5.416667, 0.000000)">
                            <path d="M1.40871839,0.0867445859 C5.08913541,8.83217708 11.3455002,14.9085558 14.6591229,24.0020347 C16.6240695,29.3947348 17.4431467,35.2581277 17.4928268,41.2633117 C17.5198176,44.5251063 17.4630402,47.7889949 17.4477706,51.0507895 C17.4329311,54.2316674 17.3464747,57.392204 17.0764599,60.5527405 C16.8051547,63.7300288 16.5013746,66.8694762 16.3673887,70.066358 C16.2630819,72.5572754 16.2154449,75.454571 15.3710975,77.7266694 C14.6996628,79.5336091 12.9931175,79.7983457 12.540297,77.6068649 C12.2886703,76.3886277 12.3203924,75.0284497 12.3481359,73.77641 C12.3837293,72.170042 12.4771752,70.566067 12.5248123,68.9599982 C12.7163282,62.5150821 12.468035,56.0689695 12.597827,49.6215108 C12.7246082,43.3221251 13.53433,37.0296196 12.6383669,30.7722627 C11.8985413,25.6049627 10.0189758,21.1677075 7.85896483,16.9138236 C5.78078627,12.8211748 3.51894172,8.82798916 2.11456357,4.17266282 C1.71131564,2.83566805 1.3995781,1.45021302 1.25,0.012558502 C1.31537993,-0.0178039477 1.36828606,0.00687489068 1.40871839,0.0867445859 Z" id="Thi-Succs!" fill="#C1DEE2"></path>
                            <path d="M0.405661835,17.3403982 C1.1344435,17.8666633 1.5416716,18.6364905 2.03426097,19.3960625 C2.646826,20.3403998 3.36699323,21.1929527 3.97940164,22.1379738 C5.25637497,24.1081777 6.37828838,26.1993935 7.54233423,28.2494174 C9.75232979,32.1406 11.4302662,36.287822 12.2613247,40.7895337 C13.1227688,45.4548166 13.3550454,50.2701679 13.7163821,55.0050155 C14.0996463,60.0234207 14.4855733,65.078403 14.5363202,70.1161223 C14.559031,72.3731313 14.6810428,74.7690988 14.4100795,77.0102122 C14.241393,78.4054386 13.6117558,79.5945345 12.1922526,79.5832537 C9.17704179,79.5593248 7.76145427,76.2197036 7.17003377,73.480698 C6.2995054,69.4476511 6.12580696,65.1636925 6.26363801,61.039203 C6.43013165,56.0659208 7.29329859,51.1673311 7.66685205,46.2131921 C8.06248981,40.9686587 7.83898424,35.8167643 6.03590352,30.8786919 C5.1249656,28.3832484 4.06773881,25.9476272 3.11842746,23.468763 C2.71417526,22.4133271 2.3830675,21.3291766 1.83706859,20.3463821 C1.22967223,19.2531727 0.475673742,18.2608066 -3.0475622e-14,17.0833333 C0.135168403,17.1691356 0.270493432,17.2547669 0.405661835,17.3403982 Z" id="Thi-Succs!" fill="#89C5CC"></path>
                            <path d="M35.1392261,6.88236258 C35.2316722,6.8105154 35.3242321,6.7386834 35.4166667,6.66666667 C35.1503916,7.7886073 34.6693995,8.69995576 34.3017307,9.7255444 C33.971233,10.6475528 33.8037141,11.6909271 33.5811106,12.6987294 C33.0583923,15.065732 32.4543444,17.3793815 31.960627,19.7665488 C30.9832896,24.4903135 31.1681368,29.5792435 31.8091185,34.8200635 C32.4144795,39.7706776 33.3718658,44.7136303 33.8280605,49.6631703 C34.2062167,53.7679458 34.3687538,58.0007252 34.0080387,61.9170832 C33.7629103,64.5768204 32.9593978,67.7524974 30.7700573,67.4840664 C29.7393591,67.3577097 29.2016947,66.1171371 28.9850788,64.7167521 C28.6371297,62.4673518 28.5642919,60.1024175 28.4286648,57.8657055 C28.1259812,52.8732952 28.065687,47.8962386 28.0059234,42.9552078 C27.9493392,38.2933362 27.7935494,33.5391009 28.1050489,28.9946958 C28.4054944,24.6096061 29.3452035,20.6582247 30.6887826,17.0123853 C31.3964393,15.0915919 32.0707047,13.1258544 32.8657985,11.2951835 C33.2470976,10.4170807 33.7129306,9.64114623 34.0943896,8.7637368 C34.401124,8.0579859 34.6451408,7.33379065 35.1392261,6.88236258 Z" id="Thi-Succs!" fill="#C1DEE2"></path>
                            <path d="M1.33700322,31.792426 C1.73571733,31.1230521 2.61336049,33.3305872 2.74693029,33.6082396 C2.69043747,33.4701285 2.63371995,33.3322155 2.57650086,33.1944225 C3.36791153,34.5103861 4.09192702,35.8803039 4.54207621,37.38923 C4.98752096,38.8829637 5.37012542,40.4068907 5.7880875,41.9112413 C6.57232898,44.7337498 7.58402736,47.4761483 8.29456776,50.3240833 C8.98690909,53.0992599 9.16147747,55.8274544 8.99387421,58.697999 C8.81968295,61.6814546 8.71311401,64.7106846 8.91632836,67.6925314 C9.01338168,69.1166743 9.47613461,70.4432363 9.79329946,71.814297 C10.1108507,73.1867093 10.3609558,74.5774202 10.7363659,75.9328162 C10.8225396,75.7562482 10.833517,76.3465437 10.833331,76.3913533 C10.830975,76.7299657 10.7836934,77.0139092 10.6747509,77.334984 C10.3948072,78.160641 9.87109168,78.8620803 9.07415589,79.0898132 C7.63396502,79.5012995 6.29676848,78.1912635 5.8323333,76.8079201 C5.16607292,74.8230354 4.79893632,72.6295636 4.48141762,70.5433565 C4.19031845,68.6303237 4.1214338,66.7058715 4.20791721,64.7664946 C4.37827747,60.9419379 5.07040161,57.1674519 5.25762624,53.3440599 C5.46139669,49.1815495 4.63668364,45.2705321 3.94617668,41.2186777 C3.61357634,39.2663301 3.29572651,37.3324036 2.64846016,35.4723613 C2.38640392,34.7191629 2.04473652,34.0544649 1.68649757,33.3589295 C1.48265953,32.9632118 1.07043804,32.2573396 1.33700322,31.792426 Z" id="Thi-Succs!" fill="#C1DEE2"></path>
                            <path d="M13.0217053,25.2904367 C12.8565158,30.0590914 12.5716757,34.7915727 11.9359119,39.5099776 C11.2870567,44.3251174 10.5418029,49.1237255 9.91748081,53.9431209 C9.30974077,58.6343549 8.67272678,63.4035006 8.75765316,68.1602066 C8.82019979,71.6639418 8.23922534,77.5911239 12.1305706,79.3204036 C16.0717021,81.0716165 16.9170919,73.5930749 17.1758814,71.124616 C17.671807,66.3886974 17.5112525,61.6028563 17.2705736,56.8410762 C17.0234856,51.9539172 16.6110134,47.0916376 16.0998111,42.2223197 C15.5320146,36.8136761 15.0865035,31.3806441 14.728943,25.9566145 C14.5520375,23.2737348 14.5084562,20.5952744 14.5572662,17.9117399 C14.6034046,15.3794459 14.507192,12.820963 13.6068726,10.4166667 C13.5596989,10.4508758 13.5128387,10.4850849 13.465662,10.5191304" id="Thi-Succs!" fill="#69A1AC"></path>
                            <path d="M33.3678111,40.3980105 C32.6590352,41.4305397 31.9445599,42.4530222 31.2752125,43.5467452 C30.077558,45.5035731 28.9945503,47.6798306 28.6687435,50.4778433 C27.9869315,56.3334853 28.5339263,62.6578983 28.6659473,68.6927829 C28.6929508,69.9260183 28.5369799,71.1220352 29.0230501,72.2956753 C29.4637579,73.359943 30.2877189,74.1709877 31.0731277,74.1666493 C32.7545015,74.1570593 32.4979703,70.039729 32.5007411,68.2274369 C32.5058113,65.0510737 32.1496347,61.8425152 32.1802904,58.6691204 C32.2108988,55.5251806 32.4020918,52.3725642 32.8579164,49.3866321 C33.3194042,46.3643947 33.9952343,43.4622614 34.8871394,40.7539842 C35.0109101,40.3781453 35.8991423,37.473957 35.059957,37.9744665" id="Thi-Succs!" fill="#89C5CC"></path>
                            <path d="M25.9425813,9.16666667 C24.8371464,9.16666667 24.8439233,14.6774989 24.8106689,15.3853388 C24.6905746,17.9397475 24.7187857,20.4948396 24.6428206,23.0497609 C24.4765483,28.625346 24.2722934,34.2497948 23.4347854,39.7609687 C22.9838802,42.7278142 22.4611075,45.6815041 21.8987762,48.6257971 C21.3348689,51.5786327 20.5778966,54.5278804 20.2068966,57.5181326 C19.8507114,60.392718 20.0519718,63.3238554 20.1008291,66.2126216 C20.1496864,69.1188146 20.2374718,72.0308166 20.6182432,74.9115526 C20.7121752,75.6226388 20.8223405,76.3311621 20.9402283,77.037977 C21.0384157,77.6269039 20.9812054,78.3572964 21.1473201,78.9170076 C21.4136709,79.8134682 22.5553548,80.1068211 23.3241474,79.9667225 C25.4043634,79.5869184 26.7331232,76.9749326 27.44376,75.0665154 C28.3512441,72.6296529 28.8327246,69.9864012 29.3079008,67.4183243 C29.8462763,64.5088851 30.1617996,61.5550244 30.3097898,58.5929628 C30.610656,52.5729915 30.224526,46.5465279 29.7933213,40.5458629 C29.5534479,37.2086102 29.27638,33.8860508 28.8524251,30.5694712 C28.4302038,27.2670723 27.8885186,23.9793667 27.5358007,20.6672293 C27.2795365,18.2602659 27.0270548,15.8500563 26.8610977,13.4338669 C26.8213815,12.8577539 26.7879694,9.16666667 25.9425813,9.16666667" id="Thi-Succs!" fill="#69A1AC"></path>
                            <path d="M24.5586636,49.2244595 C24.3784812,43.4386229 22.0527204,18.0245449 21.5235753,11.0279718 C21.3912538,9.27673734 20.1173078,1.98526628 19.9520467,-1.2490009e-14 C19.5039837,0.5611425 19.5422725,9.29560226 19.5471994,11.302581 C19.5524078,13.2878473 19.3062054,15.2401889 19.1795146,17.214777 C19.0504308,19.2295864 16.0717902,45.2503675 15.6852426,47.1863358 C14.9162297,51.0378058 14.4015836,54.9901853 14.0046192,58.9281492 C13.6179309,62.7664493 13.0167128,66.8158231 13.5341742,70.6742339 C13.6531228,71.5624871 13.8413289,72.4365025 14.1477798,73.2524995 C14.478865,74.1341677 14.7057822,74.9494528 14.9715513,75.8720543 C15.399203,77.358112 16.1728613,78.6622834 17.3616429,79.2757493 C19.7988917,80.5336482 21.1076073,77.6861125 21.7710446,75.2069768 C22.8306016,71.2478344 23.5106495,67.2240885 23.8294879,63.0661525 C24.1822513,58.4659586 24.7029503,53.8563322 24.5586636,49.2244595" id="Thi-Succs!" fill="#89C5CC"></path>
                        </g>
                        <g id="Planter" transform="translate(0.000000, 66.250000)">
                            <rect id="Vase" fill="#FFFFFF" x="4.16666667" y="0" width="37.9166667" height="37.9166667" rx="0.833333333"></rect>
                            <rect id="Leg" fill="#C5CFD6" x="0" y="4.16666667" width="4.16666667" height="47.0833333" rx="0.833333333"></rect>
                            <rect id="Leg" fill="#C5CFD6" x="20.8333333" y="4.16666667" width="4.16666667" height="47.0833333" rx="0.833333333"></rect>
                            <rect id="Leg" fill="#C5CFD6" x="42.0833333" y="4.16666667" width="4.16666667" height="47.0833333" rx="0.833333333"></rect>
                        </g>
                    </g>
                </g>
                <g id="Group-2" transform="translate(15.900735, 150.000000)">
                    <g id="Group">
                        <g id="Head/Front/Short-Beard" transform="translate(34.654052, 0.000000)">
                            <g id="Head" stroke-width="1" transform="translate(25.263158, 14.718992)" fill="#B28B67">
                                <path d="M3.86539129,16.3761261 C1.70964414,13.8080176 0.250589377,10.6607653 0.494398285,7.13417869 C1.19687964,-3.0268993 15.1338155,-0.791591609 17.8448381,4.33684799 C20.5558606,9.4652876 20.2337207,22.474 16.7299656,23.3905952 C15.3326729,23.7561321 12.3560239,22.860713 9.32648982,21.0074709 L11.2280702,34.6608527 L0,34.6608527 L3.86539129,16.3761261 Z"></path>
                            </g>
                            <path d="M35.1510201,22.9753636 C35.5808137,29.0515423 36.7177316,32.0896317 38.5617738,32.0896317 C41.327999,32.0896317 43.6749446,30.3073757 44.8886978,30.3073757 C45.7734827,30.3073757 45.5759373,31.4310977 44.9894557,32.2642578 C44.5055894,32.9516416 42.1492011,33.6141974 42.1492011,34.6798732 C42.1492011,35.745549 44.0109433,34.9210944 44.0109433,35.5531258 C44.0109433,36.598583 44.3381417,38.5642295 42.5502803,38.5642295 C40.7409049,38.5642295 35.5531052,37.8950349 34.6640569,35.1695943 C34.0902911,33.4106747 33.7193103,29.7658642 33.5511144,24.2351628 C33.4413519,24.2219256 33.3296466,24.2151163 33.2163743,24.2151163 C31.6661013,24.2151163 30.4093567,25.4905841 30.4093567,27.0639535 C30.4093567,27.8626812 30.733236,28.5846358 31.2549778,29.1019233 C30.605472,30.0323546 29.8775623,31.0043147 29.0434556,32.0072512 C25.9098972,30.0992348 23.5846188,24.5137558 26.6481806,19.1481167 C27.4949588,16.5195735 29.411946,15.1155698 31.6759541,14.4636458 C33.5099173,13.6850639 35.4137446,13.5972781 37.020846,14.0640309 C40.1712099,14.3382754 42.9843337,15.3132185 43.7815956,15.8922132 C43.7815956,18.9192092 43.2036819,19.81731 38.2675114,19.7381458 C37.0546143,20.3882429 36.1222002,21.5077094 35.1510201,22.9753636 Z" id="Hair" fill="#191847"></path>
                        </g>
                        <g id="Bottom/Sitting/Skinny-Jeans-1" transform="translate(0.000000, 88.056206)">
                            <g id="Objects/Seat/Cube" transform="translate(4.666667, 19.600000)" stroke-width="1">
                                <g id="Seat" transform="translate(25.515464, 0.000000)">
                                    <polygon id="Seat-Stuff" fill="#C5CFD6" points="12.8146275 0 48.6543679 0 53.3505155 57.6282051 0 57.6282051"></polygon>
                                    <polygon id="Seat-Stuff" fill-opacity="0.1" fill="#000000" points="12.8146275 0 23.837382 0 30.4347403 57.6282051 0 57.6282051"></polygon>
                                </g>
                            </g>
                            <path d="M120.378204,9.68619221 C124.222043,7.37806855 130.671095,10.3435337 130.666667,13.6445938 C130.653419,23.5213583 121.639785,70.0705135 121.169171,73.0131316 C120.698557,75.9557497 115.657104,76.7330062 115.363523,73.0227751 C114.896387,67.119171 114.028507,46.6821233 114.896857,37.222571 C115.255293,33.3178666 115.64131,29.5991564 116.021336,26.2815441 C111.291554,34.8229481 103.976707,47.0521322 94.0767931,62.9690964 L88.7024006,60.5136816 C92.9227439,46.608846 96.383362,36.7924022 99.0842549,31.0643499 C103.708839,21.2565339 108.045143,12.8574469 109.870153,9.8989367 C112.740896,5.24519817 117.737882,6.86895651 120.378204,9.68619221 Z" id="Skin" fill="#B28B67"></path>
                            <path d="M97.4490377,57.5587307 L99.837228,10.1873148 C101.5585,1.99613163 116.127034,5.79766147 116.121043,10.1873148 C116.107442,20.1531867 110.120975,54.579834 110.116923,57.5490002 L97.4490377,57.5587307 Z" id="LegLower" fill="#1F28CF" transform="translate(106.785041, 31.462506) rotate(20.000000) translate(-106.785041, -31.462506) "></path>
                            <g id="Accessories/Shoe/Flat-Sneaker" transform="translate(100.566667, 62.066667) rotate(30.000000) translate(-100.566667, -62.066667) translate(86.333333, 52.733333)" fill="#E4E4E4">
                                <path d="M1.28883018,11.7259703 C0.740721171,13.168642 0.466666667,14.2437086 0.466666667,14.9511702 C0.466666667,15.7909359 0.606859962,17.0163628 0.887246553,18.627451 C1.86348455,18.627451 10.6370998,18.627451 27.2080922,18.627451 C27.8920777,16.3709715 27.4972416,15.1527709 26.023584,14.972849 C24.5499264,14.7929272 23.3257339,14.6304722 22.3510067,14.485484 L10.0698893,9.02200268 C9.85963734,8.92846821 9.61336977,9.02308645 9.5198353,9.23333843 C9.51832118,9.23674197 9.51685276,9.24016565 9.51543046,9.24360857 L8.70949944,11.1944903 C7.3452779,11.8296664 6.23670626,12.1472545 5.38378453,12.1472545 C4.67308815,12.1472545 3.68468724,11.8535069 2.4185818,11.2660118 L2.41857592,11.2660245 C2.00110081,11.0723087 1.50563271,11.2537015 1.31191694,11.6711766 C1.30357199,11.6891607 1.2958715,11.7074369 1.28883018,11.7259703 Z" id="shoe"></path>
                            </g>
                            <g id="Accessories/Shoe/Flat-Sneaker" transform="translate(112.933333, 58.800000)" fill="#E4E4E4">
                                <path d="M1.28883018,11.7259703 C0.740721171,13.168642 0.466666667,14.2437086 0.466666667,14.9511702 C0.466666667,15.7909359 0.606859962,17.0163628 0.887246553,18.627451 C1.86348455,18.627451 10.6370998,18.627451 27.2080922,18.627451 C27.8920777,16.3709715 27.4972416,15.1527709 26.023584,14.972849 C24.5499264,14.7929272 23.3257339,14.6304722 22.3510067,14.485484 L10.0698893,9.02200268 C9.85963734,8.92846821 9.61336977,9.02308645 9.5198353,9.23333843 C9.51832118,9.23674197 9.51685276,9.24016565 9.51543046,9.24360857 L8.70949944,11.1944903 C7.3452779,11.8296664 6.23670626,12.1472545 5.38378453,12.1472545 C4.67308815,12.1472545 3.68468724,11.8535069 2.4185818,11.2660118 L2.41857592,11.2660245 C2.00110081,11.0723087 1.50563271,11.2537015 1.31191694,11.6711766 C1.30357199,11.6891607 1.2958715,11.7074369 1.28883018,11.7259703 Z" id="shoe"></path>
                            </g>
                            <path d="M131.959507,17.0020796 C131.959507,29.4 126.07168,58.3194702 126.067954,61.0493854 L113.4,61.0591159 C115.254196,35.2545578 115.91168,22.2132833 115.372452,21.9352924 C114.56361,21.5183059 82.2153909,25.1650143 72.5136337,25.1650143 C58.5236517,25.1650143 52.7362764,16.342852 52.2666667,-4.40536496e-13 L79.9803003,-4.40536496e-13 C85.623045,0.60380457 115.056119,6.54045315 125.986978,8.58125933 C130.666667,9.4549634 131.959507,13.5867718 131.959507,17.0020796 Z" id="Leg-and-Butt" fill="#2B44FF"></path>
                        </g>
                        <g id="Body/Jacket-2" transform="translate(9.365960, 38.407494)">
                            <path d="M92.5233645,36.4866651 L109.455405,29.0062356 C112.421504,26.0328736 115.285695,23.772981 118.047978,22.2265578 C118.873954,21.9620215 120.285094,21.882102 118.779518,24.0943099 C117.273941,26.3065179 115.789201,28.7015451 116.390789,29.4768487 C116.992378,30.2521523 118.735049,29.3964282 119.423526,30.657224 C119.88251,31.4977545 116.944994,32.5032045 110.610977,33.6735741 L97.9298786,43.4543656 L92.5233645,36.4866651 Z M24.0692911,38.5470085 L33.6448598,40.458303 C24.0149918,58.5120362 18.8506665,68.0805253 18.1518841,69.1637703 C16.5796235,71.6010714 18.0465744,76.0679325 18.5884599,78.4202123 C15.188974,79.2162742 16.5296268,74.0690195 12.2276431,75.1437194 C8.30099183,76.1246558 4.97166503,78.6420879 1.31022355,75.2469289 C0.860070837,74.8295141 0.530537766,73.5247935 2.0653364,72.8556086 C5.88907951,71.1884249 11.5383379,68.066657 12.4543656,66.8546607 C13.7035331,65.2018874 17.5751749,55.7660033 24.0692911,38.5470085 Z" id="Skin" fill="#B28B67"></path>
                            <path d="M57.5952887,4.63065311 L61.5598579,3.5839192 C71.0759626,11.3726844 76.4521864,31.6148379 82.533183,33.8244655 C88.2825193,35.913579 95.8958074,32.7391483 104.910213,28.5635612 L108.321439,34.7214387 C100.669113,44.666221 83.3314705,54.0192565 75.6395944,50.2186774 C63.3418834,44.1423415 58.4282538,19.0264361 57.5952887,4.63065311 Z" id="Coat-Back" fill="#DB2721" transform="translate(82.958364, 27.334319) rotate(5.000000) translate(-82.958364, -27.334319) "></path>
                            <path d="M42.0560748,53.5897436 C58.2578298,53.5897436 70.1755013,53.5897436 77.8090891,53.5897436 C79.4428195,53.5897436 79.1349742,51.2165815 78.8988086,50.019071 C76.1731718,36.1983517 65.5333197,21.3002851 65.5333197,1.62683903 L55.2204673,0 C46.6904135,13.8009605 43.740573,30.7927371 42.0560748,53.5897436 Z" id="Shirt" fill="#DDE3E9"></path>
                            <path d="M38.4900727,39.5967882 C31.2015802,52.8224848 25.0752079,62.3443531 20.1109557,68.1623932 L12.6168224,66.6857701 C17.4442022,36.5682647 31.4236498,14.3396747 54.5551652,-3.4767554e-14 L54.6728972,-3.88602954e-14 L58.6385037,0 C67.8966929,31.7481378 70.4490118,52.901984 66.2954603,63.4615385 L34.1121495,63.4615385 C34.6213215,55.7349556 36.2539234,47.563812 38.4900727,39.5967882 Z" id="Coat-Front" fill="#FF4133"></path>
                        </g>
                    </g>
                </g>
                <g id="A-Human/Sitting" transform="translate(212.981074, 238.541667) scale(-1, 1) translate(-212.981074, -238.541667) translate(150.481074, 165.000000)">
                    <g id="Head/Front/Short-2" transform="translate(34.166667, 0.000000)">
                        <g id="Head" stroke-width="1" transform="translate(22.500000, 12.916667)" fill="#915B3C">
                            <path d="M3.44261412,14.3708862 C1.52265181,12.11724 0.223181164,9.35536546 0.440323473,6.26060579 C1.06597093,-2.65625857 13.4785544,-0.694662024 15.8930589,3.80580538 C18.3075634,8.30627279 18.0206575,19.7220816 14.9001256,20.5264407 C13.6556621,20.8472178 11.0045853,20.0614425 8.30640723,18.4351289 L10,30.4166667 L0,30.4166667 L3.44261412,14.3708862 Z"></path>
                        </g>
                        <path d="M25.1742243,29.2948 C23.9191259,23.7110245 20.3435553,19.9047518 20.8896307,17.4090429 C21.253681,15.745237 22.223984,14.7105745 23.80054,14.3050555 C24.6159198,11.0064587 27.2456869,9.60343692 31.6898414,10.0959901 C38.3560731,10.83482 42.4247698,13.6032328 40.6677008,19.6949491 C39.0525411,19.6949491 37.1026983,19.1108278 34.4064708,20.1116158 C33.5509687,20.4291618 32.9390886,21.4138998 32.5708303,23.0658298 L31.3524158,23.0658298 C30.1698931,21.1054405 29.0039183,20.3850509 27.8544911,20.9046611 C26.705064,21.4242712 26.4437805,22.6864064 27.0706407,24.6910665 L26.4704483,29.2948 L25.1742243,29.2948 Z" id="Hair" fill="#191847"></path>
                    </g>
                    <g id="Bottom/Sitting/Baggy-Pants" transform="translate(0.000000, 77.916667)">
                        <g id="Objects/Seat/Cube-2" transform="translate(4.166667, 17.500000)" fill="#C5CFD6">
                            <path d="M24.5833333,0 L72.5,0 C76.1818983,2.59382889e-15 79.1666667,2.98476833 79.1666667,6.66666667 L79.1666667,45 C79.1666667,48.6818983 76.1818983,51.6666667 72.5,51.6666667 L24.5833333,51.6666667 C20.901435,51.6666667 17.9166667,48.6818983 17.9166667,45 L17.9166667,6.66666667 C17.9166667,2.98476833 20.901435,6.76353751e-16 24.5833333,0 Z M31.25,11.6666667 C30.3295254,11.6666667 29.5833333,12.4128588 29.5833333,13.3333333 L29.5833333,38.3333333 C29.5833333,39.2538079 30.3295254,40 31.25,40 L65.8333333,40 C66.7538079,40 67.5,39.2538079 67.5,38.3333333 L67.5,13.3333333 C67.5,12.4128588 66.7538079,11.6666667 65.8333333,11.6666667 L31.25,11.6666667 Z" id="Seat"></path>
                        </g>
                        <path d="M124.649568,67.0833333 C116.434623,57.0517395 110.876195,49.6147644 107.974283,44.7724081 C103.005507,36.4811184 98.9388004,29.1034019 97.6554493,26.2851475 C94.595134,19.5646582 104.70079,16.4177576 106.987929,19.5524167 C110.449606,24.2968477 117.842518,39.2262364 129.166667,64.3405828 L124.649568,67.0833333 Z" id="LegLower" fill="#B28B67"></path>
                        <path d="M107.815653,64.1666667 L92.5271655,25.6819904 C89.2572622,18.6664905 105.048232,14.0550319 107.451364,17.3199049 C112.907217,24.7321775 125.874519,53.9725178 127.5,56.1808814 L107.815653,64.1666667 Z" id="LegLower" fill="#2F3676"></path>
                        <g id="Lower-Leg" stroke-width="1" transform="translate(91.738734, 41.041368) rotate(39.000000) translate(-91.738734, -41.041368) translate(80.280400, 11.041368)" fill="#915B3C">
                            <path d="M2.00435908,57.4812639 C1.58492724,52.2310075 0.805674855,34.0557136 1.58534854,25.6430433 C1.80939549,23.2255793 2.04544399,20.8882794 2.28332411,18.6956847 C2.99038801,12.1785175 15.0745949,12.3845293 14.1149574,18.5761647 C11.7250807,33.995784 7.51862518,55.6054876 7.21713273,57.4726877 C6.79457819,60.0896483 2.26795892,60.7808863 2.00435908,57.4812639 Z" id="LegLower"></path>
                        </g>
                        <g id="Accessories/Shoe/Flat-Sneaker" transform="translate(78.958333, 58.333333) rotate(30.000000) translate(-78.958333, -58.333333) translate(66.250000, 50.000000)" fill="#E4E4E4">
                            <path d="M1.11588752,10.5841371 C0.649740283,11.8285055 0.416666667,12.7595808 0.416666667,13.3773628 C0.416666667,14.1287321 0.541839252,15.2251667 0.792184422,16.6666667 C1.66382549,16.6666667 9.49741051,16.6666667 24.2929395,16.6666667 C24.9036408,14.6477114 24.5511086,13.5577423 23.2353429,13.3967596 C21.9195771,13.2357769 20.8265481,13.0904225 19.956256,12.9606962 L9.03333027,8.09120144 C8.82315146,7.99750268 8.57681001,8.09192842 8.48311125,8.30210723 C8.48150832,8.30570281 8.47995643,8.30932092 8.47845605,8.31296048 L7.77633879,10.0161229 C6.55828384,10.5844384 5.56848774,10.8685961 4.80695047,10.8685961 C4.18822418,10.8685961 3.3337597,10.6187144 2.24355704,10.1189508 L2.24357111,10.1189201 C1.82518132,9.92712461 1.3305284,10.1108156 1.1387329,10.5292054 C1.13046641,10.5472382 1.12284643,10.5655604 1.11588752,10.5841371 Z" id="shoe"></path>
                        </g>
                        <g id="Accessories/Shoe/Flat-Sneaker" transform="translate(120.000000, 55.000000)" fill="#E4E4E4">
                            <path d="M1.11588752,10.5841371 C0.649740283,11.8285055 0.416666667,12.7595808 0.416666667,13.3773628 C0.416666667,14.1287321 0.541839252,15.2251667 0.792184422,16.6666667 C1.66382549,16.6666667 9.49741051,16.6666667 24.2929395,16.6666667 C24.9036408,14.6477114 24.5511086,13.5577423 23.2353429,13.3967596 C21.9195771,13.2357769 20.8265481,13.0904225 19.956256,12.9606962 L9.03333027,8.09120144 C8.82315146,7.99750268 8.57681001,8.09192842 8.48311125,8.30210723 C8.48150832,8.30570281 8.47995643,8.30932092 8.47845605,8.31296048 L7.77633879,10.0161229 C6.55828384,10.5844384 5.56848774,10.8685961 4.80695047,10.8685961 C4.18822418,10.8685961 3.3337597,10.6187144 2.24355704,10.1189508 L2.24357111,10.1189201 C1.82518132,9.92712461 1.3305284,10.1108156 1.1387329,10.5292054 C1.13046641,10.5472382 1.12284643,10.5655604 1.11588752,10.5841371 Z" id="shoe"></path>
                        </g>
                        <path d="M87.0258711,27.6041884 C74.3188634,25.5340563 65.8075373,24.118508 61.4918927,23.3575434 C49.1906046,21.1884944 45.6034443,14.5688877 47.724365,0.125928608 L70.3892793,0.125928608 C73.3886164,0.992080672 85.9210105,6.3489502 107.986462,16.1965372 C111.956472,18.1673055 111.217125,23.9781243 110.491478,25.892532 C110.461883,25.9706088 103.769207,37.4387562 90.4134501,60.296974 L71.8725946,48.485621 L87.0606911,28.9959948 C87.4617942,28.1881197 87.4501875,27.7241843 87.0258711,27.6041884 Z" id="Leg-and-Butt" fill="#5C63AB"></path>
                    </g>
                    <g id="Body/Hoodie" transform="translate(9.166667, 34.166667)">
                        <path d="M79.4921686,38.4214523 L92.7831149,48.181285 C96.3878932,49.1539843 99.3995689,50.3641864 101.818142,51.8118915 C102.389451,52.3324769 103.079932,53.3867489 100.710575,53.2045443 C98.3412185,53.0223397 95.8408166,52.9372466 95.5138914,53.7453975 C95.1869663,54.5535483 96.6207725,55.5200081 95.9599144,56.6104153 C95.5193423,57.3373534 93.4379028,55.5145831 89.7155958,51.1421044 L76.5540724,45.684353 L79.4921686,38.4214523 Z M28.4616367,38.7582881 L37.1688833,38.7925296 C31.7925603,56.1482246 28.8901447,65.3570476 28.4616367,66.4189987 C27.4974936,68.8083887 29.5377501,72.4473882 30.4102447,74.4029594 C27.5685587,75.6745293 27.8713434,70.965387 24.2866329,72.6331218 C21.0146754,74.1553527 18.5257055,76.9135333 14.7454313,74.5809881 C14.2806688,74.2942154 13.7713649,73.2144643 15.0019077,72.370696 C18.0676385,70.2685613 22.4855423,66.5894469 23.0824707,65.3784379 C23.8964892,63.7270107 25.6895445,54.8536275 28.4616367,38.7582881 Z" id="Skin" fill="#915B3C"></path>
                        <path d="M51.1382224,3.99179615 L54.6736189,3.0621417 C68.9972917,13.4011818 76.4007122,35.0234753 93.7485928,45.3030666 L90.2457209,50.5168914 C61.620516,49.4881838 52.2430476,23.1445425 51.1382224,3.99179615 Z" id="Coat-Back" fill="#E87613" transform="translate(72.443408, 26.789517) rotate(5.000000) translate(-72.443408, -26.789517) "></path>
                        <path d="M37.5,47.5 C51.9465649,47.5 62.5731553,47.5 69.3797711,47.5 C70.8365141,47.5 70.5620187,45.3965155 70.3514376,44.3350856 C67.9210782,32.0849026 58.4338768,18.8797981 58.4338768,1.44197096 L49.23825,0 C41.6322854,12.2326695 39.002011,27.2935625 37.5,47.5 Z" id="Shirt" fill="#DDE3E9"></path>
                        <path d="M37.7561839,12.0241494 C36.4206345,11.6402452 35.3630176,10.7448607 34.5833333,9.33799591 C31.2223154,3.27336491 32.4361363,-0.0656636606 36.0279985,-1.16322121 C39.6198607,-2.26077875 42.8230497,-8.65973959e-15 48.5458464,-3.10862447e-15 C48.8571188,-2.88657986e-15 49.1422094,0.0195135559 49.401118,0.0585406678 L52.279828,0.22280831 C60.5391608,28.2146643 62.8170355,46.8903949 59.1134521,56.25 L34.0215892,56.25 C32.534923,59.7166129 31.1123089,62.6332796 29.7537469,65 L22.9166667,65 C22.2732013,44.1946212 27.2197071,26.5360043 37.7561839,12.0241494 Z" id="Coat-Front" fill="#FF9B21"></path>
                        <path d="M39.4855119,41.8740137 C40.2746461,48.4766763 41.5572532,53.2686717 43.3333333,56.25 L34.0215892,56.25 C35.7557438,52.2062928 37.5770514,47.4142974 39.4855119,41.8740137 Z" id="Shade" fill-opacity="0.1" fill="#000000"></path>
                    </g>
                </g>
            </g>
        </g>
    </g>
</svg>