<?xml version="1.0" encoding="UTF-8"?>
<svg width="155px" height="118px" viewBox="0 0 155 118" version="1.1" xmlns="http://www.w3.org/2000/svg" xmlns:xlink="http://www.w3.org/1999/xlink">
    <!-- Generator: Sketch 52.3 (67297) - http://www.bohemiancoding.com/sketch -->
    <title>Leaf</title>
    <desc>Created with Sketch.</desc>
    <g id="High---UserFlow----SANDRA" stroke="none" stroke-width="1" fill="none" fill-rule="evenodd">
        <g id="Sign-up-2-" transform="translate(-220.000000, -536.000000)" fill="#E6E9E9">
            <path d="M334.748753,606.116933 C334.943013,597.674498 331.47,589.893736 327.625607,582.550297 C320.141693,568.254407 316.398511,559.701422 317.608148,542.723072 C318.319892,532.737816 319.170392,522.187617 314.052697,513.120087 C310.326656,506.517169 302.510541,499.453356 294.256932,500.647458 C281.19171,503.61117 273.897975,516.009016 271.101607,528.319071 C267.63594,543.576582 271.604399,554.95997 283.17349,564.73632 C289.692634,570.243492 293.369701,575.91649 295.147427,584.303651 C296.570097,591.010615 296.166068,598.701961 298.599218,605.15206 C302.237107,614.794286 308.805224,620.682694 318.684742,622.47344 C315.119496,603.361314 310.111175,583.613527 302.080393,565.894655 C301.359672,564.141301 296.179128,556.646669 298.334763,554.753502 C300.709145,552.669311 304.627814,564.652594 304.596797,564.57781 C306.873233,569.902901 308.793797,575.40032 310.640085,580.920499 C310.63029,580.922124 310.619679,580.921312 310.609068,580.922937 C312.51494,586.591058 314.371839,592.317705 316.145483,598.081744 C316.834373,600.500023 317.479186,602.93212 318.052172,605.396733 C318.892878,609.013177 318.992456,618.537538 321.376633,621.365502 C321.88677,621.970275 322.405885,622.384024 322.929082,622.654709 C323.884058,626.642634 324.77537,630.6395 325.556492,634.644495 C327.596223,645.104466 328.77566,655.833496 327.453385,666.469858 C327.067313,669.574197 323.101304,680.370695 324.415417,683.127126 C326.81755,688.168526 328.168393,680.394268 328.680979,678.081662 C332.919606,658.928893 331.387562,640.947465 326.762864,622.196252 C331.01455,619.279686 334.66958,609.537477 334.748753,606.116933" id="Leaf" transform="translate(302.324257, 592.654901) scale(-1, 1) rotate(65.000000) translate(-302.324257, -592.654901) "></path>
        </g>
    </g>
</svg>