<?xml version="1.0" encoding="UTF-8"?>
<svg width="28px" height="24px" viewBox="0 0 28 24" version="1.1" xmlns="http://www.w3.org/2000/svg" xmlns:xlink="http://www.w3.org/1999/xlink">
    <!-- Generator: Sketch 52.3 (67297) - http://www.bohemiancoding.com/sketch -->
    <title>Iconos -15 Copy</title>
    <desc>Created with Sketch.</desc>
    <g id="Elementos-" stroke="none" stroke-width="1" fill="none" fill-rule="evenodd">
        <g id="Iconografia-" transform="translate(-1000.000000, -65.000000)" fill="#485A5A">
            <g id="Iconos--15-Copy" transform="translate(1000.000000, 65.000000)">
                <path d="M25.2,0 L2.8,0 C1.35333333,0 0.186666667,1.15384615 0.186666667,2.63076923 L0.186666667,16.2923077 C0.186666667,17.7230769 1.35333333,18.8769231 2.84666667,18.9230769 L4.76,18.9230769 C4.9,18.9230769 5.04,19.0153846 5.13333333,19.1076923 C5.22666667,19.2461538 5.22666667,19.3846154 5.22666667,19.5230769 L3.73333333,24 L8.77333333,19.0153846 C8.86666667,18.9230769 8.96,18.8769231 9.1,18.8769231 L25.2,18.8769231 C26.6466667,18.8769231 27.8133333,17.7230769 27.86,16.2461538 L27.86,2.63076923 C27.8133333,1.15384615 26.6466667,0 25.2,0 Z" id="Path"></path>
            </g>
        </g>
    </g>
</svg>