<?xml version="1.0" encoding="UTF-8"?>
<svg width="23px" height="26px" viewBox="0 0 23 26" version="1.1" xmlns="http://www.w3.org/2000/svg" xmlns:xlink="http://www.w3.org/1999/xlink">
    <!-- Generator: Sketch 52.3 (67297) - http://www.bohemiancoding.com/sketch -->
    <title>Logo</title>
    <desc>Created with Sketch.</desc>
    <g id="Symbols" stroke="none" stroke-width="1" fill="none" fill-rule="evenodd">
        <g id="Tab-Bar-" transform="translate(-137.000000, -8.000000)">
            <g id="Buddy">
                <g transform="translate(126.000000, 9.000000)">
                    <g id="Logo" transform="translate(12.000000, 0.000000)">
                        <path d="M11.2471245,0.202507563 C10.7274736,-0.0729882353 9.87974717,-0.0667361345 9.3626717,0.216826891 L0.939888679,4.83329748 C0.423011321,5.1168605 3.96226415e-05,5.94697815 3.96226415e-05,6.67807059 L3.96226415e-05,17.4201882 C3.96226415e-05,18.1512807 0.425586792,18.9723227 0.946228302,19.2445916 L9.35653019,23.6464739 C9.87697358,23.9187429 10.7298509,23.9229782 11.251483,23.6553479 L19.8767377,19.2357176 C20.3983698,18.9680874 20.8257,18.1512807 20.8257,17.4201882 L20.8257,6.6143395 C20.8257,5.88324706 20.4007472,5.05958319 19.8812943,4.78388571 L11.2471245,0.202507563 Z" id="Stroke-1" stroke="#485A5A" stroke-width="1.21008403"></path>
                        <path d="M12.5706594,15.5856807 C12.9817443,15.2952605 13.1863953,14.8884706 13.1863953,14.3657143 C13.1863953,13.866958 12.9817443,13.4744874 12.5706594,13.189916 C12.160367,12.9055462 11.5896028,12.7688067 10.8591594,12.7805042 L7.95006509,12.7805042 L7.95006509,16.0037647 L10.8591594,16.0037647 C11.5896028,16.0152605 12.160367,15.8756975 12.5706594,15.5856807 M12.2538764,10.4105546 C12.590867,10.1439328 12.7586689,9.77223529 12.7586689,9.29586555 C12.7586689,8.83119328 12.590867,8.4709916 12.2538764,8.21586555 C11.917084,7.96013445 11.4523104,7.83791597 10.8591594,7.84961345 L7.95006509,7.84961345 L7.95006509,10.8118992 L10.8591594,10.8118992 C11.4523104,10.8118992 11.917084,10.6781849 12.2538764,10.4105546 M13.99965,6.64739496 C14.7360368,7.19354622 15.1035368,7.9367395 15.1035368,8.87757983 C15.1035368,9.55139496 14.9181028,10.1294118 14.5478292,10.6114286 C14.1767632,11.0934454 13.6662255,11.4157311 13.0160179,11.5782857 C13.8140179,11.7293445 14.4392632,12.0776471 14.8895745,12.623395 C15.340084,13.1697479 15.5657349,13.8494118 15.5657349,14.6621849 C15.5657349,15.7074958 15.1695085,16.5291429 14.3764613,17.1277311 C13.5834142,17.7257143 12.5021123,18.0248067 11.13315,18.0248067 L5.65611226,18.0248067 L5.65611226,5.82857143 L10.9796123,5.82857143 C12.2572443,5.82857143 13.2642538,6.10164706 13.99965,6.64739496" id="Fill-3" fill="#485A5A"></path>
                    </g>
                </g>
            </g>
        </g>
    </g>
</svg>