<?xml version="1.0" encoding="UTF-8"?>
<svg width="188px" height="45px" viewBox="0 0 188 45" version="1.1" xmlns="http://www.w3.org/2000/svg" xmlns:xlink="http://www.w3.org/1999/xlink">
    <!-- Generator: Sketch 52.3 (67297) - http://www.bohemiancoding.com/sketch -->
    <title>Leaf Top</title>
    <desc>Created with Sketch.</desc>
    <g id="High---UserFlow----SANDRA" stroke="none" stroke-width="1" fill="none" fill-rule="evenodd" opacity="0.2">
        <g id="Sing-Up-1" transform="translate(-26.000000, -53.000000)" fill="#C1DEE2">
            <path d="M203.317346,75.2093213 C205.337115,75.216472 207.278493,75.918772 209.012322,76.8842613 C211.830477,78.4562443 212.674819,82.6361836 208.668711,83.5073519 C204.378477,84.4398059 200.704007,79.1653539 198.717458,76.1231448 C198.938221,76.4119358 202.632606,75.2068027 203.317346,75.2093213 Z M191.045028,84.7056782 C193.003,85.910185 195.670044,88.0169883 195.573753,90.6724564 C195.493964,92.8754595 193.65651,94.2913328 191.574155,94.0269458 C189.094908,93.71187 187.396101,91.1147763 186.234691,89.099853 C185.709424,88.1883377 182.904872,83.3211873 184.386229,83.8911145 C184.297777,83.8290372 184.102604,83.7068766 183.872151,83.5915777 C183.444489,83.7465997 183.014611,83.8956415 182.58327,84.0390707 C182.586488,84.0771851 182.585839,84.1120906 182.590437,84.1520095 C182.582244,84.1110866 182.581535,84.0787189 182.576101,84.041405 C178.262841,85.4721905 173.797497,86.3119642 169.215227,86.5074679 C170.040851,87.0696877 170.81372,87.7108428 171.470354,88.4520757 C173.415282,90.6468008 175.073349,97.0033548 170.121854,96.5327721 C165.37473,96.081107 165.814176,89.780682 164.246351,86.5375165 C158.454348,86.4450609 152.622705,85.9469068 146.811071,85.2104683 C146.887898,85.4552191 146.881705,85.7226718 146.752969,85.9654395 C148.303669,86.8190277 150.171213,87.5285895 151.257778,88.5677767 C152.825184,90.0676844 155.517195,93.5164914 154.902498,95.9364199 C154.146957,98.9124611 151.421001,98.249995 149.736636,96.5761284 C147.29414,94.149082 146.106768,89.5351412 145.155195,86.1999544 C144.890969,85.9295145 144.747638,85.5305735 144.848829,85.158689 C144.826905,85.0856251 144.804689,85.0127949 144.783037,84.9419357 C138.960242,84.1514454 133.167216,83.1502333 127.463689,82.116302 C127.490588,82.1514898 127.517779,82.186444 127.545828,82.2231356 C128.728383,82.7110292 129.853374,83.3369115 130.811296,84.202267 C133.030263,86.2019028 134.974737,89.0309797 134.625698,92.190491 C134.278687,95.3372435 131.811282,98.127931 128.543568,97.4650682 C122.002684,96.1383709 126.547776,84.0454123 125.513974,81.7566561 C119.753617,80.6804392 114.07748,79.24589 108.425131,77.7080724 C108.842185,78.0434308 109.233425,78.413447 109.583949,78.8343802 C112.442145,82.2613993 113.987493,93.9963734 106.604651,92.5607565 C100.171051,91.309675 104.255802,81.6184916 104.604423,76.6546957 C99.3097743,75.1828774 94.0216897,73.6777267 88.6905654,72.3517584 C90.4640144,73.885716 91.7814155,75.6516068 92.5731369,78.0891067 C93.3914425,80.6119319 94.1724366,85.0684567 90.5380442,85.701922 C86.8419513,86.3459088 85.3339634,81.4019402 84.7720572,78.6671143 C84.4654926,77.1755793 84.5097161,73.7141072 83.807307,71.2048068 C74.999225,69.3041112 66.1852232,68.5046686 57.177759,69.5684272 C51.5539096,70.2328703 46.0235339,71.6397413 40.7190442,73.6392343 C37.333298,74.9154383 31.4936568,76.835641 27.9799565,79.7987488 C34.4389487,73.0303385 45.1753575,69.2448992 53.7617674,67.2968389 C61.6572649,65.5052599 69.6854635,65.5319668 77.6314336,66.6051044 C80.1681845,63.0969632 78.3870794,50.1054815 85.3930467,53.6248579 C89.1063247,55.4987485 88.5373617,60.5435591 86.129694,63.2545802 C84.4750312,65.1173157 81.526145,66.1895008 79.1105204,66.816986 C81.5630124,67.1882975 84.0067656,67.6498918 86.4340887,68.1904747 C89.7887288,68.9374599 93.1227166,69.7745545 96.4475488,70.6489883 C97.2568957,64.712856 104.285835,54.6177408 109.122926,58.3433281 C116.259333,63.8494061 101.138067,69.551435 98.4039994,70.7659333 C98.2992041,70.6306949 98.2651802,70.4912531 98.2982701,70.3471382 C98.1065183,70.5438425 97.903981,70.7578768 97.7062299,70.9831037 C104.051575,72.6698427 110.370916,74.4674313 116.746153,76.016968 C116.757578,75.4586135 117.366104,74.1488562 117.587905,73.3028853 C118.087132,71.3945906 118.67128,69.4925888 119.591285,67.7500686 C121.045464,64.9969058 123.862273,61.3305219 127.272082,63.435594 C130.982967,65.7230764 128.017219,70.1908115 125.619334,71.9394038 C123.960757,73.1485117 122.053385,73.8133187 120.249614,74.7387909 C119.686948,75.0272833 117.588218,76.9656335 118.086075,75.541311 C117.744396,75.8359369 117.483504,76.0297306 117.284647,76.1468655 C118.432407,76.4227994 119.583282,76.6880127 120.73562,76.9452769 C120.795295,76.8525834 120.868367,76.7632376 120.969029,76.6828588 C121.661957,76.1295536 122.451256,76.6781586 122.59966,77.3525083 C124.138207,77.679161 125.681438,77.9885137 127.230793,78.2682748 C130.513808,78.8617685 133.871545,79.4445139 137.262036,79.9831855 C137.325549,79.2950897 137.940675,79.1109762 138.045468,78.4349614 C138.149843,77.760249 137.816366,76.8166719 137.845101,76.0904778 C137.91788,74.2635862 138.536598,72.3494781 139.322269,70.7234266 C140.621088,68.0376524 143.997068,63.3532575 147.364162,66.0799319 C150.836386,68.8892688 147.816599,73.7338579 145.312381,75.8642526 C144.827402,76.2771795 139.909751,79.1994356 138.014182,80.1003733 C144.304239,81.0853899 150.694144,81.9088251 156.918835,82.3435286 C156.246175,81.3433819 156.288159,77.11458 156.436266,76.159876 C156.797116,73.8307643 158.18547,69.5459145 161.393036,70.8840149 C164.24167,72.076216 164.099238,76.1575899 162.816251,78.4553662 C162.604806,78.8334367 160.032982,81.4721178 158.742563,82.4569939 C161.359343,82.6080037 163.943185,82.6894175 166.4707,82.6768051 C168.152763,82.6709115 169.828662,82.590994 171.496118,82.4451683 C171.473091,82.2097663 171.526019,81.935024 171.624449,81.6408996 C169.740993,77.6026422 172.048177,69.088201 176.860937,71.9725594 C179.151192,73.346667 178.787263,76.8725986 177.937687,78.9550639 C177.764072,79.3813888 176.417209,80.8336724 175.360503,81.9874272 C180.674642,81.1983225 185.892692,79.7681658 190.963148,77.8940389 C190.823161,77.5253626 190.873438,77.0924234 191.250106,76.7708272 C191.016738,74.3233782 190.874175,72.360887 191.899123,69.8032295 C192.535621,68.2144408 194.242297,64.9525916 196.418318,66.7283719 C199.249954,69.0393897 196.194696,73.9466898 194.235757,75.7017352 C194.008431,75.9055348 193.29128,76.4166724 192.628159,76.8764327 C192.710779,76.9678679 192.77929,77.0710532 192.830809,77.1834483 C195.929874,75.9637385 198.97044,74.5848993 201.940655,73.093688 C201.347232,71.1516932 209.24473,65.0968855 211.121127,65.3310304 C215.31974,65.8511382 212.739141,70.1803624 210.684422,71.461203 C208.261504,72.9711522 205.406646,73.3957757 202.64744,73.4437351 C202.354009,73.447015 202.390752,73.4796696 202.642512,73.2461884 C202.492294,73.3240015 202.359153,73.3489473 202.238177,73.3312444 C201.062298,74.2711562 199.900692,75.2950838 198.776946,76.0054469 C195.558705,78.0395514 192.190021,79.8934991 188.763969,81.5380135 C187.930714,81.9379565 187.090395,82.3144804 186.243994,82.6682536 C188.173536,83.1907604 190.290339,84.2418016 191.045028,84.7056782 Z M26,82.0240843 C26.6017462,81.0536312 27.3007003,80.1485639 28.0777749,79.3025006 C27.14123,80.0984948 26.4054453,80.9985713 26,82.0240843 Z" id="Leaf-Top" transform="translate(119.686786, 75.512984) scale(-1, 1) rotate(-180.000000) translate(-119.686786, -75.512984) "></path>
        </g>
    </g>
</svg>