<?xml version="1.0" encoding="UTF-8"?>
<svg width="237px" height="350px" viewBox="0 0 237 350" version="1.1" xmlns="http://www.w3.org/2000/svg" xmlns:xlink="http://www.w3.org/1999/xlink">
    <!-- Generator: Sketch 52.3 (67297) - http://www.bohemiancoding.com/sketch -->
    <title>Group 3</title>
    <desc>Created with Sketch.</desc>
    <defs>
        <rect id="path-1" x="0" y="0" width="108.352475" height="223.238566" rx="15.7649706"></rect>
        <filter x="-29.5%" y="-8.1%" width="149.8%" height="124.2%" filterUnits="objectBoundingBox" id="filter-2">
            <feOffset dx="-5" dy="9" in="SourceAlpha" result="shadowOffsetOuter1"></feOffset>
            <feGaussianBlur stdDeviation="7.5" in="shadowOffsetOuter1" result="shadowBlurOuter1"></feGaussianBlur>
            <feColorMatrix values="0 0 0 0 0   0 0 0 0 0   0 0 0 0 0  0 0 0 0.1 0" type="matrix" in="shadowBlurOuter1"></feColorMatrix>
        </filter>
        <rect id="path-3" x="0" y="0" width="137.706931" height="218.046972"></rect>
    </defs>
    <g id="High---UserFlow----SANDRA" stroke="none" stroke-width="1" fill="none" fill-rule="evenodd">
        <g id="On-2" transform="translate(-60.000000, -219.000000)">
            <g id="Group-3" transform="translate(79.000000, 219.000000)">
                <g id="Background" opacity="0.2" transform="translate(19.425743, 0.000000)">
                    <ellipse id="Oval" fill="#2C8B8C" cx="99.2871287" cy="126.761434" rx="99.2871287" ry="99.5055624"></ellipse>
                    <ellipse id="Oval" fill="#F0225B" cx="159.722772" cy="332.262052" rx="17.6990099" ry="17.7379481"></ellipse>
                    <polygon id="Polygon" fill="#F0225B" points="82.8831683 0 104.035644 21.1990111 82.8831683 42.3980222 61.7306931 21.1990111"></polygon>
                    <polygon id="Polygon" fill="#F0225B" points="24.1742574 298.516687 34.5346535 308.899876 24.1742574 319.283066 13.8138614 308.899876"></polygon>
                    <polygon id="Polygon" fill="#F0225B" points="173.968317 27.2558714 179.148515 32.447466 173.968317 37.6390606 168.788119 32.447466"></polygon>
                </g>
                <g id="Group-4" transform="translate(0.000000, 46.291718)">
                    <g id="Group" transform="translate(76.796919, 114.102963) rotate(-2.000000) translate(-76.796919, -114.102963) translate(3.842464, 2.483680)">
                        <g id="base">
                            <use fill="black" fill-opacity="1" filter="url(#filter-2)" xlink:href="#path-1"></use>
                            <use fill="#F2F2F2" fill-rule="evenodd" xlink:href="#path-1"></use>
                        </g>
                        <path d="M27.6277228,4.75896168 L27.6277228,6.51327228 C27.6277228,9.80249003 30.2941606,12.4689279 33.5833784,12.4689279 L74.753393,12.4689279 C78.0426107,12.4689279 80.7090486,9.80249003 80.7090486,6.51327228 L80.7090486,4.75896168 L92.7805996,4.75896168 C98.5851015,4.75896168 103.29058,9.4644402 103.29058,15.2689421 L103.29058,207.674863 C103.29058,213.479365 98.5851015,218.184844 92.7805996,218.184844 L15.2584953,218.184844 C9.45399337,218.184844 4.74851485,213.479365 4.74851485,207.674863 L4.74851485,15.2689421 C4.74851485,9.4644402 9.45399337,4.75896168 15.2584953,4.75896168 L27.6277228,4.75896168 Z" id="Screen" fill="#F0225B"></path>
                        <g id="Illustration" transform="translate(8.201980, 0.000000)">
                            <mask id="mask-4" fill="white">
                                <use xlink:href="#path-3"></use>
                            </mask>
                            <g id="Mask"></g>
                            <g id="Group-2" mask="url(#mask-4)">
                                <g transform="translate(36.897362, 125.395768) rotate(14.000000) translate(-36.897362, -125.395768) translate(-77.498678, -35.327347)">
                                    <g id="Head/Front/Long" transform="translate(163.329058, 59.380268) rotate(32.000000) translate(-163.329058, -59.380268) translate(113.118489, 20.951114)">
                                        <path d="M70.374428,34.1809073 C72.8739873,43.8755295 75.9430227,64.1244065 72.6595948,67.3631621 L51.400653,67.3631621 C51.4003369,67.3576179 51.4000217,67.3520758 51.3997074,67.3465357 L46.6853693,67.3465357 C41.5496986,67.3465357 37.3864149,63.183252 37.3864149,58.0475813 L37.3864149,29.2808935 C37.3864149,24.1452228 41.5496986,19.9819392 46.6853693,19.9819392 L61.0754737,19.9819392 C66.2111444,19.9819392 70.374428,24.1452228 70.374428,29.2808935 L70.374428,34.1809073 Z" id="Hair-Back" fill="#191847"></path>
                                        <g id="Head" stroke-width="1" transform="translate(39.585616, 22.942226)" fill="#D4A181">
                                            <path d="M6.05679999,25.5251709 C2.67889376,21.5223068 0.39265617,16.6167416 0.774687813,11.119915 C1.87542736,-4.71797308 23.713639,-1.23383949 27.9616233,6.75976637 C32.2096075,14.7533722 31.7048366,35.0298164 26.2146954,36.4584967 C24.0252347,37.0282525 19.3610323,35.6325791 14.6139625,32.7439641 L17.593607,54.0252429 L0,54.0252429 L6.05679999,25.5251709 Z"></path>
                                        </g>
                                        <path d="M50.3983274,45.791821 C51.2089364,54.5823986 50.8841822,64.6210472 48.4683851,67.0039764 L27.2094433,67.0039764 C26.0249583,46.2274649 37.4723807,54.2730602 37.4723807,34.7114351 C38.1860831,34.007443 38.8604741,33.3106515 39.5277899,32.7097382 L39.5041552,32.1344368 C43.1853783,24.5261529 47.8556358,20.722011 53.5149277,20.722011 C62.0038656,20.722011 64.6833253,24.7097564 66.9646997,28.09541 C65.2587368,34.0049498 58.6383414,34.8812033 52.7557066,38.5647813 C52.0623083,37.9960305 51.178128,37.6551599 50.2150867,37.6551599 C47.9883473,37.6551599 46.1832184,39.4775379 46.1832184,41.725555 C46.1832184,43.973572 47.9883473,45.79595 50.2150867,45.79595 C50.2764973,45.79595 50.3375872,45.7945639 50.3983274,45.791821 Z" id="Hair-Front" fill="#191847"></path>
                                    </g>
                                    <g id="Bottom/Skinny-Jeans-1" stroke-width="1" transform="translate(0.235913, 140.293330)">
                                        <path d="M72.3360179,76.5145141 C90.0444321,81.4822415 105.322717,83.9661052 118.170872,83.9661052 C131.019026,83.9661052 142.952987,80.140999 153.972752,72.4907868 C136.643458,67.3918668 122.372013,64.8424068 111.158416,64.8424068 C99.9448188,64.8424068 87.0040195,68.7331092 72.3360179,76.5145141 Z" id="Skirt-Shadow" fill="#CCBD85"></path>
                                        <path d="M133.500734,91.1265131 C133.329983,90.8690576 133.185783,90.5889976 133.071407,90.2856264 C130.704369,84.0072981 92.7902423,16.2766685 89.0130693,3.89369592 L131.699027,3.89369592 C134.570865,13.3086449 147.496728,72.3919379 149.315823,84.1799257 C155.0554,102.7742 166.872617,162.994266 168.381182,167.166128 C169.968166,171.554856 161.03873,176.126776 158.659246,170.731379 C154.873084,162.146391 145.851794,138.391885 141.834988,123.887549 C138.06924,110.289765 135.002916,98.0564432 133.500734,91.1265131 Z" id="Leg" fill="#D4A181"></path>
                                        <path d="M98.5776902,99.3958303 C81.2439749,103.789797 17.8408995,111.733311 13.4899027,112.979231 C9.01408458,114.260894 5.08964849,105.007921 10.6220015,103.00357 C19.4249091,99.8143088 43.6809042,92.4453853 58.3874017,89.4382731 C70.2164178,87.0195342 81.0105401,85.0458464 88.2574295,83.8900766 C87.6434898,63.4732842 84.8370148,14.4761136 86.6765045,3.89369592 L124.445624,3.89369592 C122.681677,14.0415229 107.770261,88.086127 104.998761,95.4977826 C104.119223,98.1437933 101.494865,99.3131348 98.5776902,99.3958303 Z" id="Leg" fill="#D4A181"></path>
                                        <g id="Accessories/Shoe/Flat-Sneaker" transform="translate(153.972752, 151.226009)" fill="#E4E4E4">
                                            <path d="M2.25559028,18.7208251 C1.25091285,21.3372642 0.748574144,23.265229 0.748574144,24.5047197 C0.748574144,25.8810816 0.973456451,27.889536 1.42322106,30.5300828 C2.98919218,30.5300828 17.0628383,30.5300828 43.6441594,30.5300828 C44.7413319,26.8317504 44.1079803,24.8351398 41.7441046,24.5402508 C39.3802288,24.2453619 37.4165171,23.9791009 35.8529694,23.7414676 L15.9365169,14.6885186 C15.7190592,14.589674 15.4626455,14.685829 15.3638009,14.9032867 C15.3612709,14.9088527 15.3588592,14.9144718 15.3565674,14.92014 L13.9707988,18.3475837 C11.7824681,19.3886268 10.0042223,19.9091484 8.63606121,19.9091484 C7.41597659,19.9091484 5.68566122,19.3577005 3.4451151,18.2548048 L3.44509984,18.2548358 C3.01649471,18.0438575 2.49800985,18.2202788 2.28703149,18.6488839 C2.27546762,18.6723761 2.26497641,18.6963812 2.25559028,18.7208251 Z" id="shoe"></path>
                                        </g>
                                        <path d="M86.7985347,3.89369592 C103.44212,-0.882195062 119.189922,-0.882195062 134.041941,3.89369592 C139.209188,27.5390278 151.764817,36.9238784 153.972752,73.1761057 C128.874693,85.6836554 97.8712079,64.2558607 72.0349703,76.4532393 C64.6531881,59.3921547 74.9876832,18.3045124 86.7985347,3.89369592 Z" id="Skirt" fill="#F6D86C"></path>
                                    </g>
                                    <g id="Body/Long-Sleeve-1" stroke-width="1" transform="translate(132.402658, 146.448511) rotate(21.000000) translate(-132.402658, -146.448511) translate(54.915529, 79.390415)">
                                        <path d="M118.242967,65.8635142 L139.160028,86.2864097 C145.246122,88.8846719 150.232809,91.7536782 154.120089,94.8934283 C154.99428,95.9488052 155.94598,97.9709618 151.832954,97.0660757 C147.719928,96.1611895 143.352981,95.3945213 142.579946,96.7332514 C141.80691,98.0719815 144.084723,100.123392 142.656057,101.875445 C141.703613,103.04348 138.50047,99.3281882 133.046627,90.7295685 L111.295649,77.8947625 L118.242967,65.8635142 Z M25.4003162,68.7437645 L40.8307562,68.8044971 C31.3031715,99.5874823 26.1596914,115.920741 25.4003162,117.804274 C23.6917218,122.042224 27.3073373,128.496547 28.853518,131.965052 C23.8176589,134.220376 24.3542351,125.867991 18.0016344,128.825974 C12.2032751,131.525884 7.79247764,136.41794 1.09331129,132.280814 C0.269688151,131.772178 -0.632868623,129.857074 1.54782265,128.360522 C6.98071986,124.632064 14.8098539,118.10659 15.8676932,115.95868 C17.3102461,113.029621 20.4877871,97.2913159 25.4003162,68.7437645 Z" id="Skin" fill="#B28B67"></path>
                                        <path d="M65.056424,6.82027106 L71.3215518,5.17186232 C84.6679679,31.5935944 105.963797,54.7989164 135.20904,74.7878284 L116.782751,101.664469 C86.7109047,72.190743 67.0168592,40.7905271 65.056424,6.82027106 Z" id="Coat-Back" fill="#2C8B8C" transform="translate(100.132732, 53.418166) rotate(5.000000) translate(-100.132732, -53.418166) "></path>
                                        <path d="M41.4175407,84.2485304 L98.2736258,84.2485304 C85.1013775,52.1935512 78.5152533,24.9632265 78.5152533,2.55755651 L61.3645811,0 C47.8857643,21.6965143 44.079311,48.4093164 41.4175407,84.2485304 Z" id="Shirt" fill="#DDE3E9"></path>
                                        <path d="M61.0014603,0.0121346461 C61.0037121,0.0080890608 61.0059636,0.00404417871 61.008215,1.86936142e-14 L62.1277405,-1.34816199e-18 C63.4673495,0.046169034 65.5077461,0.129351716 68.2489302,0.249548045 L72.393148,12.1028779 C72.8315144,26.5548581 75.3915073,55.6794977 80.0731267,99.4767968 L42.8028219,99.4767968 C42.9005257,102.501696 43.0616237,105.554851 43.2861157,108.636263 L15.5738656,108.636263 C19.7191294,61.829526 34.8571144,25.6174383 60.9878207,5.68434189e-14 L61.0014603,0.0121346414 Z" id="Coat-Front" fill="#2C8B8C"></path>
                                        <path d="M45.2647262,60.7720871 C46.3254342,79.628084 48.9811229,92.6267205 53.2317921,99.7679966 L42.8124205,99.7679966 C42.3562642,86.2016586 43.1736996,73.2030373 45.2647254,60.7720923 Z" id="Shade" fill-opacity="0.1" fill="#000000"></path>
                                        <polygon id="Light" fill-opacity="0.2" fill="#FFFFFF" points="51.0985067 76.8583085 69.4763879 68.3072835 69.4763879 76.8583085"></polygon>
                                    </g>
                                </g>
                            </g>
                        </g>
                    </g>
                    <g id="Group" transform="translate(140.944554, 161.155748) scale(-1, 1) translate(-140.944554, -161.155748) translate(75.112871, 65.327565)">
                        <g id="Head/Front/Pony" transform="translate(46.950996, 33.535156) rotate(-27.000000) translate(-46.950996, -33.535156) translate(17.596540, 11.038247)">
                            <g id="Head" stroke-width="1" transform="translate(23.355513, 13.407795)" fill="#B28B67">
                                <path d="M3.57351199,14.9173077 C1.58054732,12.5779715 0.23166714,9.71108278 0.45706581,6.49865163 C1.10650214,-2.757257 13.991047,-0.721075029 16.4973577,3.95051281 C19.0036685,8.62210065 18.7058536,20.4719706 15.4666703,21.3069137 C14.1748888,21.6398877 11.4230106,20.824235 8.62224021,19.1360843 L10.3802281,31.5731939 L0,31.5731939 L3.57351199,14.9173077 Z"></path>
                            </g>
                            <path d="M30.5216429,27.6742628 C29.2344522,30.145038 27.4541934,32.0057034 25.6756406,32.0057034 C22.2974319,32.0057034 19.8954373,27.4891275 19.8954373,22.6330359 C19.8954373,22.4624182 19.8988179,22.2929356 19.9054882,22.1247188 C16.3319458,24.5769659 13.5778607,29.4106464 8.84946692,29.4106464 C2.41652972,29.4106464 -0.138257827,16.4353612 8.84946692,16.4353612 C14.9618026,16.4353612 17.9684241,17.3265389 20.5595444,18.6443805 C21.0705976,17.2036434 21.8498696,15.9923368 22.8027644,15.1464402 C23.0320036,14.8883846 23.3834529,14.6414859 23.8368617,14.4125982 C24.114058,14.2609383 24.4009071,14.1374173 24.6957197,14.0444633 C26.2583895,13.4702002 28.5218196,13.0651561 31.0501182,12.976866 C31.5222323,12.9603794 31.9859036,12.955555 32.438234,12.9616325 C32.4455957,10.579227 34.3791765,8.65019011 36.763308,8.65019011 C39.151992,8.65019011 41.088403,10.5866011 41.088403,12.9752852 C41.088403,15.285358 39.2773487,17.1724364 36.9976192,17.2941414 C35.6934992,17.6965386 34.0179382,17.9919866 32.1597582,18.1165755 C32.3401685,18.7950268 32.4382129,19.565773 32.4382129,20.4367498 C32.4382129,21.2058135 32.3533285,22.0214474 32.1970274,22.8496117 C31.7940103,22.3705817 31.2551278,22.0579848 30.7081749,22.0579848 C29.1781439,22.0579848 28.1131179,23.316652 28.1131179,24.6530418 C28.1131179,26.3491298 29.0922712,27.5761254 30.5216429,27.6742628 Z" id="hair" fill="#191847"></path>
                        </g>
                        <g id="Bottom/Standing/Baggy-Pants" transform="translate(2.158416, 88.257108)">
                            <polygon id="Leg" fill="#997659" points="57.9562738 0 79.1845494 53.7293191 93.4224417 99.1529295 99.0446768 99.1529295 77.2780684 2.20163731e-13"></polygon>
                            <path d="M53.6816214,0 C53.4555706,18.8808516 50.1589201,44.3008538 49.6322264,45.47779 C49.2810973,46.2624141 37.1595547,56.2402772 13.2675987,75.4113793 L17.13995,79.555252 C45.3302448,63.1184371 60.0776462,53.8038967 61.3821544,51.6116307 C63.3389166,48.3232318 69.7094601,18.0629537 74.8241445,0 L53.6816214,0 Z" id="Leg" fill="#B28B67"></path>
                            <g id="Accessories/Shoe/Flat-Sneaker" transform="translate(22.274240, 81.744297) rotate(50.000000) translate(-22.274240, -81.744297) translate(9.082700, 73.094106)" fill="#E4E4E4">
                                <path d="M1.1583167,10.9865757 C0.674445237,12.2782586 0.432509506,13.2447359 0.432509506,13.8860078 C0.432509506,14.6659462 0.562441505,15.8040704 0.822305503,17.3003802 C1.72708881,17.3003802 9.85852879,17.3003802 25.2166254,17.3003802 C25.8505473,15.2046586 25.4846108,14.0732459 24.118816,13.9061421 C22.7530211,13.7390384 21.6184321,13.5881572 20.715049,13.4534983 L9.3768029,8.39885169 C9.1586325,8.30159023 8.90292446,8.3996063 8.80566301,8.61777671 C8.80399913,8.621509 8.80238824,8.62526468 8.8008308,8.62904263 L8.07201707,10.3969641 C6.80764825,10.9868885 5.78021731,11.2818507 4.98972426,11.2818507 C4.34747225,11.2818507 3.46051862,11.0224678 2.32886339,10.5037018 L2.32887799,10.5036699 C1.89457984,10.3045818 1.38111883,10.4952572 1.18203073,10.9295554 C1.17344992,10.9482739 1.16554021,10.9672928 1.1583167,10.9865757 Z" id="shoe"></path>
                            </g>
                            <g id="Accessories/Shoe/Flat-Sneaker" transform="translate(89.961977, 86.069392)" fill="#E4E4E4">
                                <path d="M1.1583167,10.9865757 C0.674445237,12.2782586 0.432509506,13.2447359 0.432509506,13.8860078 C0.432509506,14.6659462 0.562441505,15.8040704 0.822305503,17.3003802 C1.72708881,17.3003802 9.85852879,17.3003802 25.2166254,17.3003802 C25.8505473,15.2046586 25.4846108,14.0732459 24.118816,13.9061421 C22.7530211,13.7390384 21.6184321,13.5881572 20.715049,13.4534983 L9.3768029,8.39885169 C9.1586325,8.30159023 8.90292446,8.3996063 8.80566301,8.61777671 C8.80399913,8.621509 8.80238824,8.62526468 8.8008308,8.62904263 L8.07201707,10.3969641 C6.80764825,10.9868885 5.78021731,11.2818507 4.98972426,11.2818507 C4.34747225,11.2818507 3.46051862,11.0224678 2.32886339,10.5037018 L2.32887799,10.5036699 C1.89457984,10.3045818 1.38111883,10.4952572 1.18203073,10.9295554 C1.17344992,10.9482739 1.16554021,10.9672928 1.1583167,10.9865757 Z" id="shoe"></path>
                            </g>
                            <polygon id="Pant" fill="#69A1AC" points="72.2290875 94.4743009 98.9601058 91.5732166 79.1492395 2.84217094e-14 55.207275 2.84217094e-14"></polygon>
                            <path d="M18.796845,68.7259677 L36.3307985,89.4801445 C54.7989339,69.3096314 65.5659051,56.148368 68.631712,49.9963543 C71.697519,43.8443405 74.4535234,27.1788891 76.8997252,0 L49.9453958,0 C48.6091562,23.9108011 47.7084377,36.4225449 47.2432403,37.5352315 C46.7780429,38.6479181 37.2959111,49.0448302 18.796845,68.7259677 Z" id="Pant" fill="#89C5CC"></path>
                        </g>
                        <g id="Body/Long-Sleeve-1" transform="translate(62.092996, 80.793143) rotate(-14.000000) translate(-62.092996, -80.793143) translate(7.269234, 44.668298)">
                            <path d="M84.609901,33.5797042 L100.251754,26.6952545 C102.991842,23.9587858 105.637787,21.8789431 108.18959,20.4557263 C108.952627,20.2122661 110.256241,20.1387139 108.865387,22.1746711 C107.474533,24.2106283 106.102927,26.4148392 106.658675,27.128373 C107.214424,27.8419067 108.824307,27.0543597 109.460323,28.2147055 C109.884333,28.9882694 107.17065,29.9136133 101.319274,30.9907374 L89.6044494,39.9922749 L84.609901,33.5797042 Z M21.3718924,35.4758962 L30.2178218,37.2349142 C21.3217306,53.8502727 16.5509167,62.6564223 15.9053801,63.6533631 C14.4529227,65.89648 15.8080949,70.0074579 16.3086898,72.1723271 C13.1682379,72.9049653 14.4067357,68.1678019 10.4325546,69.1568786 C6.80510635,70.0596618 3.72946767,72.3765254 0.347020776,69.2518652 C-0.0688311939,68.8677065 -0.373254498,67.6669355 1.04459552,67.0510658 C4.57697698,65.5167097 9.79577307,62.6436589 10.6420013,61.5282247 C11.7959847,60.0071309 15.372615,51.3230214 21.3718924,35.4758962 Z" id="Skin" fill="#B28B67"></path>
                            <path d="M52.3504618,4.26895833 L56.0131498,3.30439628 C64.8015458,10.4699513 69.7618648,29.0982871 75.3786747,31.1300937 C80.6891411,33.0510847 87.7230683,30.1271868 96.0516155,26.2814475 L99.2009652,31.947849 C92.1289342,41.1028823 76.1100221,49.71622 69.005601,46.2206599 C57.6471085,40.6319859 53.1155927,17.5179309 52.3504618,4.26895833 Z" id="Coat-Back" fill="#DE5F44" transform="translate(75.775714, 25.160423) rotate(5.000000) translate(-75.775714, -25.160423) "></path>
                            <path d="M37.9881188,49.3201483 C52.9553322,49.3201483 63.9649007,49.3201483 71.0168243,49.3201483 C72.5260677,49.3201483 72.2416795,47.1360606 72.0235093,46.0339579 C69.5055606,33.3143612 59.6764442,19.6032514 59.6764442,1.49722572 L50.1494107,0 C42.2693301,12.7014121 39.5442617,28.3394221 37.9881188,49.3201483 Z" id="Shirt" fill="#DDE3E9"></path>
                            <path d="M34.6938391,36.4420379 C27.9607153,48.6140185 22.3011604,57.3772617 17.7151744,62.7317676 L10.7920792,61.3727899 C15.2516222,33.6548025 28.1658636,13.1972059 49.5348033,-3.99229958e-14 L49.6435644,-4.36896608e-14 L53.3069995,0 C61.859733,29.2187042 64.2175702,48.6871838 60.3805112,58.4054388 L30.649505,58.4054388 C31.1198791,51.2944472 32.6280799,43.774314 34.6938391,36.4420379 Z" id="Coat-Front" fill="#F36749"></path>
                        </g>
                    </g>
                </g>
            </g>
        </g>
    </g>
</svg>