<?xml version="1.0" encoding="utf-8"?>
<!-- Generator: Adobe Illustrator 22.1.0, SVG Export Plug-In . SVG Version: 6.00 Build 0)  -->
<svg version="1.1" id="Layer_1" xmlns="http://www.w3.org/2000/svg" xmlns:xlink="http://www.w3.org/1999/xlink" x="0px" y="0px"
	 viewBox="0 0 26 26" style="enable-background:new 0 0 26 26;" xml:space="preserve">
<style type="text/css">
	.st0{fill:#F0225B;}
</style>
<g id="High---UserFlow----SANDRA">
	<g id="Chat-_-Talk_-Social-Buddy" transform="translate(-327.000000, -693.000000)">
		<g id="Toolbar" transform="translate(-1.000000, 684.000000)">
			<g id="Message-Entry-Field---Active" transform="translate(17.000000, 5.000000)">
				<path id="Send-Message-Button" class="st0" d="M324,30c-7.2,0-13-5.8-13-13s5.8-13,13-13s13,5.8,13,13S331.2,30,324,30z
					 M329,17.6c0.2,0,0.4-0.1,0.6-0.2c0.5-0.4,0.5-1.1,0.1-1.5l-5.1-5.6c-0.3-0.3-0.8-0.3-1.1,0l-5.2,5.7c-0.4,0.4-0.3,1.2,0.2,1.5
					c0.4,0.3,1,0.2,1.3-0.2l3.2-3.5v9.2c0,0.6,0.4,1,1,1c0.6,0,1-0.5,1-1v-9.2l3.3,3.6C328.5,17.5,328.7,17.6,329,17.6z"/>
			</g>
		</g>
	</g>
</g>
</svg>
