<?xml version="1.0" encoding="UTF-8"?>
<svg width="17px" height="16px" viewBox="0 0 17 16" version="1.1" xmlns="http://www.w3.org/2000/svg" xmlns:xlink="http://www.w3.org/1999/xlink">
    <!-- Generator: Sketch 52.3 (67297) - http://www.bohemiancoding.com/sketch -->
    <title>Shape</title>
    <desc>Created with Sketch.</desc>
    <g id="High---UserFlow----SANDRA" stroke="none" stroke-width="1" fill="none" fill-rule="evenodd">
        <g id="17_Places-_Restaurantes-" transform="translate(-337.000000, -242.000000)" fill="#524347" fill-rule="nonzero">
            <g id="Res-1-" transform="translate(16.000000, 212.000000)">
                <g id="Corazon-" transform="translate(321.000000, 30.000000)">
                    <path d="M12.155,0.193103448 C10.5683333,0.193103448 9.20833333,0.993103448 8.415,1.6 C7.76333333,1.02068966 6.63,0.248275862 5.15666667,0.248275862 C3.91,0.248275862 2.72,0.827586207 1.615,1.93103448 C-1.89833333,5.48965517 2.35166667,9.76551724 4.165,11.6137931 C4.39166667,11.8344828 4.56166667,12.0275862 4.70333333,12.1655172 C5.75166667,13.2965517 6.99833333,14.7034483 7.67833333,15.4482759 L7.70666667,15.5034483 C7.87666667,15.6965517 8.10333333,15.7793103 8.33,15.7793103 C8.35833333,15.7793103 8.38666667,15.7793103 8.38666667,15.7793103 C8.64166667,15.7517241 8.89666667,15.6137931 9.03833333,15.3931034 C9.03833333,15.3655172 10.115,13.737931 11.985,12.2482759 C13.3166667,11.2 16.4333333,8.3862069 16.7166667,5.32413793 C16.83,4.05517241 16.4616667,2.89655172 15.6116667,1.90344828 C14.6483333,0.772413793 13.4866667,0.193103448 12.155,0.193103448 Z M11.4466667,11.6413793 C9.49166667,13.1862069 8.38666667,14.8965517 8.33,14.9793103 C8.245,14.8689655 6.60166667,13.0206897 5.32666667,11.6413793 C4.05166667,10.2344828 -1.105,5.87586207 2.23833333,2.53793103 C3.28666667,1.46206897 4.30666667,1.10344828 5.185,1.10344828 C7.08333333,1.10344828 8.33,2.67586207 8.38666667,2.75862069 C8.47166667,2.67586207 10.1433333,1.02068966 12.1833333,1.02068966 C13.1183333,1.02068966 14.11,1.37931034 14.9883333,2.42758621 C17.8216667,5.79310345 13.3733333,10.0689655 11.4466667,11.6413793 Z" id="Shape"></path>
                </g>
            </g>
        </g>
    </g>
</svg>