<?xml version="1.0" encoding="UTF-8"?>
<svg width="24px" height="24px" viewBox="0 0 24 24" version="1.1" xmlns="http://www.w3.org/2000/svg" xmlns:xlink="http://www.w3.org/1999/xlink">
    <!-- Generator: Sketch 52.3 (67297) - http://www.bohemiancoding.com/sketch -->
    <title>Boton - edit foto </title>
    <desc>Created with Sketch.</desc>
    <g id="High---UserFlow----SANDRA" stroke="none" stroke-width="1" fill="none" fill-rule="evenodd">
        <g id="04--Perfil-Usuario_-edit-" transform="translate(-176.000000, -211.000000)">
            <g id="edit-photo" transform="translate(136.000000, 124.000000)">
                <g id="Boton---edit-foto-" transform="translate(40.000000, 87.000000)">
                    <circle id="Oval" fill="#E6E9E9" cx="12" cy="12" r="12"></circle>
                    <g id="Photo" transform="translate(5.000000, 5.000000)" fill="#485A5A" fill-rule="nonzero">
                        <path d="M2.30769231,13.6384615 C1.03846154,13.6384615 0,12.6 0,11.3307692 L0,5.56153846 C0,4.29230769 1.03846154,3.25384615 2.30769231,3.25384615 L11.5384615,3.25384615 L11.5384615,3.57692308 L11.5384615,3.9 L2.30769231,3.9 C1.38461538,3.9 0.646153846,4.66153846 0.623076923,5.56153846 L0.623076923,11.3307692 C0.623076923,12.2538462 1.38461538,12.9923077 2.30769231,12.9923077 L11.5384615,12.9923077 C12.4615385,12.9923077 13.2,12.2307692 13.2230769,11.3307692 L13.2230769,5.56153846 C13.2230769,4.63846154 12.4615385,3.9 11.5384615,3.9 L11.5384615,3.57692308 L11.5384615,3.25384615 C12.8076923,3.25384615 13.8461538,4.29230769 13.8461538,5.56153846 L13.8461538,11.3307692 C13.8461538,12.6 12.8076923,13.6384615 11.5384615,13.6384615 L2.30769231,13.6384615 Z M5.14615385,8.63076923 C5.14615385,6.73846154 6.66923077,5.21538462 8.56153846,5.21538462 C10.4538462,5.21538462 11.9769231,6.73846154 11.9769231,8.63076923 C11.9769231,10.5230769 10.4538462,12.0461538 8.56153846,12.0461538 L8.56153846,11.7230769 L8.56153846,11.4 C10.1076923,11.4 11.3307692,10.1538462 11.3307692,8.63076923 C11.3307692,7.08461538 10.0846154,5.86153846 8.56153846,5.86153846 C7.01538462,5.86153846 5.79230769,7.10769231 5.79230769,8.63076923 C5.79230769,10.1769231 7.03846154,11.4 8.56153846,11.4 L8.56153846,11.7230769 L8.56153846,12.0461538 C6.66923077,12.0461538 5.14615385,10.5230769 5.14615385,8.63076923 Z M1.91538462,6.11538462 L1.91538462,4.52307692 L5.14615385,4.52307692 L5.14615385,5.81538462 L5.14615385,6.13846154 L1.91538462,6.13846154 L1.91538462,6.11538462 Z M4.84615385,5.79230769 L4.84615385,5.46923077 L4.84615385,5.79230769 Z M2.56153846,5.46923077 L4.52307692,5.46923077 L4.52307692,5.14615385 L2.56153846,5.14615385 L2.56153846,5.46923077 Z M4.61538462,2.7 L4.61538462,0.207692308 L8.93076923,0.207692308 L8.93076923,0.530769231 L8.93076923,0.207692308 L9.23076923,0.207692308 L9.23076923,2.7 L4.61538462,2.7 Z M5.26153846,2.07692308 L8.60769231,2.07692308 L8.60769231,0.853846154 L5.26153846,0.853846154 L5.26153846,2.07692308 Z" id="Shape"></path>
                    </g>
                </g>
            </g>
        </g>
    </g>
</svg>