<?xml version="1.0" encoding="UTF-8"?>
<svg width="56px" height="56px" viewBox="0 0 56 56" version="1.1" xmlns="http://www.w3.org/2000/svg" xmlns:xlink="http://www.w3.org/1999/xlink">
    <!-- Generator: Sketch 52.3 (67297) - http://www.bohemiancoding.com/sketch -->
    <title>Restaurants 1 </title>
    <desc>Created with Sketch.</desc>
    <g id="High---UserFlow----SANDRA" stroke="none" stroke-width="1" fill="none" fill-rule="evenodd">
        <g id="17_Places-_Restaurantes-" transform="translate(-16.000000, -222.000000)">
            <g id="Res-1-" transform="translate(16.000000, 212.000000)">
                <g id="Restaurants-1-" transform="translate(0.000000, 10.000000)">
                    <circle id="Oval" fill="#E6E9E9" cx="28" cy="28" r="28"></circle>
                    <path d="M28.3348214,16.58125 C21.8392857,16.58125 16.6160714,21.8565789 16.6160714,28.2671053 C16.6160714,34.7444079 21.90625,39.9529605 28.3348214,39.9529605 C34.8303571,40.0197368 40.0535714,34.7444079 40.0535714,28.2671053 C40.0535714,21.7898026 34.8303571,16.58125 28.3348214,16.58125 Z M28.3348214,38.5506579 C22.6428571,38.5506579 18.0892857,33.9430921 18.0223214,28.2671053 C18.0223214,22.5911184 22.6428571,17.9835526 28.3348214,17.9835526 C34.0267857,17.9835526 38.5803571,22.5911184 38.6473214,28.2671053 C38.5803571,33.9430921 34.0267857,38.5506579 28.3348214,38.5506579 Z M13.8705357,23.8598684 C13.8705357,24.7279605 13.6026786,25.4625 13.2008929,25.9299342 C13,26.1970395 12.7991071,26.3973684 12.53125,26.5309211 L12.53125,16.7815789 L11.0580357,16.7815789 L11.0580357,26.5309211 C10.7901786,26.3973684 10.5892857,26.1970395 10.3883929,25.9299342 C9.98660714,25.3957237 9.71875,24.6611842 9.71875,23.8598684 L9.71875,16.7815789 L8.3125,16.7815789 L8.3125,23.8598684 C8.3125,25.8631579 9.45089286,27.6661184 11.125,28.0667763 L11.125,40.6875 L12.5982143,40.6875 L12.5982143,28.0667763 C14.2723214,27.6661184 15.4107143,25.8631579 15.4107143,23.8598684 L15.4107143,16.7815789 L13.8705357,16.7815789 L13.8705357,23.8598684 Z M44.4732143,16.3809211 L43.2678571,15.3125 L43.2678571,39.9529605 L44.7410714,39.9529605 L44.7410714,33.075 C46.6160714,31.2720395 47.6875,28.2671053 47.6875,24.8615132 C47.6875,21.2555921 46.4821429,18.1171053 44.4732143,16.3809211 Z M44.7410714,18.9184211 C45.6785714,20.3875 46.28125,22.5243421 46.28125,24.7947368 C46.28125,27.1319079 45.6785714,29.2019737 44.7410714,30.6710526 L44.7410714,18.9184211 Z" id="Shape" fill="#F0225B" fill-rule="nonzero"></path>
                </g>
            </g>
        </g>
    </g>
</svg>