<?xml version="1.0" encoding="UTF-8"?>
<svg width="24px" height="24px" viewBox="0 0 24 24" version="1.1" xmlns="http://www.w3.org/2000/svg" xmlns:xlink="http://www.w3.org/1999/xlink">
    <!-- Generator: Sketch 52.3 (67297) - http://www.bohemiancoding.com/sketch -->
    <title>SETTINGS</title>
    <desc>Created with Sketch.</desc>
    <g id="High---UserFlow----SANDRA" stroke="none" stroke-width="1" fill="none" fill-rule="evenodd">
        <g id="01---Profile-" transform="translate(-286.000000, -305.000000)">
            <g id="Nombre---info---settings" transform="translate(60.000000, 133.000000)">
                <g id="Setting-" transform="translate(200.000000, 172.000000)">
                    <g id="SETTINGS" transform="translate(26.000000, 0.000000)">
                        <circle id="Oval" fill="#E6E9E9" cx="12" cy="12" r="12"></circle>
                        <g id="Iconos--19" transform="translate(4.000000, 4.000000)" fill="#859191">
                            <g id="Group" fill-rule="nonzero">
                                <path d="M8.10666667,15.9733333 C8.08,15.9733333 8.05333333,15.9733333 8,15.9733333 C7.46666667,15.9733333 6.93333333,15.92 6.4,15.8133333 L6.10666667,15.76 L5.89333333,13.8933333 C5.84,13.8666667 5.78666667,13.84 5.73333333,13.84 L4.37333333,15.12 L4.10666667,14.96 C3.86666667,14.8266667 3.62666667,14.6666667 3.38666667,14.5066667 C3.14666667,14.3466667 2.90666667,14.16 2.69333333,13.9466667 L2.50666667,13.76 L3.25333333,12.0266667 C3.2,11.9733333 3.17333333,11.92 3.12,11.8666667 L1.30666667,12.32 L1.14666667,12.0533333 C0.853333333,11.5466667 0.613333333,11.04 0.426666667,10.48 L0.346666667,10.24 L1.86666667,9.12 C1.84,9.04 1.84,8.96 1.84,8.88 L0.0533333333,8.34666667 L0,8.13333333 C0,8.08 0,8.05333333 0,8.05333333 C0,7.49333333 0.0533333333,6.93333333 0.16,6.4 L0.213333333,6.13333333 L2.08,5.92 C2.10666667,5.84 2.13333333,5.78666667 2.16,5.70666667 L0.88,4.34666667 L1.01333333,4.10666667 C1.14666667,3.86666667 1.30666667,3.62666667 1.46666667,3.38666667 C1.62666667,3.14666667 1.81333333,2.90666667 2.02666667,2.69333333 L2.21333333,2.48 L3.94666667,3.22666667 C4,3.17333333 4.05333333,3.14666667 4.10666667,3.09333333 L3.68,1.28 L3.92,1.14666667 C4.42666667,0.853333333 4.93333333,0.613333333 5.49333333,0.426666667 L5.78666667,0.32 L6.90666667,1.84 C6.96,1.84 7.01333333,1.81333333 7.06666667,1.81333333 L7.6,0.0266666667 L7.89333333,0.0266666667 C7.94666667,0.0266666667 8,0.0266666667 8.02666667,0.0266666667 C8.56,0.0266666667 9.09333333,0.08 9.62666667,0.186666667 L9.92,0.24 L10.1333333,2.10666667 C10.1866667,2.13333333 10.24,2.16 10.2933333,2.16 L11.6533333,0.88 L11.92,1.04 C12.16,1.17333333 12.4,1.33333333 12.64,1.49333333 C12.88,1.68 13.12,1.84 13.3333333,2.05333333 L13.52,2.21333333 L12.7733333,3.94666667 C12.8266667,4 12.8533333,4.05333333 12.9066667,4.10666667 L14.72,3.65333333 L14.88,3.92 C15.1733333,4.42666667 15.4133333,4.93333333 15.6,5.49333333 L15.68,5.73333333 L14.16,6.85333333 C14.1866667,6.93333333 14.1866667,7.01333333 14.1866667,7.09333333 L15.9733333,7.62666667 L15.9733333,7.89333333 C15.9733333,7.92 15.9733333,7.97333333 15.9733333,8 C15.9733333,8.53333333 15.92,9.06666667 15.8133333,9.6 L15.76,9.86666667 L13.8933333,10.08 C13.8666667,10.16 13.84,10.2133333 13.8133333,10.2933333 L15.0933333,11.6533333 L14.96,11.8933333 C14.8266667,12.1333333 14.6666667,12.3733333 14.5066667,12.6133333 C14.3466667,12.8533333 14.16,13.0933333 13.9466667,13.3066667 L13.76,13.52 L12.0266667,12.7733333 C11.9733333,12.8266667 11.92,12.8533333 11.8666667,12.9066667 L12.2933333,14.72 L12.0533333,14.8533333 C11.5466667,15.1466667 11.0133333,15.3866667 10.48,15.5733333 L10.1866667,15.68 L9.06666667,14.16 C9.01333333,14.16 8.96,14.1866667 8.90666667,14.1866667 L8.37333333,16 L8.10666667,15.9733333 Z M7.78666667,15.2266667 L8.29333333,13.4933333 L8.56,13.4666667 C8.74666667,13.44 8.96,13.4133333 9.17333333,13.36 L9.44,13.3066667 L10.5333333,14.7733333 C10.8266667,14.6666667 11.12,14.5333333 11.4133333,14.3733333 L10.9866667,12.6133333 L11.1733333,12.48 C11.3333333,12.3466667 11.4933333,12.2133333 11.6533333,12.08 L11.84,11.8933333 L13.52,12.6133333 C13.6266667,12.48 13.7333333,12.3466667 13.84,12.2133333 C13.9466667,12.08 14.0266667,11.9466667 14.1066667,11.7866667 L12.8533333,10.48 L12.96,10.2666667 C13.04,10.08 13.12,9.89333333 13.1733333,9.68 L13.2533333,9.44 L15.0666667,9.22666667 C15.12,8.88 15.1466667,8.53333333 15.1733333,8.21333333 L13.44,7.70666667 L13.4133333,7.46666667 C13.3866667,7.25333333 13.36,7.04 13.3066667,6.82666667 L13.2533333,6.61333333 L14.72,5.52 C14.6133333,5.2 14.4533333,4.88 14.2933333,4.58666667 L12.5333333,5.01333333 L12.3733333,4.8 C12.24,4.64 12.1066667,4.45333333 11.9733333,4.32 L11.8133333,4.16 L12.5866667,2.4 C12.4533333,2.29333333 12.2933333,2.18666667 12.16,2.08 C12.0266667,2 11.92,1.92 11.7866667,1.84 L10.48,3.09333333 L10.2133333,2.96 C10.0266667,2.88 9.84,2.8 9.62666667,2.74666667 L9.38666667,2.66666667 L9.17333333,0.853333333 C8.85333333,0.8 8.53333333,0.773333333 8.21333333,0.773333333 L7.70666667,2.50666667 L7.44,2.53333333 C7.22666667,2.56 7.01333333,2.58666667 6.82666667,2.64 L6.56,2.69333333 L5.46666667,1.22666667 C5.17333333,1.33333333 4.88,1.46666667 4.58666667,1.62666667 L5.01333333,3.38666667 L4.8,3.54666667 C4.64,3.68 4.48,3.81333333 4.32,3.94666667 L4.13333333,4.13333333 L2.48,3.41333333 C2.37333333,3.54666667 2.26666667,3.68 2.18666667,3.81333333 C2.08,3.94666667 2,4.10666667 1.92,4.24 L3.17333333,5.54666667 L3.06666667,5.76 C2.98666667,5.94666667 2.90666667,6.16 2.82666667,6.37333333 L2.74666667,6.61333333 L0.96,6.82666667 C0.906666667,7.17333333 0.88,7.52 0.853333333,7.84 L2.58666667,8.34666667 L2.61333333,8.58666667 C2.64,8.8 2.66666667,9.01333333 2.72,9.2 L2.77333333,9.41333333 L1.30666667,10.5066667 C1.44,10.8266667 1.57333333,11.1466667 1.73333333,11.44 L3.49333333,11.0133333 L3.65333333,11.2266667 C3.78666667,11.3866667 3.92,11.5733333 4.05333333,11.7333333 L4.21333333,11.8933333 L3.49333333,13.5733333 C3.62666667,13.68 3.78666667,13.7866667 3.92,13.8933333 C4.05333333,13.9733333 4.16,14.0533333 4.29333333,14.1333333 L5.6,12.88 L5.86666667,12.9866667 C6.05333333,13.0666667 6.24,13.1466667 6.45333333,13.2 L6.69333333,13.28 L6.90666667,15.0933333 C7.14666667,15.2 7.46666667,15.2266667 7.78666667,15.2266667 Z M13.68,13.0666667 L13.84,12.72 L13.68,13.0666667 Z" id="Shape"></path>
                                <path d="M5.30666667,8 C5.30666667,6.53333333 6.50666667,5.33333333 8,5.30666667 C9.52,5.30666667 10.6933333,6.53333333 10.6933333,8 C10.6933333,9.46666667 9.52,10.6666667 8,10.6933333 C6.48,10.6666667 5.30666667,9.46666667 5.30666667,8 Z M6.10666667,8 C6.10666667,9.09333333 6.98666667,9.92 8,9.94666667 C9.01333333,9.94666667 9.89333333,9.09333333 9.89333333,8 C9.89333333,6.90666667 9.01333333,6.08 8,6.05333333 C6.98666667,6.05333333 6.10666667,6.90666667 6.10666667,8 Z" id="Shape"></path>
                            </g>
                            <g id="Group" transform="translate(0.266667, 0.000000)">
                                <path d="M7.73333333,5.65333333 C6.53333333,5.65333333 5.49333333,6.66666667 5.49333333,8 C5.49333333,9.30666667 6.53333333,10.3466667 7.73333333,10.3466667 C8.93333333,10.3466667 9.97333333,9.33333333 9.97333333,8 C9.97333333,6.69333333 8.93333333,5.65333333 7.73333333,5.65333333 Z" id="Path"></path>
                                <path d="M13.3333333,9.84 L13.4133333,9.57333333 L15.36,9.33333333 C15.4133333,8.96 15.4666667,8.58666667 15.4666667,8.21333333 L13.6,7.65333333 L13.5733333,7.38666667 C13.5466667,7.14666667 13.52,6.90666667 13.4666667,6.69333333 L13.4133333,6.45333333 L14.9866667,5.25333333 C14.8533333,4.90666667 14.72,4.56 14.5333333,4.21333333 L12.6666667,4.69333333 L12.5066667,4.45333333 C12.3733333,4.26666667 12.2133333,4.08 12.08,3.92 L11.92,3.73333333 L12.6933333,1.89333333 C12.5333333,1.76 12.4,1.65333333 12.24,1.52 C12.1066667,1.41333333 11.9733333,1.33333333 11.84,1.25333333 L10.4266667,2.64 L10.1333333,2.50666667 C9.92,2.4 9.73333333,2.32 9.52,2.26666667 L9.25333333,2.18666667 L9.01333333,0.186666667 C8.64,0.0533333333 8.29333333,0 7.94666667,0 L7.41333333,1.92 L7.12,1.94666667 C6.90666667,1.97333333 6.66666667,2 6.45333333,2.05333333 L6.16,2.13333333 L4.98666667,0.533333333 C4.66666667,0.666666667 4.34666667,0.8 4.02666667,0.986666667 L4.48,2.93333333 L4.26666667,3.09333333 C4.08,3.22666667 3.92,3.38666667 3.73333333,3.54666667 L3.52,3.73333333 L1.73333333,2.93333333 C1.62666667,3.06666667 1.52,3.22666667 1.41333333,3.38666667 C1.30666667,3.54666667 1.2,3.70666667 1.12,3.86666667 L2.45333333,5.30666667 L2.34666667,5.54666667 C2.26666667,5.76 2.18666667,5.97333333 2.10666667,6.21333333 L2.02666667,6.45333333 L0.106666667,6.66666667 C0.0533333333,7.04 -1.11022302e-16,7.41333333 -1.11022302e-16,7.81333333 L1.86666667,8.37333333 L1.89333333,8.64 C1.92,8.88 1.94666667,9.09333333 2,9.33333333 L2.05333333,9.57333333 L0.48,10.7733333 C0.613333333,11.12 0.746666667,11.4666667 0.933333333,11.8133333 L2.8,11.3333333 L2.96,11.5733333 C3.09333333,11.76 3.25333333,11.9466667 3.38666667,12.1066667 L3.54666667,12.2933333 L2.77333333,14.1333333 C2.93333333,14.2666667 3.06666667,14.3733333 3.22666667,14.5066667 C3.36,14.6133333 3.49333333,14.6933333 3.62666667,14.7733333 L5.01333333,13.3866667 L5.30666667,13.52 C5.52,13.6266667 5.70666667,13.7066667 5.94666667,13.76 L6.21333333,13.84 L6.45333333,15.84 C6.8,15.8933333 7.14666667,15.92 7.49333333,15.9466667 L8.05333333,14.0266667 L8.34666667,14 C8.56,13.9733333 8.77333333,13.9466667 8.98666667,13.8933333 L9.28,13.8133333 L10.4533333,15.44 C10.7733333,15.3066667 11.0933333,15.1733333 11.4133333,14.9866667 L10.96,13.04 L11.1733333,12.88 C11.36,12.7466667 11.52,12.5866667 11.7066667,12.4266667 L11.92,12.2133333 L13.7066667,13.0133333 C13.8133333,12.88 13.92,12.72 14.0266667,12.56 C14.1333333,12.4 14.24,12.2666667 14.32,12.1066667 L12.9866667,10.64 L13.0933333,10.4 C13.2,10.2666667 13.28,10.0533333 13.3333333,9.84 Z M7.73333333,11.2266667 C5.94666667,11.2266667 4.56,9.76 4.56,8 C4.56,6.24 5.94666667,4.77333333 7.73333333,4.77333333 C9.52,4.77333333 10.9066667,6.24 10.9066667,8 C10.9066667,9.76 9.52,11.2266667 7.73333333,11.2266667 Z" id="Shape" fill-rule="nonzero"></path>
                            </g>
                        </g>
                    </g>
                </g>
            </g>
        </g>
    </g>
</svg>