<?xml version="1.0" encoding="UTF-8"?>
<svg width="375px" height="337px" viewBox="0 0 375 337" version="1.1" xmlns="http://www.w3.org/2000/svg" xmlns:xlink="http://www.w3.org/1999/xlink">
    <!-- Generator: Sketch 52.3 (67297) - http://www.bohemiancoding.com/sketch -->
    <title>Proximamente</title>
    <desc>Created with Sketch.</desc>
    <g id="High---UserFlow----SANDRA" stroke="none" stroke-width="1" fill="none" fill-rule="evenodd">
        <g id="12_Lead-Buddys-_Sandra-" transform="translate(0.000000, -271.000000)">
            <g id="Proximamente" transform="translate(-1.000000, 271.000000)">
                <g id="Texto-" transform="translate(33.000000, 262.000000)">
                    <text id="Coming-Soon" font-family="Montserrat-Medium, Montserrat" font-size="17" font-weight="400" letter-spacing="-0.408" fill="#F790AD">
                        <tspan x="100.4115" y="16">Coming Soon </tspan>
                    </text>
                    <text id="Lead-Buddys-new-feat" font-family="Montserrat-Light, Montserrat" font-size="15" font-weight="300" letter-spacing="-0.36" fill="#859191">
                        <tspan x="1.0125" y="53">Lead Buddys new feature where you can get </tspan>
                        <tspan x="8.805" y="72">help in any procedure that you need to do </tspan>
                    </text>
                </g>
                <g id="Group-3">
                    <g id="Group">
                        <g id="Scene/Home">
                            <g id="Background-Shape-2" opacity="0.6" transform="translate(0.148339, 66.451215)" fill="#E6E9E9">
                                <path d="M376.53899,76.4481448 C382.030085,110.617215 248.86168,132.90453 134.240546,117.35075 C19.6194125,101.79697 -32.9633288,41.0577055 21.7319651,8.69343754 C76.427259,-23.6708304 371.047894,42.2790747 376.53899,76.4481448 Z" id="Background-Shape"></path>
                            </g>
                            <g id="Mobile3" transform="translate(152.000000, 0.000000)">
                                <rect id="Container" fill="#DDE3E9" x="0" y="0" width="71.55" height="135.9" rx="3.6"></rect>
                                <circle id="Touch" fill="#FFFFFF" cx="35.55" cy="120.6" r="6.75"></circle>
                                <g id="Camera" transform="translate(28.800000, 7.200000)" fill="#FFFFFF">
                                    <circle id="Lens" cx="0.9" cy="0.9" r="1"></circle>
                                    <rect id="Sensor" x="4.05" y="0" width="9.45" height="1.8" rx="0.9"></rect>
                                </g>
                                <g id="Rows" transform="translate(6.300000, 12.600000)">
                                    <g id="Row">
                                        <rect id="Container" fill="#FFFFFF" x="0" y="0" width="59" height="24" rx="1.8"></rect>
                                        <g id="Text-Stuff" transform="translate(4.050000, 7.200000)" fill="#DDE3E9">
                                            <rect id="Label" x="0" y="0" width="32.9" height="3.6" rx="1.35"></rect>
                                            <rect id="Label" x="0" y="6" width="22.0835616" height="3.6" rx="1.35"></rect>
                                        </g>
                                        <g id="Check" transform="translate(49.544656, 8.850000)">
                                            <circle id="Background" fill="#DDE3E9" cx="3.15" cy="3.15" r="3.15"></circle>
                                            <circle id="Indicator" fill="#F2F2F2" cx="3.15" cy="3.15" r="1.35"></circle>
                                        </g>
                                    </g>
                                    <g id="Row" transform="translate(0.000000, 32.000000)">
                                        <rect id="Background" fill="#FFFFFF" x="0" y="0" width="59" height="19" rx="1.8"></rect>
                                        <g id="Text" transform="translate(17.550000, 5.700000)" fill="#DDE3E9">
                                            <rect id="Name" x="0" y="0" width="32.9" height="2.85" rx="1.35"></rect>
                                            <rect id="Name" x="0" y="4.75" width="22.0835616" height="2.85" rx="1.35"></rect>
                                        </g>
                                        <circle id="Avatar" fill="#C5CFD6" cx="9.45" cy="9.5" r="5.4"></circle>
                                    </g>
                                    <g id="Row" transform="translate(0.000000, 59.000000)">
                                        <rect id="Container" fill="#FFFFFF" x="0" y="0" width="59" height="19" rx="1.8"></rect>
                                        <g id="Text-Stuff" transform="translate(4.050000, 5.700000)">
                                            <rect id="Label" fill="#DDE3E9" x="0" y="0" width="32.9" height="2.85" rx="1.35"></rect>
                                            <rect id="Label" fill="#AFB9C5" x="0" y="4.75" width="22.0835616" height="2.85" rx="1.35"></rect>
                                        </g>
                                        <g id="Check" transform="translate(49.544656, 6.350000)">
                                            <circle id="Background" fill="#DDE3E9" cx="3.15" cy="3.15" r="3.15"></circle>
                                            <circle id="Indicator" fill="#F2F2F2" cx="3.15" cy="3.15" r="1.35"></circle>
                                        </g>
                                    </g>
                                    <g id="Row" transform="translate(0.000000, 86.000000)">
                                        <rect id="Background" fill="#FFFFFF" x="0" y="0" width="59" height="19" rx="1.8"></rect>
                                        <g id="Text" transform="translate(17.550000, 5.700000)" fill="#DDE3E9">
                                            <rect id="Name" x="0" y="0" width="32.9" height="2.85" rx="1.35"></rect>
                                            <rect id="Name" x="0" y="4.75" width="22.0835616" height="2.85" rx="1.35"></rect>
                                        </g>
                                        <circle id="Avatar" fill="#C5CFD6" cx="9.45" cy="9.5" r="5.4"></circle>
                                    </g>
                                </g>
                            </g>
                        </g>
                        <g id="Girl" transform="translate(202.803103, 8.982036)">
                            <g id="Head/Front/Wavy" transform="translate(67.755967, 26.272455) scale(-1, 1) translate(-67.755967, -26.272455) translate(33.340095, 0.000000)">
                                <g id="Head" stroke-width="1" transform="translate(27.486885, 15.730851)" fill="#B28B67">
                                    <path d="M4.20563285,17.5019048 C1.86013136,14.7572514 0.272646891,11.3936408 0.537916478,7.62461862 C1.30223202,-3.23498384 16.4659324,-0.846009665 19.4155861,4.63498511 C22.3652397,10.1159799 22.0147442,24.0189777 18.2025796,24.9985843 C16.6822937,25.3892501 13.4436326,24.4322754 10.1474311,22.4516319 L12.2163934,37.043617 L0,37.043617 L4.20563285,17.5019048 Z"></path>
                                </g>
                                <path d="M48.0557776,22.8268009 C47.9347683,22.1163501 47.6390291,21.3274022 47.4004026,20.655249 C47.0927518,19.788755 46.6271737,19.0075012 46.1148168,18.2712017 C45.1502133,16.8849668 43.993052,15.6331626 42.7154336,14.5941997 C40.3817053,12.6964368 37.4109821,11.6017997 34.4896409,11.9572844 C33.0146527,12.1367558 31.5828144,12.6976471 30.364123,13.6312268 C29.2630488,14.474725 28.2039413,15.7164145 26.7781772,15.8056315 C25.2268285,15.902629 23.804772,14.5375745 22.5606007,13.6945086 C21.1577921,12.744071 19.6654492,12.0515155 18.0259073,11.7823085 C15.2792959,11.3314688 12.6990525,12.2565763 10.8061326,14.5030808 C8.7918089,16.8936983 7.32754901,20.3995283 8.65036843,23.5670771 C8.89625239,24.1558919 9.21258048,24.6522911 9.66656258,25.0637094 C10.0829166,25.4409796 10.7188071,25.8423696 10.8876206,26.4451894 C11.0669258,27.0859611 10.5312979,27.9126014 10.3235942,28.4907828 C10.0260407,29.3191522 9.78173441,30.188672 9.86858658,31.0890546 C10.0112892,32.5677052 10.9433922,33.9792701 11.927638,34.9511474 C12.9292384,35.9401419 14.1619714,36.5072576 15.4786378,36.7686841 C16.357809,36.9432278 17.256307,37.0395338 18.1498353,36.9740042 C18.5934046,36.9414988 18.984831,36.8186525 19.4145955,36.7209634 C19.8325272,36.6259542 20.0661052,36.736611 20.4206924,36.9650998 C22.0678862,38.0267128 23.839008,38.4374395 25.7409997,38.2795807 C27.3462267,38.1462739 29.1963911,37.7584567 30.505879,36.6620041 C31.9601205,35.4442614 31.9311698,33.7650456 31.5889675,31.9709369 C31.9515221,32.1500625 32.9545424,32.2609786 32.3551756,31.5469833 C32.1177324,31.2642035 31.6691144,31.1491378 31.3644613,30.9828069 C31.0097163,30.7891576 30.6495282,30.5388832 30.3740625,30.2229929 C29.2617866,28.9475012 30.3851852,26.3517364 31.7831819,25.923979 C33.860219,25.2884808 34.3252449,28.216821 35.8079639,28.9743008 C36.660472,29.4098388 37.5522648,28.8145402 38.1909952,28.2067062 C39.0465798,27.3924283 39.6296964,26.3136981 40.1331393,25.2159488 C40.5478367,24.3119352 40.9337412,23.3952134 41.356406,22.4956952 C41.5537758,22.0756319 42.2370761,20.8881469 41.8939271,20.4131875 C43.3816158,20.1174401 45.0385913,20.7337462 46.3198384,21.5419725 C46.8493922,21.876104 47.2531246,22.2444699 47.5356112,22.8343221 C47.5961158,22.9607128 47.7278534,23.336427 47.8932749,23.3518152 C48.2012412,23.3805168 48.0861483,23.0053213 48.0557776,22.8268009" id="hair" fill="#191847"></path>
                            </g>
                            <g id="Bottom" transform="translate(66.109785, 155.709581) scale(-1, 1) translate(-66.109785, -155.709581) translate(26.609785, 95.209581)">
                                <polygon id="Leg" fill="#997659" points="22.6868417 1.13686838e-13 41.7041857 62.1855698 50.9166616 115.070391 58.1398787 115.070391 48.4054072 1.13686838e-13"></polygon>
                                <path d="M15.8834675,0 C17.1751715,34.1432202 15.6550104,51.7549114 15.3659115,54.8569714 C15.0768127,57.9590314 11.1181035,78.0729546 1.74634015,116.111752 L9.44321772,113.467732 C24.2544159,78.5805249 29.3015442,60.4490273 31.0002765,55.8679203 C32.6990088,51.2868132 37.2107575,32.6641731 44.5355225,0 L15.8834675,0 Z" id="Leg" fill="#B28B67"></path>
                                <g id="Accessories/Shoe/Flat-Sneaker" transform="translate(0.450740, 100.589407)" fill="#E4E4E4">
                                    <path d="M1.43414197,12.5715704 C0.822491769,14.1298157 0.516666667,15.2902373 0.516666667,16.0528354 C0.516666667,16.9544785 0.671880672,18.2702 0.982308684,20 C2.0631436,20 11.776789,20 30.123245,20 C30.8805146,17.5772536 30.4433747,16.2692908 28.8118251,16.0761116 C27.1802756,15.8829323 25.8249197,15.7085069 24.7457574,15.5528354 L11.1309539,9.67907997 C10.9027568,9.58063025 10.6379573,9.68581123 10.5395076,9.91400827 C10.5392346,9.91464113 10.538963,9.91527462 10.5386929,9.91590872 L9.6426601,12.0193475 C8.13227196,12.7013261 6.90492479,13.0423154 5.96061859,13.0423154 C5.16722873,13.0423154 4.06124218,12.7216525 2.64265893,12.0803269 L2.64265617,12.080333 C2.18973796,11.8755738 1.65658504,12.0767464 1.45182578,12.5296646 C1.44557909,12.543482 1.4396826,12.557455 1.43414197,12.5715704 Z" id="shoe"></path>
                                </g>
                                <g id="Accessories/Shoe/Flat-Sneaker" transform="translate(47.955139, 100.589407)" fill="#E4E4E4">
                                    <path d="M1.43414197,12.5715704 C0.822491769,14.1298157 0.516666667,15.2902373 0.516666667,16.0528354 C0.516666667,16.9544785 0.671880672,18.2702 0.982308684,20 C2.0631436,20 11.776789,20 30.123245,20 C30.8805146,17.5772536 30.4433747,16.2692908 28.8118251,16.0761116 C27.1802756,15.8829323 25.8249197,15.7085069 24.7457574,15.5528354 L11.1309539,9.67907997 C10.9027568,9.58063025 10.6379573,9.68581123 10.5395076,9.91400827 C10.5392346,9.91464113 10.538963,9.91527462 10.5386929,9.91590872 L9.6426601,12.0193475 C8.13227196,12.7013261 6.90492479,13.0423154 5.96061859,13.0423154 C5.16722873,13.0423154 4.06124218,12.7216525 2.64265893,12.0803269 L2.64265617,12.080333 C2.18973796,11.8755738 1.65658504,12.0767464 1.45182578,12.5296646 C1.44557909,12.543482 1.4396826,12.557455 1.43414197,12.5715704 Z" id="shoe"></path>
                                </g>
                                <polygon fill="#2D2527" points="20.1600119 0 28.2458671 31.6828933 52.9432618 31.6828933 49.2607797 0"></polygon>
                                <path d="M15.6117184,0 C12.9511886,7.97666217 12.4458226,18.5376266 14.0956205,31.6828933 L39.2983811,31.6828933 L46.228584,0 L15.6117184,0 Z" fill="#524347"></path>
                            </g>
                            <g id="Body" transform="translate(49.642711, 74.112806) scale(-1, 1) rotate(8.000000) translate(-49.642711, -74.112806) translate(5.642711, 33.612806)">
                                <path d="M56.8990202,12.180568 L76.0827185,6.4419888 C79.6614531,3.66588278 83.037021,1.63612437 86.2094222,0.35271359 C87.1320675,0.179659027 88.65955,0.280164932 86.7507695,2.43784645 C84.841989,4.59552796 82.9316193,6.95062866 83.4766082,7.85535382 C84.0215971,8.76007897 86.0072737,8.07806123 86.5819663,9.51120058 C86.9650947,10.4666268 83.675297,11.1509231 76.7125731,11.5640894 L61.7968683,20.3113877 L56.8990202,12.180568 Z M55.2038424,45.8841773 L71.3480598,57.6976096 C75.726704,58.8749778 79.3849197,60.3398227 82.3227069,62.0921443 C83.0166632,62.7222679 83.8553747,63.9983728 80.9773698,63.7778299 C78.099365,63.5572871 75.0621822,63.4542892 74.6650735,64.4324858 C74.2679647,65.4106825 76.0095773,66.5804984 75.2068476,67.9003418 C74.6716945,68.7802374 72.1434161,66.5739318 67.6220125,61.281425 L51.6350021,54.6752896 L55.2038424,45.8841773 Z" id="Skin" fill="#B28B67"></path>
                                <path d="M24.2916108,18.9078757 C37.0115294,32.4111414 52.5323042,41.2162787 73.7038878,49.0198792 L68.992539,58.399792 C47.1430339,56.3649742 35.4623729,54.7347785 26.3161661,41.2075306 C24.0206536,37.8124656 19.9210851,26.1273493 17.464321,20.0595384 L24.2916108,18.9078757 Z" id="Coat-Back" fill="#F45A84" transform="translate(45.584104, 38.653834) rotate(15.000000) translate(-45.584104, -38.653834) "></path>
                                <path d="M5.55041766,68.4946364 L44.5213305,68.4946364 C35.6937663,41.66652 31.1843113,23.2533687 30.9929656,13.2551825 C30.9832106,12.7454653 30.0385138,11.8472716 29.6205592,11.964898 C26.5641025,12.8250877 23.2934526,12.503455 19.8086095,11 C10.569813,25.8065871 7.37487703,44.0364937 5.55041766,68.4946364 Z" id="Shirt" fill="#F2F2F2"></path>
                                <path d="M23.1341452,11.0239033 C34.3049982,11.115055 52.4288832,13.1478061 73.3307932,6.46094976 L75.3943914,16.7360887 C59.5969246,26.8605655 43.6006657,34.7034578 29.5839571,33.5897203 C35.6706032,59.6067216 35.3899794,80.9043827 21.9523499,80.9043827 C15.5352132,80.9043827 8.60879211,80.9043827 1.17308672,80.9043827 C-2.12713993,58.8032331 6.54650151,28.1594332 14.5875978,12.7029479 C14.894663,12.1127113 15.5484358,11 17.0883388,11 C18.4300812,11 20.4426948,11 23.1261796,11 C23.1288352,11.0079678 23.1314904,11.0159356 23.1341452,11.0239033 Z" id="Coat-Front" fill="#F45A84"></path>
                            </g>
                        </g>
                        <g id="Boy" transform="translate(95.404535, 117.482036) scale(-1, 1) translate(-95.404535, -117.482036) translate(27.404535, 8.982036)">
                            <g id="Head/Front/Short-Beard" transform="translate(63.755967, 26.272455) scale(-1, 1) translate(-63.755967, -26.272455) translate(29.340095, 0.000000)">
                                <g id="Head" stroke-width="1" transform="translate(27.486885, 15.730851)" fill="#D4A181">
                                    <path d="M4.20563285,17.5019048 C1.86013136,14.7572514 0.272646891,11.3936408 0.537916478,7.62461862 C1.30223202,-3.23498384 16.4659324,-0.846009665 19.4155861,4.63498511 C22.3652397,10.1159799 22.0147442,24.0189777 18.2025796,24.9985843 C16.6822937,25.3892501 13.4436326,24.4322754 10.1474311,22.4516319 L12.2163934,37.043617 L0,37.043617 L4.20563285,17.5019048 Z"></path>
                                </g>
                                <path d="M38.2451022,24.5548076 C38.7127274,31.0486939 39.9497197,34.2956371 41.9560791,34.2956371 C44.9657945,34.2956371 47.5193242,32.3908597 48.839915,32.3908597 C49.8025809,32.3908597 49.5876472,33.5918322 48.9495419,34.4822679 C48.4230844,35.216906 45.8592809,35.9250093 45.8592809,37.0639451 C45.8592809,38.2028808 47.8848983,37.321749 47.8848983,37.9972296 C47.8848983,39.1145568 48.2408976,41.2153319 46.2956641,41.2153319 C44.3270229,41.2153319 38.6825799,40.5001334 37.7152753,37.5873321 C37.0910051,35.7074954 36.6873697,31.8121219 36.5043688,25.9012118 C36.3849447,25.8870646 36.2634068,25.8797872 36.1401639,25.8797872 C34.453432,25.8797872 33.0860656,27.2429373 33.0860656,28.9244681 C33.0860656,29.7781044 33.4384535,30.5496899 34.0061203,31.1025384 C33.2994434,32.0969323 32.5074613,33.1357099 31.5999343,34.2075933 C28.1905522,32.1684102 25.6605969,26.1989567 28.9938212,20.4644561 C29.9151349,17.6552135 32.0008602,16.1546914 34.464152,15.4579508 C36.4595453,14.6258452 38.5309524,14.5320246 40.279515,15.0308644 C43.7071818,15.3239618 46.7679239,16.3659275 47.6353629,16.9847252 C47.6353629,20.2198124 47.0065798,21.1796533 41.635915,21.0950469 C40.3162556,21.7898351 39.301768,22.9862594 38.2451022,24.5548076 Z" id="Hair" fill="#191847"></path>
                            </g>
                            <g id="Bottom" transform="translate(71.609785, 155.709581) scale(-1, 1) translate(-71.609785, -155.709581) translate(7.609785, 95.209581)">
                                <polygon id="Leg" fill="#997659" points="59.7190374 0 84.5232268 62.7935232 101.159499 115.880154 107.728803 115.880154 82.2955981 2.57305631e-13"></polygon>
                                <path d="M54.7243177,0 C54.4601885,22.0660752 50.6082155,51.7744639 49.9928,53.1499507 C49.5825231,54.0669419 35.4191005,65.7280832 7.50253241,88.1333744 L12.0271833,92.9763237 C44.9661475,73.7665974 62.1977561,62.8806822 63.7220093,60.3185782 C66.0083891,56.4754221 73.4520539,21.1101969 79.4283095,0 L54.7243177,0 Z" id="Leg" fill="#B28B67"></path>
                                <g id="Accessories/Shoe/Flat-Sneaker" transform="translate(18.026346, 95.534663) rotate(50.000000) translate(-18.026346, -95.534663) translate(2.612685, 85.425175)" fill="#E4E4E4">
                                    <path d="M1.43414197,12.5715704 C0.822491769,14.1298157 0.516666667,15.2902373 0.516666667,16.0528354 C0.516666667,16.9544785 0.671880672,18.2702 0.982308684,20 C2.0631436,20 11.776789,20 30.123245,20 C30.8805146,17.5772536 30.4433747,16.2692908 28.8118251,16.0761116 C27.1802756,15.8829323 25.8249197,15.7085069 24.7457574,15.5528354 L11.1309539,9.67907997 C10.9027568,9.58063025 10.6379573,9.68581123 10.5395076,9.91400827 C10.5392346,9.91464113 10.538963,9.91527462 10.5386929,9.91590872 L9.6426601,12.0193475 C8.13227196,12.7013261 6.90492479,13.0423154 5.96061859,13.0423154 C5.16722873,13.0423154 4.06124218,12.7216525 2.64265893,12.0803269 L2.64265617,12.080333 C2.18973796,11.8755738 1.65658504,12.0767464 1.45182578,12.5296646 C1.44557909,12.543482 1.4396826,12.557455 1.43414197,12.5715704 Z" id="shoe"></path>
                                </g>
                                <g id="Accessories/Shoe/Flat-Sneaker" transform="translate(97.116118, 100.589407)" fill="#E4E4E4">
                                    <path d="M1.43414197,12.5715704 C0.822491769,14.1298157 0.516666667,15.2902373 0.516666667,16.0528354 C0.516666667,16.9544785 0.671880672,18.2702 0.982308684,20 C2.0631436,20 11.776789,20 30.123245,20 C30.8805146,17.5772536 30.4433747,16.2692908 28.8118251,16.0761116 C27.1802756,15.8829323 25.8249197,15.7085069 24.7457574,15.5528354 L11.1309539,9.67907997 C10.9027568,9.58063025 10.6379573,9.68581123 10.5395076,9.91400827 C10.5392346,9.91464113 10.538963,9.91527462 10.5386929,9.91590872 L9.6426601,12.0193475 C8.13227196,12.7013261 6.90492479,13.0423154 5.96061859,13.0423154 C5.16722873,13.0423154 4.06124218,12.7216525 2.64265893,12.0803269 L2.64265617,12.080333 C2.18973796,11.8755738 1.65658504,12.0767464 1.45182578,12.5296646 C1.44557909,12.543482 1.4396826,12.557455 1.43414197,12.5715704 Z" id="shoe"></path>
                                </g>
                                <polygon id="Pant" fill="#2D2527" points="76.3961138 110.412235 107.629986 107.021734 84.481969 2.84217094e-14 56.5069683 2.84217094e-14"></polygon>
                                <path d="M13.963183,80.3201255 L34.4507399,104.575558 C56.0298421,81.002254 68.610515,65.6206688 72.1927586,58.4308025 C75.7750023,51.2409363 78.995257,31.7640021 81.8535228,0 L50.358723,0 C48.7973931,27.9445835 47.7449481,42.5670744 47.201388,43.8674726 C46.6578279,45.1678708 35.5784262,57.3187551 13.963183,80.3201255 Z" id="Pant" fill="#524347"></path>
                            </g>
                            <g id="Body" transform="translate(60.673379, 87.652711) scale(-1, 1) rotate(8.000000) translate(-60.673379, -87.652711) translate(6.673379, 40.652711)">
                                <path d="M79.5573729,48.5058406 L95.7015903,60.3192729 C100.080234,61.4966411 103.73845,62.961486 106.676237,64.7138076 C107.370194,65.3439312 108.208905,66.6200361 105.3309,66.3994933 C102.452895,66.1789504 99.4157127,66.0759525 99.0186039,67.0541492 C98.6214952,68.0323458 100.363108,69.2021617 99.5603781,70.5220051 C99.025225,71.4019007 96.4969466,69.1955951 91.9755429,63.9030883 L75.9885326,57.2969529 L79.5573729,48.5058406 Z M17.5717184,48.9135512 L28.1482175,48.9549976 C21.6177173,69.9625633 18.0922176,81.109046 17.5717184,82.3944459 C16.4005951,85.2865955 18.8788494,89.6912893 19.9386493,92.0583389 C16.4869163,93.5974641 16.8547022,87.8974552 12.5004339,89.9161037 C8.52605975,91.7586324 5.50276323,95.0971711 0.91094816,92.2738272 C0.34641148,91.9267137 -0.272228747,90.6197685 1.22248425,89.59846 C4.94635943,87.054008 10.3126892,82.6007586 11.0377648,81.1349371 C12.026535,79.1360276 14.2045195,68.3955656 17.5717184,48.9135512 Z" id="Skin" fill="#B28B67"></path>
                                <path d="M45.1255923,6.83894252 L49.4201896,5.71233721 C66.814545,18.2218814 75.79907,44.3917544 96.8667876,56.8282193 L92.6101098,63.1405686 C57.8410169,61.9059724 46.4604717,30.0218946 45.1255923,6.83894252 Z" id="Coat-Back" fill="#61A8A9" transform="translate(70.996190, 34.426453) rotate(5.000000) translate(-70.996190, -34.426453) "></path>
                                <path d="M28.5504177,59.4946364 C46.0983394,59.4946364 59.0062229,59.4946364 67.2740681,59.4946364 C69.0435414,59.4946364 68.7101179,56.9485505 68.4543298,55.6637816 C65.5022262,40.835996 53.9783331,24.8523606 53.9783331,3.74538097 L42.8086095,2 C33.569813,16.8065871 30.374877,35.0364937 28.5504177,59.4946364 Z" id="Shirt" fill="#DDE3E9"></path>
                                <path d="M28.8615985,16.5541915 C27.2393363,16.0895087 25.9546726,15.0057233 25.0076074,13.3028354 C20.9250535,5.96212474 22.3994548,1.92051983 26.7624101,0.592021467 C31.1253654,-0.736476892 35.016208,2 41.9675621,2 C42.3456578,2 42.691951,2.02361947 43.0064415,2.07085841 L46.5031467,2.26969016 C56.5355749,36.1514077 59.3024587,58.7567622 54.8037982,70.0857536 L24.3252693,70.0857536 C22.5194488,74.2817884 20.7914311,77.8121608 19.141216,80.6768709 L10.8363663,80.6768709 C10.0547633,55.4937616 16.063174,34.1195351 28.8615985,16.5541915 Z" id="Coat-Front" fill="#61A8A9"></path>
                                <path d="M30.9621749,52.6848671 C31.9207187,60.6768184 33.4786731,66.4771139 35.6360382,70.0857536 L24.3252693,70.0857536 C26.4317084,65.1911963 28.6440102,59.3909008 30.9621749,52.6848671 Z" id="Shade" fill-opacity="0.1" fill="#000000"></path>
                            </g>
                        </g>
                    </g>
                </g>
            </g>
        </g>
    </g>
</svg>