<?xml version="1.0" encoding="UTF-8"?>
<svg width="128px" height="128px" viewBox="0 0 128 128" version="1.1" xmlns="http://www.w3.org/2000/svg" xmlns:xlink="http://www.w3.org/1999/xlink">
    <!-- Generator: Sketch 52.3 (67297) - http://www.bohemiancoding.com/sketch -->
    <title>Locals</title>
    <desc>Created with Sketch.</desc>
    <g id="High---UserFlow----SANDRA" stroke="none" stroke-width="1" fill="none" fill-rule="evenodd">
        <g id="16_-Places" transform="translate(-216.000000, -342.000000)">
            <g id="Locals" transform="translate(216.000000, 342.000000)">
                <circle id="Oval" fill="#F45A84" cx="64" cy="64" r="64"></circle>
                <text font-family="Montserrat-Medium, Montserrat" font-size="15" font-weight="400" letter-spacing="-0.36">
                    <tspan x="41.92" y="98" fill="#FFFFFF">Locals</tspan>
                    <tspan x="86.08" y="98" font-family="Montserrat-Regular, Montserrat" font-weight="normal" fill="#E6E9E9"> </tspan>
                </text>
                <g id="Iconos--25" transform="translate(43.000000, 23.000000)" fill="#FFFFFF" fill-rule="nonzero" stroke="#FFFFFF">
                    <path d="M42.4211538,1.08688525 C42.1730769,0.752459016 41.6769231,0.752459016 41.3461538,1.00327869 L39.1134615,3.00983607 C38.3692308,2.34098361 37.2942308,2.00655738 36.2192308,2.00655738 C33.6557692,2.00655738 31.6711538,4.09672131 31.6711538,6.60491803 C31.6711538,7.44098361 31.9192308,8.27704918 32.3326923,9.0295082 L28.0326923,12.7918033 C27.95,12.8754098 27.95,12.8754098 27.8673077,12.9590164 L0.330769231,12.9590164 L1.48846154,14.2131148 L19.5153846,34.6131148 L19.5153846,49.4114754 L11.7423077,49.4114754 C11.3288462,49.4114754 10.9980769,49.7459016 10.9980769,50.1639344 C10.9980769,50.5819672 11.3288462,50.9163934 11.7423077,50.9163934 L28.7769231,50.9163934 C29.1903846,50.9163934 29.5211538,50.5819672 29.5211538,50.1639344 C29.5211538,49.7459016 29.1903846,49.4114754 28.7769231,49.4114754 L21.0038462,49.4114754 L21.0038462,34.6131148 L40.1884615,12.8754098 L30.1826923,12.8754098 L33.325,10.1163934 C34.1519231,10.7852459 35.1442308,11.2032787 36.2192308,11.2032787 C38.7,11.2032787 40.7673077,9.11311475 40.7673077,6.60491803 C40.7673077,5.6852459 40.5192308,4.93278689 40.1057692,4.18032787 L42.3384615,2.17377049 C42.6692308,1.92295082 42.7519231,1.42131148 42.4211538,1.08688525 Z M20.3423077,33.1918033 L3.80384615,14.4639344 L36.8807692,14.4639344 L20.3423077,33.1918033 Z M36.2192308,9.6147541 C34.5653846,9.6147541 33.1596154,8.27704918 33.1596154,6.52131148 C33.1596154,4.84918033 34.4826923,3.42786885 36.2192308,3.42786885 C37.8730769,3.42786885 39.2788462,4.76557377 39.2788462,6.52131148 C39.2788462,8.27704918 37.8730769,9.6147541 36.2192308,9.6147541 Z" id="Shape"></path>
                </g>
            </g>
        </g>
    </g>
</svg>