<?xml version="1.0" encoding="UTF-8"?>
<svg width="128px" height="128px" viewBox="0 0 128 128" version="1.1" xmlns="http://www.w3.org/2000/svg" xmlns:xlink="http://www.w3.org/1999/xlink">
    <!-- Generator: Sketch 52.3 (67297) - http://www.bohemiancoding.com/sketch -->
    <title>Museum </title>
    <desc>Created with Sketch.</desc>
    <g id="High---UserFlow----SANDRA" stroke="none" stroke-width="1" fill="none" fill-rule="evenodd">
        <g id="16_-Places" transform="translate(-216.000000, -166.000000)">
            <g id="Museum-" transform="translate(216.000000, 166.000000)">
                <circle id="Oval" fill="#F45A84" cx="64" cy="64" r="64"></circle>
                <text id="Museum" font-family="Montserrat-Medium, Montserrat" font-size="15" font-weight="400" letter-spacing="-0.36">
                    <tspan x="32.3275" y="98" fill="#FFFFFF">Museum</tspan>
                    <tspan x="95.6725" y="98" font-family="Montserrat-Regular, Montserrat" font-weight="normal" fill="#E6E9E9"> </tspan>
                </text>
                <g id="Museum" transform="translate(39.000000, 25.000000)" fill="#FFFFFF">
                    <path d="M49.8333333,20.3603448 L0.166666667,20.3603448 L25,0.422413793 L49.8333333,20.3603448 Z M7.41666667,17.8258621 L42.5833333,17.8258621 L25,3.63275862 L7.41666667,17.8258621 Z" id="Shape" fill-rule="nonzero"></path>
                    <rect id="Rectangle" x="2.5" y="46.0431034" width="45" height="2.53448276"></rect>
                    <g id="Group" transform="translate(4.166667, 22.810345)">
                        <g id="Rectangle">
                            <rect x="0.0833333333" y="0.422413793" width="8.91666667" height="2.53448276"></rect>
                            <rect x="0.0833333333" y="17.8258621" width="8.91666667" height="2.53448276"></rect>
                            <rect x="3.25" y="2.70344828" width="2.5" height="15.1224138"></rect>
                        </g>
                        <g transform="translate(15.833333, 0.000000)" id="Rectangle">
                            <rect x="0.583333333" y="0.422413793" width="8.91666667" height="2.53448276"></rect>
                            <rect x="0.583333333" y="17.8258621" width="8.91666667" height="2.53448276"></rect>
                            <rect x="3.75" y="2.70344828" width="2.5" height="15.1224138"></rect>
                        </g>
                        <g transform="translate(32.500000, 0.000000)" id="Rectangle">
                            <rect x="0.166666667" y="0.422413793" width="8.91666667" height="2.53448276"></rect>
                            <rect x="0.166666667" y="17.8258621" width="8.91666667" height="2.53448276"></rect>
                            <rect x="3.33333333" y="2.70344828" width="2.5" height="15.1224138"></rect>
                        </g>
                    </g>
                </g>
            </g>
        </g>
    </g>
</svg>