<?xml version="1.0" encoding="UTF-8"?>
<svg width="128px" height="128px" viewBox="0 0 128 128" version="1.1" xmlns="http://www.w3.org/2000/svg" xmlns:xlink="http://www.w3.org/1999/xlink">
    <!-- Generator: Sketch 52.3 (67297) - http://www.bohemiancoding.com/sketch -->
    <title>Restaurants </title>
    <desc>Created with Sketch.</desc>
    <g id="High---UserFlow----SANDRA" stroke="none" stroke-width="1" fill="none" fill-rule="evenodd">
        <g id="16_-Places" transform="translate(-32.000000, -166.000000)">
            <g id="Restaurants-" transform="translate(32.000000, 166.000000)">
                <circle id="Oval" fill="#F45A84" cx="64" cy="64" r="64"></circle>
                <text id="Restaurants" font-family="Montserrat-Medium, Montserrat" font-size="15" font-weight="400" letter-spacing="-0.36">
                    <tspan x="21.0175" y="98" fill="#FFFFFF">Restaurants</tspan>
                    <tspan x="106.9825" y="98" font-family="Montserrat-Regular, Montserrat" font-weight="normal" fill="#E6E9E9"> </tspan>
                </text>
                <path d="M64.5272109,35 C54.2993197,35 46.0748299,43.3157895 46.0748299,53.4210526 C46.0748299,63.6315789 54.4047619,71.8421053 64.5272109,71.8421053 C74.755102,71.9473684 82.9795918,63.6315789 82.9795918,53.4210526 C82.9795918,43.2105263 74.755102,35 64.5272109,35 Z M64.5272109,69.6315789 C55.5646259,69.6315789 48.3945578,62.3684211 48.2891156,53.4210526 C48.2891156,44.4736842 55.5646259,37.2105263 64.5272109,37.2105263 C73.4897959,37.2105263 80.6598639,44.4736842 80.7653061,53.4210526 C80.6598639,62.3684211 73.4897959,69.6315789 64.5272109,69.6315789 Z M41.7517007,46.4736842 C41.7517007,47.8421053 41.329932,49 40.6972789,49.7368421 C40.3809524,50.1578947 40.0646259,50.4736842 39.6428571,50.6842105 L39.6428571,35.3157895 L37.3231293,35.3157895 L37.3231293,50.6842105 C36.9013605,50.4736842 36.585034,50.1578947 36.2687075,49.7368421 C35.6360544,48.8947368 35.2142857,47.7368421 35.2142857,46.4736842 L35.2142857,35.3157895 L33,35.3157895 L33,46.4736842 C33,49.6315789 34.792517,52.4736842 37.4285714,53.1052632 L37.4285714,73 L39.7482993,73 L39.7482993,53.1052632 C42.3843537,52.4736842 44.1768707,49.6315789 44.1768707,46.4736842 L44.1768707,35.3157895 L41.7517007,35.3157895 L41.7517007,46.4736842 Z M89.9387755,34.6842105 L88.0408163,33 L88.0408163,71.8421053 L90.3605442,71.8421053 L90.3605442,61 C93.3129252,58.1578947 95,53.4210526 95,48.0526316 C95,42.3684211 93.1020408,37.4210526 89.9387755,34.6842105 Z M90.3605442,38.6842105 C91.8367347,41 92.7857143,44.3684211 92.7857143,47.9473684 C92.7857143,51.6315789 91.8367347,54.8947368 90.3605442,57.2105263 L90.3605442,38.6842105 Z" id="Shape" fill="#FFFFFF" fill-rule="nonzero"></path>
            </g>
        </g>
    </g>
</svg>