<?xml version="1.0" encoding="UTF-8"?>
<svg width="26px" height="24px" viewBox="0 0 26 24" version="1.1" xmlns="http://www.w3.org/2000/svg" xmlns:xlink="http://www.w3.org/1999/xlink">
    <!-- Generator: Sketch 52.3 (67297) - http://www.bohemiancoding.com/sketch -->
    <title>Chat</title>
    <desc>Created with Sketch.</desc>
    <g id="Symbols" stroke="none" stroke-width="1" fill="none" fill-rule="evenodd">
        <g id="Tab-Bar-" transform="translate(-54.000000, -9.000000)" fill="#485A5A">
            <g id="Chat-">
                <g transform="translate(54.000000, 9.000000)">
                    <g id="Chat">
                        <g id="Path">
                            <path d="M2.90333333,23.8285714 C2.64333333,23.6571429 2.51333333,23.3571429 2.6,23.0571429 L4.07333333,18.4714286 L3.38,18.4714286 C1.51666667,18.4714286 0.0433333333,16.9714286 0.0433333333,15.1714286 L0.0433333333,3.38571429 C0.0433333333,1.54285714 1.56,0.0857142857 3.38,0.0857142857 L22.6633333,0.0857142857 L22.6633333,0.771428571 L22.6633333,1.45714286 L3.38,1.45714286 C2.29666667,1.45714286 1.38666667,2.35714286 1.38666667,3.42857143 L1.38666667,15.1714286 C1.38666667,16.2428571 2.29666667,17.1428571 3.38,17.1428571 L5.02666667,17.1428571 C5.24333333,17.1428571 5.46,17.2285714 5.59,17.4 C5.72,17.5714286 5.76333333,17.7857143 5.67666667,18 L4.76666667,20.8285714 L8.32,17.3142857 C8.45,17.1857143 8.62333333,17.1 8.79666667,17.1 L22.6633333,17.1 C23.7466667,17.1 24.6566667,16.2 24.6566667,15.1285714 L24.6566667,3.38571429 C24.6566667,2.31428571 23.7466667,1.41428571 22.6633333,1.41428571 L22.6633333,0.771428571 L22.6633333,0.0857142857 C24.5266667,0.0857142857 26,1.58571429 26,3.38571429 L26,15.1285714 C26,16.9714286 24.4833333,18.4285714 22.6633333,18.4285714 L9.1,18.4285714 L3.77,23.7 C3.64,23.8285714 3.46666667,23.9142857 3.29333333,23.9142857 C3.16333333,23.9142857 3.03333333,23.8714286 2.90333333,23.8285714 Z"></path>
                        </g>
                    </g>
                </g>
            </g>
        </g>
    </g>
</svg>