<?xml version="1.0" encoding="UTF-8"?>
<svg width="22px" height="24px" viewBox="0 0 22 24" version="1.1" xmlns="http://www.w3.org/2000/svg" xmlns:xlink="http://www.w3.org/1999/xlink">
    <!-- Generator: Sketch 52.3 (67297) - http://www.bohemiancoding.com/sketch -->
    <title>Logo</title>
    <desc>Created with Sketch.</desc>
    <g id="High---UserFlow----SANDRA" stroke="none" stroke-width="1" fill="none" fill-rule="evenodd">
        <g id="Chat-_-Talk_-Social-Buddy" transform="translate(-136.000000, -735.000000)">
            <g id="Tab-Bar-" transform="translate(-1.000000, 726.000000)">
                <g id="Buddy" transform="translate(126.000000, 9.000000)">
                    <g id="Logo" transform="translate(11.000000, 0.000000)">
                        <path d="M11.8555556,0.24 C11.3259259,-0.04 10.4296296,-0.04 9.9,0.24 L1.18148148,4.88 C0.651851852,5.16 0.203703704,6 0.203703704,6.72 L0.203703704,17.48 C0.203703704,18.2 0.651851852,19.04 1.18148148,19.32 L9.9,23.72 C10.4296296,24 11.3259259,24 11.8555556,23.72 L20.8185185,19.28 C21.3481481,19 21.7962963,18.2 21.7962963,17.48 L21.7962963,6.68 C21.7962963,5.96 21.3481481,5.12 20.8185185,4.84 L11.8555556,0.24 Z" id="Path" fill="#485A5A"></path>
                        <path d="M14.7074074,6.72 C15.4814815,7.24 15.8888889,8 15.8888889,8.96 C15.8888889,9.64 15.6851852,10.2 15.3185185,10.68 C14.9518519,11.16 14.4222222,11.48 13.7296296,11.64 C14.5444444,11.8 15.1962963,12.16 15.6851852,12.68 C16.1333333,13.24 16.3777778,13.92 16.3777778,14.72 C16.3777778,15.76 15.9703704,16.6 15.1555556,17.2 C14.3407407,17.8 13.2,18.08 11.7740741,18.08 L6.07037037,18.08 L6.07037037,5.88 L11.6111111,5.88 C12.9148148,5.88 13.9740741,6.16 14.7074074,6.72 Z M12.9148148,10.48 C13.2814815,10.2 13.4444444,9.84 13.4444444,9.36 C13.4444444,8.88 13.2814815,8.52 12.9148148,8.28 C12.5481481,8.04 12.1,7.92 11.4481481,7.92 L8.43333333,7.92 L8.43333333,10.88 L11.4481481,10.88 C12.1,10.88 12.5481481,10.76 12.9148148,10.48 Z M13.2407407,15.68 C13.6481481,15.4 13.8925926,15 13.8925926,14.44 C13.8925926,13.96 13.6888889,13.56 13.2407407,13.28 C12.8333333,13 12.2222222,12.84 11.4481481,12.88 L8.43333333,12.88 L8.43333333,16.12 L11.4481481,16.12 C12.2222222,16.08 12.8333333,15.96 13.2407407,15.68 Z" id="Shape" fill="#FFFFFF" fill-rule="nonzero"></path>
                    </g>
                </g>
            </g>
        </g>
    </g>
</svg>