<?xml version="1.0" encoding="UTF-8"?>
<svg width="216px" height="177px" viewBox="0 0 216 177" version="1.1" xmlns="http://www.w3.org/2000/svg" xmlns:xlink="http://www.w3.org/1999/xlink">
    <!-- Generator: Sketch 52.3 (67297) - http://www.bohemiancoding.com/sketch -->
    <title>Lugar </title>
    <desc>Created with Sketch.</desc>
    <g id="High---UserFlow----SANDRA" stroke="none" stroke-width="1" fill="none" fill-rule="evenodd">
        <g id="Chat-_-Talk_-Social-Buddy" transform="translate(-119.000000, -635.000000)">
            <rect fill="#FFFFFF" x="0" y="0" width="375" height="812"></rect>
            <g id="Tab-Bar-" transform="translate(-1.000000, 726.000000)" fill="#485A5A">
                <g id="Places" transform="translate(206.000000, 9.000000)">
                    <g id="Lugar--Copy" transform="translate(14.000000, 0.000000)">
                        <g id="Iconos--16" transform="translate(1.000000, 0.000000)">
                            <path d="M7.5,0 C3.43421053,0 0.157894737,3.32 0.157894737,7.44 C0.118421053,9.36 2.09210526,13.88 4.06578947,17.68 C5.44736842,20.36 6.78947368,22.76 7.5,24 C8.21052632,22.76 9.59210526,20.36 10.9342105,17.68 C12.9078947,13.84 14.8815789,9.36 14.8421053,7.44 C14.8421053,3.32 11.5657895,0 7.5,0 Z M7.5,11.84 C5.13157895,11.84 3.19736842,9.88 3.19736842,7.48 C3.19736842,5.08 5.13157895,3.12 7.5,3.12 C9.86842105,3.12 11.8026316,5.08 11.8026316,7.48 C11.8026316,9.88 9.86842105,11.84 7.5,11.84 Z" id="Shape" fill-rule="nonzero"></path>
                        </g>
                    </g>
                </g>
            </g>
        </g>
    </g>
</svg>