<?xml version="1.0" encoding="UTF-8"?>
<svg width="18px" height="24px" viewBox="0 0 18 24" version="1.1" xmlns="http://www.w3.org/2000/svg" xmlns:xlink="http://www.w3.org/1999/xlink">
    <!-- Generator: Sketch 52.3 (67297) - http://www.bohemiancoding.com/sketch -->
    <title>Iconos -18 Copy</title>
    <desc>Created with Sketch.</desc>
    <g id="Elementos-" stroke="none" stroke-width="1" fill="none" fill-rule="evenodd">
        <g id="Iconografia-" transform="translate(-1061.000000, -155.000000)" fill="#485A5A">
            <g id="Iconos--18-Copy" transform="translate(1061.000000, 155.000000)">
                <path d="M9,8.52 C11.4136364,8.52 13.3772727,6.6 13.3772727,4.28 C13.3772727,1.92 11.4136364,0 9,0 C6.58636364,0 4.62272727,1.92 4.62272727,4.28 C4.66363636,6.6 6.58636364,8.52 9,8.52 Z" id="Path"></path>
                <path d="M11.8227273,10.16 L6.17727273,10.16 C2.86363636,10.16 0.204545455,12.8 0.204545455,16 L0.204545455,24 L2.86363636,24 L2.86363636,15.68 L4.05,15.68 L4.05,24 L13.8272727,24 L13.8272727,15.68 L15.0136364,15.68 L15.0136364,24 L17.7954545,24 L17.7954545,16 C17.7954545,12.76 15.0954545,10.16 11.8227273,10.16 Z" id="Path"></path>
            </g>
        </g>
    </g>
</svg>