<?xml version="1.0" encoding="UTF-8"?>
<svg width="17px" height="24px" viewBox="0 0 17 24" version="1.1" xmlns="http://www.w3.org/2000/svg" xmlns:xlink="http://www.w3.org/1999/xlink">
    <!-- Generator: Sketch 52.3 (67297) - http://www.bohemiancoding.com/sketch -->
    <title>Perfil</title>
    <desc>Created with Sketch.</desc>
    <g id="Symbols" stroke="none" stroke-width="1" fill="none" fill-rule="evenodd">
        <g id="Tab-Bar-" transform="translate(-300.000000, -9.000000)" fill="#485A5A">
            <g id="Profile">
                <g transform="translate(286.000000, 9.000000)">
                    <g id="Perfil" transform="translate(14.000000, 0.000000)">
                        <g id="Shape">
                            <path d="M8.5,9.16 C11.05,9.16 13.1142857,7.12 13.1142857,4.6 C13.1142857,2.04 11.05,0 8.5,0 C5.95,0 3.88571429,2.04 3.88571429,4.56 C3.88571429,7.08 5.95,9.16 8.5,9.16 Z M8.5,0.96 C10.5238095,0.96 12.1428571,2.56 12.1428571,4.56 C12.1428571,6.56 10.5238095,8.16 8.5,8.16 C6.47619048,8.16 4.85714286,6.56 4.85714286,4.56 C4.85714286,2.6 6.47619048,0.96 8.5,0.96 Z M10.847619,10.36 L6.15238095,10.36 C2.83333333,10.36 0.161904762,13 0.161904762,16.28 L0.161904762,24 L16.8380952,24 L16.8380952,16.28 C16.8380952,13 14.1666667,10.36 10.847619,10.36 Z M15.8261905,23.04 L13.4785714,23.04 L13.4785714,16 L12.547619,16 L12.547619,23 L4.37142857,23 L4.37142857,16 L3.4,16 L3.4,23 L1.17380952,23 L1.17380952,16.28 C1.17380952,13.56 3.4,11.36 6.19285714,11.32 L10.8880952,11.32 C13.6404762,11.32 15.8666667,13.52 15.9071429,16.28 L15.9071429,23.04 L15.8261905,23.04 Z" fill-rule="nonzero"></path>
                        </g>
                    </g>
                </g>
            </g>
        </g>
    </g>
</svg>